<?xml version="1.0" standalone="no"?>
<svg width="300px" height="300px" version="1.1" xmlns="http://www.w3.org/2000/svg" xmlns:xlink="http://www.w3.org/1999/xlink">
<rect x="0" y="0" width="300" height="300"  fill="#000000" />
<defs>
<g id="dot">
<line x1="1" y1="1" x2="0" y2="0"  />
</g>
<g id="cross">
<line x1="-3" y1="0" x2="3" y2="0"  />
<line x1="0" y1="-3" x2="0" y2="3"  />
</g>
<g id="square">
<line x1="-3" y1="-3" x2="-3" y2="3"  />
<line x1="-3" y1="3" x2="3" y2="3"  />
<line x1="3" y1="3" x2="3" y2="-3"  />
<line x1="3" y1="-3" x2="-3" y2="-3"  />
</g>
<g id="round">
<ellipse cx="0" cy="0" rx="3" ry="3"  fill="none" /></g>
<g id="triangle">
<line x1="0" y1="-3" x2="-3" y2="3"  />
<line x1="-3" y1="3" x2="3" y2="3"  />
<line x1="0" y1="-3" x2="3" y2="3"  />
</g>
</defs>
<polygon fill="none" stroke="#ffffff" points="30.9524,269.048 30.9524,30.9524 269.048,30.9524 269.048,269.048 " />
<text style="font-size:12;text-align:center;text-anchor:middle;" x="150" y="298.262" fill="#ffffff">Saggital distance (um)</text>
<use x="70.6349" y="30.9524" xlink:href="#cross"  stroke="#ffffff" />
<use x="70.6349" y="269.048" xlink:href="#cross"  stroke="#ffffff" />
<text style="font-size:12;text-align:center;text-anchor:middle;" x="70.6349" y="287.048" fill="#ffffff">-24.4</text>
<use x="150" y="30.9524" xlink:href="#cross"  stroke="#ffffff" />
<use x="150" y="269.048" xlink:href="#cross"  stroke="#ffffff" />
<text style="font-size:12;text-align:center;text-anchor:middle;" x="150" y="287.048" fill="#ffffff">0</text>
<use x="229.365" y="30.9524" xlink:href="#cross"  stroke="#ffffff" />
<use x="229.365" y="269.048" xlink:href="#cross"  stroke="#ffffff" />
<text style="font-size:12;text-align:center;text-anchor:middle;" x="229.365" y="287.048" fill="#ffffff">24.4</text>
<text style="font-size:12;text-align:center;text-anchor:middle;" x="7.7381" y="156" transform="rotate(-90,7.7381,150)" fill="#ffffff">Tangential distance (um)</text>
<use x="269.048" y="232.1" xlink:href="#cross"  stroke="#ffffff" />
<use x="30.9524" y="232.1" xlink:href="#cross"  stroke="#ffffff" />
<text style="font-size:12;text-align:right;text-anchor:end;" x="24.9524" y="238.1" fill="#ffffff">-24.4</text>
<use x="269.048" y="152.735" xlink:href="#cross"  stroke="#ffffff" />
<use x="30.9524" y="152.735" xlink:href="#cross"  stroke="#ffffff" />
<text style="font-size:12;text-align:right;text-anchor:end;" x="24.9524" y="158.735" fill="#ffffff">0</text>
<use x="269.048" y="73.3702" xlink:href="#cross"  stroke="#ffffff" />
<use x="30.9524" y="73.3702" xlink:href="#cross"  stroke="#ffffff" />
<text style="font-size:12;text-align:right;text-anchor:end;" x="24.9524" y="79.3702" fill="#ffffff">24.4</text>
<use x="172.719" y="125.213" xlink:href="#dot"  stroke="#e121f6" />
<use x="195.79" y="143.424" xlink:href="#dot"  stroke="#cb92ac" />
<use x="172.055" y="89.6677" xlink:href="#dot"  stroke="#56768b" />
<use x="154.58" y="133.809" xlink:href="#dot"  stroke="#a3aca7" />
<use x="172.545" y="152.838" xlink:href="#dot"  stroke="#037a41" />
<use x="155.546" y="97.6044" xlink:href="#dot"  stroke="#8068df" />
<use x="142.958" y="140.471" xlink:href="#dot"  stroke="#52f79c" />
<use x="156.636" y="160.191" xlink:href="#dot"  stroke="#4ffdfe" />
<use x="144.489" y="103.613" xlink:href="#dot"  stroke="#59c4f7" />
<use x="137.746" y="144.843" xlink:href="#dot"  stroke="#63ba2c" />
<use x="147.651" y="165.116" xlink:href="#dot"  stroke="#f49d4d" />
<use x="139.245" y="107.405" xlink:href="#dot"  stroke="#eb6adf" />
<use x="138.197" y="147.267" xlink:href="#dot"  stroke="#98c057" />
<use x="144.648" y="167.945" xlink:href="#dot"  stroke="#256504" />
<use x="139.335" y="109.378" xlink:href="#dot"  stroke="#cc697e" />
<use x="142.935" y="148.361" xlink:href="#dot"  stroke="#0fe9e7" />
<use x="146.118" y="169.284" xlink:href="#dot"  stroke="#ee3ce0" />
<use x="143.541" y="110.184" xlink:href="#dot"  stroke="#8c8cdf" />
<use x="150" y="148.657" xlink:href="#dot"  stroke="#8ce6a5" />
<use x="150" y="169.663" xlink:href="#dot"  stroke="#844a61" />
<use x="150" y="110.381" xlink:href="#dot"  stroke="#b040fe" />
<use x="157.065" y="148.361" xlink:href="#dot"  stroke="#fe2c69" />
<use x="153.882" y="169.284" xlink:href="#dot"  stroke="#dfc52b" />
<use x="156.459" y="110.184" xlink:href="#dot"  stroke="#38ea90" />
<use x="161.803" y="147.267" xlink:href="#dot"  stroke="#3cb7f9" />
<use x="155.352" y="167.945" xlink:href="#dot"  stroke="#bbc7e4" />
<use x="160.665" y="109.378" xlink:href="#dot"  stroke="#a4b622" />
<use x="162.254" y="144.843" xlink:href="#dot"  stroke="#8644ae" />
<use x="152.349" y="165.116" xlink:href="#dot"  stroke="#66d095" />
<use x="160.755" y="107.405" xlink:href="#dot"  stroke="#0c56e0" />
<use x="157.042" y="140.471" xlink:href="#dot"  stroke="#6d0821" />
<use x="143.364" y="160.191" xlink:href="#dot"  stroke="#6d084e" />
<use x="155.511" y="103.613" xlink:href="#dot"  stroke="#d7e714" />
<use x="145.42" y="133.809" xlink:href="#dot"  stroke="#032000" />
<use x="127.455" y="152.838" xlink:href="#dot"  stroke="#945db8" />
<use x="144.454" y="97.6044" xlink:href="#dot"  stroke="#8f1980" />
<use x="127.281" y="125.213" xlink:href="#dot"  stroke="#74be38" />
<use x="104.21" y="143.424" xlink:href="#dot"  stroke="#96457c" />
<use x="127.945" y="89.6677" xlink:href="#dot"  stroke="#46ab4e" />
<use x="228.799" y="123.959" xlink:href="#dot"  stroke="#dcb8a5" />
<use x="264.261" y="129.244" xlink:href="#dot"  stroke="#bd26ad" />
<use x="220.695" y="100.431" xlink:href="#dot"  stroke="#df94b5" />
<use x="210.858" y="132.745" xlink:href="#dot"  stroke="#2e6c9e" />
<use x="238.45" y="140.062" xlink:href="#dot"  stroke="#4370bf" />
<use x="208.602" y="107.3" xlink:href="#dot"  stroke="#44051d" />
<use x="187.798" y="145.591" xlink:href="#dot"  stroke="#fc9437" />
<use x="209.477" y="154.592" xlink:href="#dot"  stroke="#7d0af5" />
<use x="188.338" y="118.441" xlink:href="#dot"  stroke="#b5a03b" />
<use x="167.388" y="157.291" xlink:href="#dot"  stroke="#33e7e7" />
<use x="184.341" y="167.689" xlink:href="#dot"  stroke="#82c4a0" />
<use x="169.064" y="128.611" xlink:href="#dot"  stroke="#2883c6" />
<use x="152.526" y="165.98" xlink:href="#dot"  stroke="#d6635c" />
<use x="165.485" y="177.52" xlink:href="#dot"  stroke="#8d92c8" />
<use x="154.441" y="135.96" xlink:href="#dot"  stroke="#2cd639" />
<use x="144.13" y="171.486" xlink:href="#dot"  stroke="#ec1b3f" />
<use x="153.548" y="183.92" xlink:href="#dot"  stroke="#0a19d4" />
<use x="145.811" y="140.356" xlink:href="#dot"  stroke="#4296de" />
<use x="141.928" y="174.448" xlink:href="#dot"  stroke="#384d80" />
<use x="148.079" y="187.527" xlink:href="#dot"  stroke="#748068" />
<use x="143.138" y="142.482" xlink:href="#dot"  stroke="#5c042e" />
<use x="144.613" y="175.746" xlink:href="#dot"  stroke="#fc2cb1" />
<use x="147.653" y="189.216" xlink:href="#dot"  stroke="#c40416" />
<use x="145.239" y="143.261" xlink:href="#dot"  stroke="#2191a9" />
<use x="150" y="176.089" xlink:href="#dot"  stroke="#eabe81" />
<use x="150" y="189.69" xlink:href="#dot"  stroke="#25ab9d" />
<use x="150" y="143.428" xlink:href="#dot"  stroke="#64b6b6" />
<use x="155.387" y="175.746" xlink:href="#dot"  stroke="#39f84d" />
<use x="152.347" y="189.216" xlink:href="#dot"  stroke="#18319b" />
<use x="154.761" y="143.261" xlink:href="#dot"  stroke="#99a51d" />
<use x="158.072" y="174.448" xlink:href="#dot"  stroke="#030221" />
<use x="151.921" y="187.527" xlink:href="#dot"  stroke="#31004e" />
<use x="156.862" y="142.482" xlink:href="#dot"  stroke="#e3c452" />
<use x="155.87" y="171.486" xlink:href="#dot"  stroke="#f9e5e3" />
<use x="146.452" y="183.92" xlink:href="#dot"  stroke="#a4d0a3" />
<use x="154.189" y="140.356" xlink:href="#dot"  stroke="#26f54f" />
<use x="147.474" y="165.98" xlink:href="#dot"  stroke="#c35b06" />
<use x="134.515" y="177.52" xlink:href="#dot"  stroke="#7a9400" />
<use x="145.559" y="135.96" xlink:href="#dot"  stroke="#c8ad31" />
<use x="132.612" y="157.291" xlink:href="#dot"  stroke="#6448d7" />
<use x="115.659" y="167.689" xlink:href="#dot"  stroke="#814bda" />
<use x="130.936" y="128.611" xlink:href="#dot"  stroke="#a37cda" />
<use x="112.202" y="145.591" xlink:href="#dot"  stroke="#f1609f" />
<use x="90.5234" y="154.592" xlink:href="#dot"  stroke="#445b86" />
<use x="111.662" y="118.441" xlink:href="#dot"  stroke="#290158" />
<use x="89.1422" y="132.745" xlink:href="#dot"  stroke="#cd284e" />
<use x="61.5496" y="140.062" xlink:href="#dot"  stroke="#1debaa" />
<use x="91.3978" y="107.3" xlink:href="#dot"  stroke="#24673f" />
<use x="71.2013" y="123.959" xlink:href="#dot"  stroke="#2431ed" />
<use x="35.7387" y="129.244" xlink:href="#dot"  stroke="#569636" />
<use x="79.3047" y="100.431" xlink:href="#dot"  stroke="#2e1981" />
<use x="204.49" y="175.61" xlink:href="#dot"  stroke="#0abcfe" />
<use x="249.098" y="166.966" xlink:href="#dot"  stroke="#e4ae60" />
<use x="187.12" y="166.777" xlink:href="#dot"  stroke="#85f3bb" />
<use x="234.368" y="144.886" xlink:href="#dot"  stroke="#0c1ebd" />
<use x="268.372" y="140.066" xlink:href="#dot"  stroke="#64ebe5" />
<use x="227.61" y="131.646" xlink:href="#dot"  stroke="#b30ad2" />
<use x="223.288" y="144.264" xlink:href="#dot"  stroke="#5e2f3a" />
<use x="249.82" y="142.433" xlink:href="#dot"  stroke="#9e536c" />
<use x="221.773" y="127.653" xlink:href="#dot"  stroke="#8ca903" />
<use x="200.426" y="153.661" xlink:href="#dot"  stroke="#c3d81c" />
<use x="221.344" y="154.233" xlink:href="#dot"  stroke="#46e2d9" />
<use x="201.288" y="134.284" xlink:href="#dot"  stroke="#45c889" />
<use x="177.631" y="164.459" xlink:href="#dot"  stroke="#a54e7e" />
<use x="194.055" y="166.985" xlink:href="#dot"  stroke="#625b9c" />
<use x="179.349" y="142.74" xlink:href="#dot"  stroke="#20bf89" />
<use x="159.768" y="173.315" xlink:href="#dot"  stroke="#067494" />
<use x="172.374" y="177.413" xlink:href="#dot"  stroke="#d8d2c3" />
<use x="161.562" y="149.623" xlink:href="#dot"  stroke="#147218" />
<use x="148.669" y="179.368" xlink:href="#dot"  stroke="#81fec2" />
<use x="157.866" y="184.685" xlink:href="#dot"  stroke="#84c39b" />
<use x="150.166" y="154.08" xlink:href="#dot"  stroke="#a10a7f" />
<use x="144.41" y="182.906" xlink:href="#dot"  stroke="#7c4f49" />
<use x="150.435" y="189.097" xlink:href="#dot"  stroke="#06f597" />
<use x="145.449" y="156.435" xlink:href="#dot"  stroke="#8458f2" />
<use x="145.666" y="184.616" xlink:href="#dot"  stroke="#2179b3" />
<use x="148.65" y="191.335" xlink:href="#dot"  stroke="#ab8028" />
<use x="146.193" y="157.416" xlink:href="#dot"  stroke="#4059fb" />
<use x="150" y="185.107" xlink:href="#dot"  stroke="#056e6e" />
<use x="150" y="192.002" xlink:href="#dot"  stroke="#1def6e" />
<use x="150" y="157.661" xlink:href="#dot"  stroke="#df7532" />
<use x="154.334" y="184.616" xlink:href="#dot"  stroke="#7c183c" />
<use x="151.35" y="191.335" xlink:href="#dot"  stroke="#fb948c" />
<use x="153.807" y="157.416" xlink:href="#dot"  stroke="#459a82" />
<use x="155.59" y="182.906" xlink:href="#dot"  stroke="#dd1fda" />
<use x="149.565" y="189.097" xlink:href="#dot"  stroke="#d14155" />
<use x="154.551" y="156.435" xlink:href="#dot"  stroke="#85edd5" />
<use x="151.331" y="179.368" xlink:href="#dot"  stroke="#ae2f30" />
<use x="142.134" y="184.685" xlink:href="#dot"  stroke="#aa349f" />
<use x="149.834" y="154.08" xlink:href="#dot"  stroke="#195290" />
<use x="140.232" y="173.315" xlink:href="#dot"  stroke="#873207" />
<use x="127.626" y="177.413" xlink:href="#dot"  stroke="#b9ae1f" />
<use x="138.438" y="149.623" xlink:href="#dot"  stroke="#f6abb4" />
<use x="122.369" y="164.459" xlink:href="#dot"  stroke="#83f150" />
<use x="105.945" y="166.985" xlink:href="#dot"  stroke="#06cf70" />
<use x="120.651" y="142.74" xlink:href="#dot"  stroke="#e1a1b2" />
<use x="99.5736" y="153.661" xlink:href="#dot"  stroke="#3828a0" />
<use x="78.6556" y="154.233" xlink:href="#dot"  stroke="#0ed6cf" />
<use x="98.7124" y="134.284" xlink:href="#dot"  stroke="#3e8105" />
<use x="76.7116" y="144.264" xlink:href="#dot"  stroke="#dd9b57" />
<use x="50.1801" y="142.433" xlink:href="#dot"  stroke="#6f238a" />
<use x="78.2265" y="127.653" xlink:href="#dot"  stroke="#76dd3a" />
<use x="65.6317" y="144.886" xlink:href="#dot"  stroke="#95d5e5" />
<use x="31.6284" y="140.066" xlink:href="#dot"  stroke="#4a59d7" />
<use x="72.3903" y="131.646" xlink:href="#dot"  stroke="#9b60a8" />
<use x="95.51" y="175.61" xlink:href="#dot"  stroke="#0c434b" />
<use x="50.902" y="166.966" xlink:href="#dot"  stroke="#be7b73" />
<use x="112.88" y="166.777" xlink:href="#dot"  stroke="#5f894b" />
<use x="223.165" y="178.2" xlink:href="#dot"  stroke="#30c8cc" />
<use x="256.714" y="163.761" xlink:href="#dot"  stroke="#36a769" />
<use x="216.182" y="174.871" xlink:href="#dot"  stroke="#8e178d" />
<use x="225.91" y="154.083" xlink:href="#dot"  stroke="#198d6c" />
<use x="252.098" y="143.58" xlink:href="#dot"  stroke="#542442" />
<use x="224.095" y="145.969" xlink:href="#dot"  stroke="#3a6f9b" />
<use x="206.86" y="152.734" xlink:href="#dot"  stroke="#130bfc" />
<use x="227.544" y="145.334" xlink:href="#dot"  stroke="#bb1740" />
<use x="207.322" y="140.873" xlink:href="#dot"  stroke="#07d5bb" />
<use x="183.925" y="159.146" xlink:href="#dot"  stroke="#7b3646" />
<use x="200.211" y="154.227" xlink:href="#dot"  stroke="#c6670f" />
<use x="185.173" y="144.225" xlink:href="#dot"  stroke="#949db7" />
<use x="164.612" y="166.855" xlink:href="#dot"  stroke="#fd2dce" />
<use x="177.152" y="163.908" xlink:href="#dot"  stroke="#8b475d" />
<use x="165.922" y="149.422" xlink:href="#dot"  stroke="#f79b81" />
<use x="151.883" y="173.307" xlink:href="#dot"  stroke="#3bd5f0" />
<use x="161.059" y="171.874" xlink:href="#dot"  stroke="#d6e9fb" />
<use x="152.944" y="153.878" xlink:href="#dot"  stroke="#d4a614" />
<use x="146.25" y="177.763" xlink:href="#dot"  stroke="#15ade9" />
<use x="152.278" y="177.41" xlink:href="#dot"  stroke="#d12a21" />
<use x="146.962" y="156.873" xlink:href="#dot"  stroke="#18f088" />
<use x="146.476" y="180.268" xlink:href="#dot"  stroke="#288527" />
<use x="149.466" y="180.563" xlink:href="#dot"  stroke="#df8454" />
<use x="146.826" y="158.482" xlink:href="#dot"  stroke="#af119c" />
<use x="150" y="181.064" xlink:href="#dot"  stroke="#0d0a38" />
<use x="150" y="181.576" xlink:href="#dot"  stroke="#8f450f" />
<use x="150" y="158.975" xlink:href="#dot"  stroke="#801df8" />
<use x="153.524" y="180.268" xlink:href="#dot"  stroke="#7df19f" />
<use x="150.534" y="180.563" xlink:href="#dot"  stroke="#91074e" />
<use x="153.174" y="158.482" xlink:href="#dot"  stroke="#7cd878" />
<use x="153.75" y="177.763" xlink:href="#dot"  stroke="#9df16a" />
<use x="147.722" y="177.41" xlink:href="#dot"  stroke="#271af0" />
<use x="153.038" y="156.873" xlink:href="#dot"  stroke="#4efa75" />
<use x="148.117" y="173.307" xlink:href="#dot"  stroke="#a3ab86" />
<use x="138.941" y="171.874" xlink:href="#dot"  stroke="#41b990" />
<use x="147.056" y="153.878" xlink:href="#dot"  stroke="#7949d5" />
<use x="135.388" y="166.855" xlink:href="#dot"  stroke="#89c9f2" />
<use x="122.848" y="163.908" xlink:href="#dot"  stroke="#8348e5" />
<use x="134.078" y="149.422" xlink:href="#dot"  stroke="#24d9ec" />
<use x="116.075" y="159.146" xlink:href="#dot"  stroke="#7356c6" />
<use x="99.7894" y="154.227" xlink:href="#dot"  stroke="#ebf4b8" />
<use x="114.827" y="144.225" xlink:href="#dot"  stroke="#571cd3" />
<use x="93.14" y="152.734" xlink:href="#dot"  stroke="#486bcf" />
<use x="72.4556" y="145.334" xlink:href="#dot"  stroke="#bd107c" />
<use x="92.6785" y="140.873" xlink:href="#dot"  stroke="#455136" />
<use x="74.0898" y="154.083" xlink:href="#dot"  stroke="#d5ca7f" />
<use x="47.9021" y="143.58" xlink:href="#dot"  stroke="#ac554a" />
<use x="75.9049" y="145.969" xlink:href="#dot"  stroke="#a0d892" />
<use x="76.8345" y="178.2" xlink:href="#dot"  stroke="#86fc6c" />
<use x="43.2862" y="163.761" xlink:href="#dot"  stroke="#7370c3" />
<use x="83.8182" y="174.871" xlink:href="#dot"  stroke="#3b5db8" />
<use x="212.806" y="178.252" xlink:href="#dot"  stroke="#f3b4d5" />
<use x="239.256" y="159.2" xlink:href="#dot"  stroke="#c8fd41" />
<use x="209.822" y="178.78" xlink:href="#dot"  stroke="#99bb51" />
<use x="204.671" y="154.504" xlink:href="#dot"  stroke="#1601a2" />
<use x="225.546" y="139.272" xlink:href="#dot"  stroke="#4cd76e" />
<use x="204.191" y="150.303" xlink:href="#dot"  stroke="#cc84c3" />
<use x="185.608" y="150.442" xlink:href="#dot"  stroke="#17259c" />
<use x="202.053" y="138.213" xlink:href="#dot"  stroke="#aaac99" />
<use x="186.047" y="142.523" xlink:href="#dot"  stroke="#18210b" />
<use x="167.244" y="153.96" xlink:href="#dot"  stroke="#db5c69" />
<use x="179.925" y="144.082" xlink:href="#dot"  stroke="#95511e" />
<use x="167.86" y="143.072" xlink:href="#dot"  stroke="#6b1b1c" />
<use x="154.27" y="159.451" xlink:href="#dot"  stroke="#adb4d8" />
<use x="163.566" y="151.361" xlink:href="#dot"  stroke="#fecada" />
<use x="154.769" y="146.251" xlink:href="#dot"  stroke="#a118b2" />
<use x="147.941" y="164.347" xlink:href="#dot"  stroke="#10e438" />
<use x="154.056" y="157.522" xlink:href="#dot"  stroke="#d4fc5e" />
<use x="148.253" y="149.472" xlink:href="#dot"  stroke="#71a80b" />
<use x="147.333" y="167.548" xlink:href="#dot"  stroke="#0cc02c" />
<use x="150.369" y="161.479" xlink:href="#dot"  stroke="#179d88" />
<use x="147.475" y="151.653" xlink:href="#dot"  stroke="#8034d9" />
<use x="150" y="168.646" xlink:href="#dot"  stroke="#9f9ff4" />
<use x="150" y="162.829" xlink:href="#dot"  stroke="#bc4daa" />
<use x="150" y="152.409" xlink:href="#dot"  stroke="#964d76" />
<use x="152.667" y="167.548" xlink:href="#dot"  stroke="#71ef8e" />
<use x="149.631" y="161.479" xlink:href="#dot"  stroke="#240174" />
<use x="152.525" y="151.653" xlink:href="#dot"  stroke="#5cd572" />
<use x="152.059" y="164.347" xlink:href="#dot"  stroke="#bb471b" />
<use x="145.944" y="157.522" xlink:href="#dot"  stroke="#c654db" />
<use x="151.747" y="149.472" xlink:href="#dot"  stroke="#f26b79" />
<use x="145.73" y="159.451" xlink:href="#dot"  stroke="#7cecae" />
<use x="136.434" y="151.361" xlink:href="#dot"  stroke="#578d4e" />
<use x="145.231" y="146.251" xlink:href="#dot"  stroke="#4d4b9c" />
<use x="132.756" y="153.96" xlink:href="#dot"  stroke="#f7e1ea" />
<use x="120.075" y="144.082" xlink:href="#dot"  stroke="#6e53da" />
<use x="132.14" y="143.072" xlink:href="#dot"  stroke="#fd78db" />
<use x="114.392" y="150.442" xlink:href="#dot"  stroke="#72d5b1" />
<use x="97.9471" y="138.213" xlink:href="#dot"  stroke="#e491f8" />
<use x="113.953" y="142.523" xlink:href="#dot"  stroke="#00584d" />
<use x="95.3286" y="154.504" xlink:href="#dot"  stroke="#dc4cb9" />
<use x="74.4543" y="139.272" xlink:href="#dot"  stroke="#57c8a7" />
<use x="95.8093" y="150.303" xlink:href="#dot"  stroke="#062036" />
<use x="87.1938" y="178.252" xlink:href="#dot"  stroke="#556e81" />
<use x="60.744" y="159.2" xlink:href="#dot"  stroke="#f26663" />
<use x="90.1775" y="178.78" xlink:href="#dot"  stroke="#ddd5b7" />
<use x="189.762" y="177.536" xlink:href="#dot"  stroke="#b8d330" />
<use x="211.185" y="154.363" xlink:href="#dot"  stroke="#944707" />
<use x="187.896" y="181.453" xlink:href="#dot"  stroke="#462c98" />
<use x="180.748" y="151.442" xlink:href="#dot"  stroke="#402df1" />
<use x="197.585" y="131.829" xlink:href="#dot"  stroke="#8e0b3e" />
<use x="180.147" y="150.947" xlink:href="#dot"  stroke="#486208" />
<use x="166.761" y="144.176" xlink:href="#dot"  stroke="#f06829" />
<use x="179.733" y="127.307" xlink:href="#dot"  stroke="#27be97" />
<use x="166.575" y="140.28" xlink:href="#dot"  stroke="#a9b1fd" />
<use x="155.431" y="144.943" xlink:href="#dot"  stroke="#0d8fd4" />
<use x="164.94" y="130.132" xlink:href="#dot"  stroke="#c548a8" />
<use x="155.327" y="138.46" xlink:href="#dot"  stroke="#f5dcf0" />
<use x="149.323" y="148.208" xlink:href="#dot"  stroke="#fd231e" />
<use x="155.579" y="134.84" xlink:href="#dot"  stroke="#96644b" />
<use x="149.225" y="139.884" xlink:href="#dot"  stroke="#89f256" />
<use x="148.187" y="151.087" xlink:href="#dot"  stroke="#c73cb9" />
<use x="151.295" y="138.576" xlink:href="#dot"  stroke="#d02d23" />
<use x="148.121" y="141.652" xlink:href="#dot"  stroke="#f955e1" />
<use x="150" y="152.185" xlink:href="#dot"  stroke="#91fe93" />
<use x="150" y="139.959" xlink:href="#dot"  stroke="#900d23" />
<use x="150" y="142.378" xlink:href="#dot"  stroke="#66d26c" />
<use x="151.813" y="151.087" xlink:href="#dot"  stroke="#0fc949" />
<use x="148.705" y="138.576" xlink:href="#dot"  stroke="#01c76d" />
<use x="151.879" y="141.652" xlink:href="#dot"  stroke="#1f5fd1" />
<use x="150.677" y="148.208" xlink:href="#dot"  stroke="#6ae8c4" />
<use x="144.421" y="134.84" xlink:href="#dot"  stroke="#c1b101" />
<use x="150.775" y="139.884" xlink:href="#dot"  stroke="#7c822f" />
<use x="144.569" y="144.943" xlink:href="#dot"  stroke="#9f7d84" />
<use x="135.06" y="130.132" xlink:href="#dot"  stroke="#821084" />
<use x="144.673" y="138.46" xlink:href="#dot"  stroke="#16a092" />
<use x="133.239" y="144.176" xlink:href="#dot"  stroke="#3a0765" />
<use x="120.267" y="127.307" xlink:href="#dot"  stroke="#a61730" />
<use x="133.425" y="140.28" xlink:href="#dot"  stroke="#f018f8" />
<use x="119.252" y="151.442" xlink:href="#dot"  stroke="#5f3859" />
<use x="102.415" y="131.829" xlink:href="#dot"  stroke="#32a342" />
<use x="119.853" y="150.947" xlink:href="#dot"  stroke="#f665f4" />
<use x="110.238" y="177.536" xlink:href="#dot"  stroke="#f8e278" />
<use x="88.8147" y="154.363" xlink:href="#dot"  stroke="#2982f5" />
<use x="112.104" y="181.453" xlink:href="#dot"  stroke="#ae0506" />
<use x="165.181" y="181.936" xlink:href="#dot"  stroke="#331ca7" />
<use x="182.626" y="154.72" xlink:href="#dot"  stroke="#c657af" />
<use x="163.33" y="189.424" xlink:href="#dot"  stroke="#2cfec7" />
<use x="160.715" y="151.649" xlink:href="#dot"  stroke="#5defe0" />
<use x="174.106" y="127.623" xlink:href="#dot"  stroke="#565019" />
<use x="159.654" y="155.224" xlink:href="#dot"  stroke="#b082bc" />
<use x="153.853" y="140.323" xlink:href="#dot"  stroke="#f37a23" />
<use x="163.647" y="118.654" xlink:href="#dot"  stroke="#e87306" />
<use x="153.14" y="141.017" xlink:href="#dot"  stroke="#629d89" />
<use x="149.494" y="137.598" xlink:href="#dot"  stroke="#584c8f" />
<use x="155.931" y="117.562" xlink:href="#dot"  stroke="#5f80ab" />
<use x="149.005" y="136.286" xlink:href="#dot"  stroke="#084703" />
<use x="148.612" y="137.851" xlink:href="#dot"  stroke="#b87402" />
<use x="151.808" y="118.778" xlink:href="#dot"  stroke="#81d2f2" />
<use x="148.353" y="135.347" xlink:href="#dot"  stroke="#632a44" />
<use x="150" y="138.229" xlink:href="#dot"  stroke="#7cdac6" />
<use x="150" y="119.474" xlink:href="#dot"  stroke="#3ace41" />
<use x="150" y="135.328" xlink:href="#dot"  stroke="#5eb7b5" />
<use x="151.388" y="137.851" xlink:href="#dot"  stroke="#651b53" />
<use x="148.192" y="118.778" xlink:href="#dot"  stroke="#ee73a0" />
<use x="151.647" y="135.347" xlink:href="#dot"  stroke="#7ed321" />
<use x="150.506" y="137.598" xlink:href="#dot"  stroke="#2bdc69" />
<use x="144.069" y="117.562" xlink:href="#dot"  stroke="#2e95de" />
<use x="150.995" y="136.286" xlink:href="#dot"  stroke="#3118b1" />
<use x="146.147" y="140.323" xlink:href="#dot"  stroke="#257bdb" />
<use x="136.353" y="118.654" xlink:href="#dot"  stroke="#69f8b6" />
<use x="146.86" y="141.017" xlink:href="#dot"  stroke="#303486" />
<use x="139.285" y="151.649" xlink:href="#dot"  stroke="#72923f" />
<use x="125.894" y="127.623" xlink:href="#dot"  stroke="#28f85a" />
<use x="140.346" y="155.224" xlink:href="#dot"  stroke="#7be7ce" />
<use x="134.819" y="181.936" xlink:href="#dot"  stroke="#1d67a2" />
<use x="117.374" y="154.72" xlink:href="#dot"  stroke="#3f9280" />
<use x="136.67" y="189.424" xlink:href="#dot"  stroke="#a8c117" />
<use x="144.844" y="198.764" xlink:href="#dot"  stroke="#88f32f" />
<use x="158.79" y="167.326" xlink:href="#dot"  stroke="#3a1aaa" />
<use x="142.794" y="210.332" xlink:href="#dot"  stroke="#1783a4" />
<use x="146.906" y="162.596" xlink:href="#dot"  stroke="#ceb4d8" />
<use x="157.06" y="133.885" xlink:href="#dot"  stroke="#55276c" />
<use x="145.559" y="170.87" xlink:href="#dot"  stroke="#945065" />
<use x="146.876" y="146.307" xlink:href="#dot"  stroke="#efcc4d" />
<use x="153.532" y="119.461" xlink:href="#dot"  stroke="#bee9b5" />
<use x="146.005" y="152.355" xlink:href="#dot"  stroke="#622949" />
<use x="147.858" y="139.891" xlink:href="#dot"  stroke="#e2d20b" />
<use x="151.158" y="114.134" xlink:href="#dot"  stroke="#f95bfe" />
<use x="147.418" y="144.639" xlink:href="#dot"  stroke="#2a9619" />
<use x="150" y="138.275" xlink:href="#dot"  stroke="#d5ae9d" />
<use x="150" y="112.876" xlink:href="#dot"  stroke="#7a7d53" />
<use x="150" y="142.595" xlink:href="#dot"  stroke="#53d37b" />
<use x="152.142" y="139.891" xlink:href="#dot"  stroke="#c069cb" />
<use x="148.842" y="114.134" xlink:href="#dot"  stroke="#265998" />
<use x="152.582" y="144.639" xlink:href="#dot"  stroke="#741883" />
<use x="153.124" y="146.307" xlink:href="#dot"  stroke="#2a7aad" />
<use x="146.468" y="119.461" xlink:href="#dot"  stroke="#735e80" />
<use x="153.995" y="152.355" xlink:href="#dot"  stroke="#7f58dc" />
<use x="153.094" y="162.596" xlink:href="#dot"  stroke="#7f8374" />
<use x="142.94" y="133.885" xlink:href="#dot"  stroke="#995923" />
<use x="154.441" y="170.87" xlink:href="#dot"  stroke="#37d3a0" />
<use x="155.156" y="198.764" xlink:href="#dot"  stroke="#8b2875" />
<use x="141.21" y="167.326" xlink:href="#dot"  stroke="#07e8de" />
<use x="157.206" y="210.332" xlink:href="#dot"  stroke="#d30f38" />
<use x="139.241" y="196.36" xlink:href="#dot"  stroke="#6c8451" />
<use x="146.168" y="162.522" xlink:href="#dot"  stroke="#f0afcb" />
<use x="137.96" y="210.076" xlink:href="#dot"  stroke="#9e232b" />
<use x="144.89" y="176.712" xlink:href="#dot"  stroke="#20a384" />
<use x="148.316" y="144.132" xlink:href="#dot"  stroke="#fc2308" />
<use x="144.264" y="188.95" xlink:href="#dot"  stroke="#71bc61" />
<use x="150" y="171.047" xlink:href="#dot"  stroke="#95f436" />
<use x="150" y="138.879" xlink:href="#dot"  stroke="#37805e" />
<use x="150" y="182.803" xlink:href="#dot"  stroke="#ac8848" />
<use x="155.11" y="176.712" xlink:href="#dot"  stroke="#8b5c58" />
<use x="151.684" y="144.132" xlink:href="#dot"  stroke="#c3c9dc" />
<use x="155.736" y="188.95" xlink:href="#dot"  stroke="#15bb8c" />
<use x="160.759" y="196.36" xlink:href="#dot"  stroke="#e15ab0" />
<use x="153.832" y="162.522" xlink:href="#dot"  stroke="#0d7a54" />
<use x="162.04" y="210.076" xlink:href="#dot"  stroke="#917878" />
</svg>
