<?xml version="1.0" standalone="no"?>
<svg width="300px" height="300px" version="1.1" xmlns="http://www.w3.org/2000/svg" xmlns:xlink="http://www.w3.org/1999/xlink">
<rect x="0" y="0" width="300" height="300"  fill="#000000" />
<defs>
<g id="dot">
<line x1="1" y1="1" x2="0" y2="0"  />
</g>
<g id="cross">
<line x1="-3" y1="0" x2="3" y2="0"  />
<line x1="0" y1="-3" x2="0" y2="3"  />
</g>
<g id="square">
<line x1="-3" y1="-3" x2="-3" y2="3"  />
<line x1="-3" y1="3" x2="3" y2="3"  />
<line x1="3" y1="3" x2="3" y2="-3"  />
<line x1="3" y1="-3" x2="-3" y2="-3"  />
</g>
<g id="round">
<ellipse cx="0" cy="0" rx="3" ry="3"  fill="none" /></g>
<g id="triangle">
<line x1="0" y1="-3" x2="-3" y2="3"  />
<line x1="-3" y1="3" x2="3" y2="3"  />
<line x1="0" y1="-3" x2="3" y2="3"  />
</g>
</defs>
<polygon fill="none" stroke="#ffffff" points="30.9524,269.048 30.9524,30.9524 269.048,30.9524 269.048,269.048 " />
<text style="font-size:12;text-align:center;text-anchor:middle;" x="150" y="298.262" fill="#ffffff">Saggital distance (um)</text>
<use x="70.6349" y="30.9524" xlink:href="#cross"  stroke="#ffffff" />
<use x="70.6349" y="269.048" xlink:href="#cross"  stroke="#ffffff" />
<text style="font-size:12;text-align:center;text-anchor:middle;" x="70.6349" y="287.048" fill="#ffffff">-160</text>
<use x="150" y="30.9524" xlink:href="#cross"  stroke="#ffffff" />
<use x="150" y="269.048" xlink:href="#cross"  stroke="#ffffff" />
<text style="font-size:12;text-align:center;text-anchor:middle;" x="150" y="287.048" fill="#ffffff">0</text>
<use x="229.365" y="30.9524" xlink:href="#cross"  stroke="#ffffff" />
<use x="229.365" y="269.048" xlink:href="#cross"  stroke="#ffffff" />
<text style="font-size:12;text-align:center;text-anchor:middle;" x="229.365" y="287.048" fill="#ffffff">160</text>
<text style="font-size:12;text-align:center;text-anchor:middle;" x="7.7381" y="156" transform="rotate(-90,7.7381,150)" fill="#ffffff">Tangential distance (um)</text>
<use x="269.048" y="259.09" xlink:href="#cross"  stroke="#ffffff" />
<use x="30.9524" y="259.09" xlink:href="#cross"  stroke="#ffffff" />
<text style="font-size:12;text-align:right;text-anchor:end;" x="24.9524" y="265.09" fill="#ffffff">-160</text>
<use x="269.048" y="179.725" xlink:href="#cross"  stroke="#ffffff" />
<use x="30.9524" y="179.725" xlink:href="#cross"  stroke="#ffffff" />
<text style="font-size:12;text-align:right;text-anchor:end;" x="24.9524" y="185.725" fill="#ffffff">0</text>
<use x="269.048" y="100.36" xlink:href="#cross"  stroke="#ffffff" />
<use x="30.9524" y="100.36" xlink:href="#cross"  stroke="#ffffff" />
<text style="font-size:12;text-align:right;text-anchor:end;" x="24.9524" y="106.36" fill="#ffffff">160</text>
<use x="173.877" y="190.723" xlink:href="#dot"  stroke="#f00b1c" />
<use x="179.542" y="196.317" xlink:href="#dot"  stroke="#0c0d36" />
<use x="172.103" y="179.979" xlink:href="#dot"  stroke="#2d1ddb" />
<use x="170.07" y="195.031" xlink:href="#dot"  stroke="#34ec49" />
<use x="174.872" y="201.363" xlink:href="#dot"  stroke="#8681de" />
<use x="168.894" y="183.092" xlink:href="#dot"  stroke="#06a70c" />
<use x="164.611" y="199.507" xlink:href="#dot"  stroke="#8d5f3c" />
<use x="168.694" y="206.481" xlink:href="#dot"  stroke="#5c791c" />
<use x="163.801" y="186.531" xlink:href="#dot"  stroke="#c980c2" />
<use x="158.434" y="203.903" xlink:href="#dot"  stroke="#f1442e" />
<use x="161.897" y="211.432" xlink:href="#dot"  stroke="#31845d" />
<use x="157.838" y="190.032" xlink:href="#dot"  stroke="#8440d5" />
<use x="152.774" y="207.699" xlink:href="#dot"  stroke="#cda827" />
<use x="155.683" y="215.703" xlink:href="#dot"  stroke="#d541ee" />
<use x="152.303" y="193.062" xlink:href="#dot"  stroke="#4886a6" />
<use x="148.556" y="210.511" xlink:href="#dot"  stroke="#b0b56b" />
<use x="150.952" y="218.915" xlink:href="#dot"  stroke="#04756a" />
<use x="148.165" y="195.227" xlink:href="#dot"  stroke="#76639e" />
<use x="146.17" y="212.237" xlink:href="#dot"  stroke="#2075b4" />
<use x="148.075" y="220.969" xlink:href="#dot"  stroke="#94326f" />
<use x="145.842" y="196.42" xlink:href="#dot"  stroke="#089096" />
<use x="145.531" y="213.041" xlink:href="#dot"  stroke="#7f67d1" />
<use x="146.957" y="222.029" xlink:href="#dot"  stroke="#fc35bd" />
<use x="145.269" y="196.805" xlink:href="#dot"  stroke="#048a6d" />
<use x="146.272" y="213.243" xlink:href="#dot"  stroke="#d49f34" />
<use x="147.223" y="222.415" xlink:href="#dot"  stroke="#2031a4" />
<use x="146.087" y="196.704" xlink:href="#dot"  stroke="#d7cea5" />
<use x="147.917" y="213.19" xlink:href="#dot"  stroke="#56f29f" />
<use x="148.393" y="222.473" xlink:href="#dot"  stroke="#278af2" />
<use x="147.821" y="196.467" xlink:href="#dot"  stroke="#5bb2b9" />
<use x="150" y="213.141" xlink:href="#dot"  stroke="#d1090e" />
<use x="150" y="222.461" xlink:href="#dot"  stroke="#089c82" />
<use x="150" y="196.356" xlink:href="#dot"  stroke="#0f9dd4" />
<use x="152.083" y="213.19" xlink:href="#dot"  stroke="#527f09" />
<use x="151.607" y="222.473" xlink:href="#dot"  stroke="#6cb506" />
<use x="152.179" y="196.467" xlink:href="#dot"  stroke="#5dc337" />
<use x="153.728" y="213.243" xlink:href="#dot"  stroke="#cec4d0" />
<use x="152.777" y="222.415" xlink:href="#dot"  stroke="#bd2942" />
<use x="153.913" y="196.704" xlink:href="#dot"  stroke="#980a54" />
<use x="154.469" y="213.041" xlink:href="#dot"  stroke="#000f8c" />
<use x="153.043" y="222.029" xlink:href="#dot"  stroke="#c4b94a" />
<use x="154.731" y="196.805" xlink:href="#dot"  stroke="#89ade6" />
<use x="153.83" y="212.237" xlink:href="#dot"  stroke="#886f3d" />
<use x="151.925" y="220.969" xlink:href="#dot"  stroke="#f3b3ee" />
<use x="154.158" y="196.42" xlink:href="#dot"  stroke="#a7a3a0" />
<use x="151.444" y="210.511" xlink:href="#dot"  stroke="#66c7bf" />
<use x="149.048" y="218.915" xlink:href="#dot"  stroke="#8d6288" />
<use x="151.835" y="195.227" xlink:href="#dot"  stroke="#b1c33f" />
<use x="147.226" y="207.699" xlink:href="#dot"  stroke="#c706d6" />
<use x="144.317" y="215.703" xlink:href="#dot"  stroke="#f72c59" />
<use x="147.697" y="193.062" xlink:href="#dot"  stroke="#9b517e" />
<use x="141.566" y="203.903" xlink:href="#dot"  stroke="#17a67c" />
<use x="138.103" y="211.432" xlink:href="#dot"  stroke="#671dcf" />
<use x="142.162" y="190.032" xlink:href="#dot"  stroke="#be7508" />
<use x="135.389" y="199.507" xlink:href="#dot"  stroke="#953bc7" />
<use x="131.306" y="206.481" xlink:href="#dot"  stroke="#85984e" />
<use x="136.199" y="186.531" xlink:href="#dot"  stroke="#46a0d5" />
<use x="129.93" y="195.031" xlink:href="#dot"  stroke="#e092f6" />
<use x="125.128" y="201.363" xlink:href="#dot"  stroke="#4c023f" />
<use x="131.106" y="183.092" xlink:href="#dot"  stroke="#effb97" />
<use x="126.123" y="190.723" xlink:href="#dot"  stroke="#4bd96b" />
<use x="120.458" y="196.317" xlink:href="#dot"  stroke="#850e98" />
<use x="127.897" y="179.979" xlink:href="#dot"  stroke="#870ac2" />
<use x="203.13" y="169.595" xlink:href="#dot"  stroke="#6afdb4" />
<use x="211.852" y="169.114" xlink:href="#dot"  stroke="#368740" />
<use x="198.635" y="167.664" xlink:href="#dot"  stroke="#8a08b4" />
<use x="194.089" y="187.104" xlink:href="#dot"  stroke="#c61911" />
<use x="201.326" y="187.722" xlink:href="#dot"  stroke="#f69ef3" />
<use x="191.061" y="183.865" xlink:href="#dot"  stroke="#c5859c" />
<use x="184.798" y="194.435" xlink:href="#dot"  stroke="#46e97e" />
<use x="190.82" y="196.096" xlink:href="#dot"  stroke="#04754c" />
<use x="182.933" y="189.635" xlink:href="#dot"  stroke="#5c9c76" />
<use x="178.064" y="196.1" xlink:href="#dot"  stroke="#1fc7e3" />
<use x="183.097" y="198.681" xlink:href="#dot"  stroke="#3e753b" />
<use x="177.045" y="189.843" xlink:href="#dot"  stroke="#b983a6" />
<use x="172.072" y="196.027" xlink:href="#dot"  stroke="#d10f3d" />
<use x="176.299" y="199.397" xlink:href="#dot"  stroke="#9e76ef" />
<use x="171.615" y="188.512" xlink:href="#dot"  stroke="#dca747" />
<use x="165.599" y="196.383" xlink:href="#dot"  stroke="#a01e86" />
<use x="169.159" y="200.42" xlink:href="#dot"  stroke="#6d3486" />
<use x="165.478" y="187.816" xlink:href="#dot"  stroke="#570c99" />
<use x="158.845" y="197.658" xlink:href="#dot"  stroke="#9657e6" />
<use x="161.837" y="202.254" xlink:href="#dot"  stroke="#62362b" />
<use x="158.899" y="188.225" xlink:href="#dot"  stroke="#69d565" />
<use x="152.709" y="199.466" xlink:href="#dot"  stroke="#a0f33c" />
<use x="155.201" y="204.526" xlink:href="#dot"  stroke="#5b66b4" />
<use x="152.833" y="189.323" xlink:href="#dot"  stroke="#b441f3" />
<use x="148.055" y="201.227" xlink:href="#dot"  stroke="#0d0eb1" />
<use x="150.093" y="206.669" xlink:href="#dot"  stroke="#d9ef4b" />
<use x="148.188" y="190.509" xlink:href="#dot"  stroke="#3e322d" />
<use x="145.346" y="202.541" xlink:href="#dot"  stroke="#2edc6c" />
<use x="146.958" y="208.288" xlink:href="#dot"  stroke="#4e6da1" />
<use x="145.459" y="191.364" xlink:href="#dot"  stroke="#259df2" />
<use x="144.589" y="203.287" xlink:href="#dot"  stroke="#483489" />
<use x="145.79" y="209.269" xlink:href="#dot"  stroke="#7d8e52" />
<use x="144.67" y="191.76" xlink:href="#dot"  stroke="#8dbb31" />
<use x="145.456" y="203.576" xlink:href="#dot"  stroke="#435ba7" />
<use x="146.254" y="209.723" xlink:href="#dot"  stroke="#035507" />
<use x="145.507" y="191.8" xlink:href="#dot"  stroke="#eadd90" />
<use x="147.446" y="203.62" xlink:href="#dot"  stroke="#a183da" />
<use x="147.844" y="209.866" xlink:href="#dot"  stroke="#9722ea" />
<use x="147.47" y="191.695" xlink:href="#dot"  stroke="#5d1195" />
<use x="150" y="203.61" xlink:href="#dot"  stroke="#f00c8c" />
<use x="150" y="209.889" xlink:href="#dot"  stroke="#c9fbf8" />
<use x="150" y="191.635" xlink:href="#dot"  stroke="#84fc22" />
<use x="152.554" y="203.62" xlink:href="#dot"  stroke="#95a5b9" />
<use x="152.156" y="209.866" xlink:href="#dot"  stroke="#aa6642" />
<use x="152.53" y="191.695" xlink:href="#dot"  stroke="#be8db2" />
<use x="154.544" y="203.576" xlink:href="#dot"  stroke="#9f3a99" />
<use x="153.746" y="209.723" xlink:href="#dot"  stroke="#bd5565" />
<use x="154.493" y="191.8" xlink:href="#dot"  stroke="#0993df" />
<use x="155.411" y="203.287" xlink:href="#dot"  stroke="#fd0713" />
<use x="154.21" y="209.269" xlink:href="#dot"  stroke="#016d69" />
<use x="155.33" y="191.76" xlink:href="#dot"  stroke="#61e4ce" />
<use x="154.654" y="202.541" xlink:href="#dot"  stroke="#3a8474" />
<use x="153.042" y="208.288" xlink:href="#dot"  stroke="#e57924" />
<use x="154.541" y="191.364" xlink:href="#dot"  stroke="#7ec9d8" />
<use x="151.945" y="201.227" xlink:href="#dot"  stroke="#b69e71" />
<use x="149.907" y="206.669" xlink:href="#dot"  stroke="#53fc48" />
<use x="151.812" y="190.509" xlink:href="#dot"  stroke="#b24aca" />
<use x="147.291" y="199.466" xlink:href="#dot"  stroke="#4be805" />
<use x="144.799" y="204.526" xlink:href="#dot"  stroke="#f7fb9b" />
<use x="147.167" y="189.323" xlink:href="#dot"  stroke="#b7be20" />
<use x="141.155" y="197.658" xlink:href="#dot"  stroke="#de25fa" />
<use x="138.163" y="202.254" xlink:href="#dot"  stroke="#7ea15c" />
<use x="141.101" y="188.225" xlink:href="#dot"  stroke="#df19fa" />
<use x="134.401" y="196.383" xlink:href="#dot"  stroke="#9ba9fb" />
<use x="130.841" y="200.42" xlink:href="#dot"  stroke="#23b094" />
<use x="134.522" y="187.816" xlink:href="#dot"  stroke="#081c11" />
<use x="127.928" y="196.027" xlink:href="#dot"  stroke="#59c1d6" />
<use x="123.701" y="199.397" xlink:href="#dot"  stroke="#823db5" />
<use x="128.385" y="188.512" xlink:href="#dot"  stroke="#e580e2" />
<use x="121.936" y="196.1" xlink:href="#dot"  stroke="#29a267" />
<use x="116.903" y="198.681" xlink:href="#dot"  stroke="#99c246" />
<use x="122.955" y="189.843" xlink:href="#dot"  stroke="#b3974e" />
<use x="115.202" y="194.435" xlink:href="#dot"  stroke="#260944" />
<use x="109.18" y="196.096" xlink:href="#dot"  stroke="#a493a9" />
<use x="117.067" y="189.635" xlink:href="#dot"  stroke="#59346b" />
<use x="105.911" y="187.104" xlink:href="#dot"  stroke="#dc6539" />
<use x="98.6741" y="187.722" xlink:href="#dot"  stroke="#481fe5" />
<use x="108.939" y="183.865" xlink:href="#dot"  stroke="#1cd86c" />
<use x="96.8704" y="169.595" xlink:href="#dot"  stroke="#88103b" />
<use x="88.1477" y="169.114" xlink:href="#dot"  stroke="#4bec6f" />
<use x="101.365" y="167.664" xlink:href="#dot"  stroke="#87829d" />
<use x="202.164" y="166.087" xlink:href="#dot"  stroke="#8e1bb8" />
<use x="209.033" y="164.295" xlink:href="#dot"  stroke="#b53407" />
<use x="199.467" y="165.789" xlink:href="#dot"  stroke="#324e5a" />
<use x="186.127" y="185.925" xlink:href="#dot"  stroke="#7be2de" />
<use x="191.874" y="185.242" xlink:href="#dot"  stroke="#8d112b" />
<use x="184.346" y="184.253" xlink:href="#dot"  stroke="#5d2c00" />
<use x="175.482" y="191.838" xlink:href="#dot"  stroke="#8584f2" />
<use x="180.265" y="192.171" xlink:href="#dot"  stroke="#742066" />
<use x="174.527" y="188.636" xlink:href="#dot"  stroke="#27edd8" />
<use x="168.171" y="191.439" xlink:href="#dot"  stroke="#b02167" />
<use x="172.152" y="192.643" xlink:href="#dot"  stroke="#8d87fe" />
<use x="167.827" y="186.865" xlink:href="#dot"  stroke="#9e9216" />
<use x="161.935" y="189.568" xlink:href="#dot"  stroke="#42d700" />
<use x="165.251" y="191.496" xlink:href="#dot"  stroke="#891165" />
<use x="161.982" y="183.856" xlink:href="#dot"  stroke="#65b8ca" />
<use x="155.954" y="188.463" xlink:href="#dot"  stroke="#28200d" />
<use x="158.712" y="190.983" xlink:href="#dot"  stroke="#c04bf9" />
<use x="156.215" y="181.84" xlink:href="#dot"  stroke="#56df8e" />
<use x="150.549" y="188.554" xlink:href="#dot"  stroke="#b402ad" />
<use x="152.825" y="191.555" xlink:href="#dot"  stroke="#f887d0" />
<use x="150.898" y="181.214" xlink:href="#dot"  stroke="#d4d70a" />
<use x="146.402" y="189.436" xlink:href="#dot"  stroke="#e1caca" />
<use x="148.247" y="192.822" xlink:href="#dot"  stroke="#711ee1" />
<use x="146.755" y="181.537" xlink:href="#dot"  stroke="#619cf9" />
<use x="144.015" y="190.548" xlink:href="#dot"  stroke="#514cbc" />
<use x="145.464" y="194.236" xlink:href="#dot"  stroke="#2b3b33" />
<use x="144.326" y="182.221" xlink:href="#dot"  stroke="#aabf8c" />
<use x="143.513" y="191.498" xlink:href="#dot"  stroke="#c0dd95" />
<use x="144.588" y="195.413" xlink:href="#dot"  stroke="#c1461e" />
<use x="143.757" y="182.852" xlink:href="#dot"  stroke="#03d6eb" />
<use x="144.67" y="192.131" xlink:href="#dot"  stroke="#29cbbc" />
<use x="145.381" y="196.205" xlink:href="#dot"  stroke="#a87167" />
<use x="144.835" y="183.265" xlink:href="#dot"  stroke="#c1c6a0" />
<use x="147.025" y="192.461" xlink:href="#dot"  stroke="#804d71" />
<use x="147.379" y="196.63" xlink:href="#dot"  stroke="#655671" />
<use x="147.108" y="183.465" xlink:href="#dot"  stroke="#f28cb7" />
<use x="150" y="192.559" xlink:href="#dot"  stroke="#d362d7" />
<use x="150" y="196.759" xlink:href="#dot"  stroke="#9a40b0" />
<use x="150" y="183.521" xlink:href="#dot"  stroke="#39be87" />
<use x="152.975" y="192.461" xlink:href="#dot"  stroke="#56b77d" />
<use x="152.621" y="196.63" xlink:href="#dot"  stroke="#30a0a6" />
<use x="152.892" y="183.465" xlink:href="#dot"  stroke="#f625b8" />
<use x="155.33" y="192.131" xlink:href="#dot"  stroke="#7b3a35" />
<use x="154.619" y="196.205" xlink:href="#dot"  stroke="#50fd9e" />
<use x="155.165" y="183.265" xlink:href="#dot"  stroke="#87baee" />
<use x="156.487" y="191.498" xlink:href="#dot"  stroke="#3cd906" />
<use x="155.412" y="195.413" xlink:href="#dot"  stroke="#7a40c5" />
<use x="156.243" y="182.852" xlink:href="#dot"  stroke="#182ff2" />
<use x="155.985" y="190.548" xlink:href="#dot"  stroke="#f4aff7" />
<use x="154.536" y="194.236" xlink:href="#dot"  stroke="#55302a" />
<use x="155.674" y="182.221" xlink:href="#dot"  stroke="#21cafb" />
<use x="153.598" y="189.436" xlink:href="#dot"  stroke="#a32aee" />
<use x="151.753" y="192.822" xlink:href="#dot"  stroke="#7b381f" />
<use x="153.245" y="181.537" xlink:href="#dot"  stroke="#0da8b7" />
<use x="149.451" y="188.554" xlink:href="#dot"  stroke="#f6cb38" />
<use x="147.175" y="191.555" xlink:href="#dot"  stroke="#eede25" />
<use x="149.102" y="181.214" xlink:href="#dot"  stroke="#14f985" />
<use x="144.046" y="188.463" xlink:href="#dot"  stroke="#31bc99" />
<use x="141.288" y="190.983" xlink:href="#dot"  stroke="#81b952" />
<use x="143.785" y="181.84" xlink:href="#dot"  stroke="#3ad40a" />
<use x="138.065" y="189.568" xlink:href="#dot"  stroke="#54b8e8" />
<use x="134.749" y="191.496" xlink:href="#dot"  stroke="#aa9149" />
<use x="138.018" y="183.856" xlink:href="#dot"  stroke="#d3836f" />
<use x="131.829" y="191.439" xlink:href="#dot"  stroke="#9e3d55" />
<use x="127.848" y="192.643" xlink:href="#dot"  stroke="#fc8d3c" />
<use x="132.173" y="186.865" xlink:href="#dot"  stroke="#bc5bbe" />
<use x="124.518" y="191.838" xlink:href="#dot"  stroke="#0b8f14" />
<use x="119.735" y="192.171" xlink:href="#dot"  stroke="#88bb17" />
<use x="125.473" y="188.636" xlink:href="#dot"  stroke="#b4f648" />
<use x="113.873" y="185.925" xlink:href="#dot"  stroke="#e3aa9c" />
<use x="108.126" y="185.242" xlink:href="#dot"  stroke="#4dacec" />
<use x="115.654" y="184.253" xlink:href="#dot"  stroke="#332067" />
<use x="97.8356" y="166.087" xlink:href="#dot"  stroke="#b7bef0" />
<use x="90.9671" y="164.295" xlink:href="#dot"  stroke="#534c4c" />
<use x="100.533" y="165.789" xlink:href="#dot"  stroke="#3b3e09" />
<use x="191.787" y="156.802" xlink:href="#dot"  stroke="#f1aef8" />
<use x="197.491" y="154.122" xlink:href="#dot"  stroke="#2e6555" />
<use x="189.81" y="157.397" xlink:href="#dot"  stroke="#98e5e8" />
<use x="174.536" y="179.815" xlink:href="#dot"  stroke="#af425e" />
<use x="179.303" y="178.233" xlink:href="#dot"  stroke="#1107da" />
<use x="173.268" y="179.033" xlink:href="#dot"  stroke="#698bf9" />
<use x="164.335" y="186.346" xlink:href="#dot"  stroke="#1820d7" />
<use x="168.281" y="185.744" xlink:href="#dot"  stroke="#0e082b" />
<use x="163.733" y="184.089" xlink:href="#dot"  stroke="#c749a0" />
<use x="157.718" y="185.834" xlink:href="#dot"  stroke="#d4a166" />
<use x="160.973" y="186.051" xlink:href="#dot"  stroke="#87407f" />
<use x="157.605" y="182.29" xlink:href="#dot"  stroke="#5fe18a" />
<use x="152.561" y="183.637" xlink:href="#dot"  stroke="#fb6dce" />
<use x="155.238" y="184.518" xlink:href="#dot"  stroke="#874bcb" />
<use x="152.751" y="179.059" xlink:href="#dot"  stroke="#3f46af" />
<use x="148.236" y="182.102" xlink:href="#dot"  stroke="#ed6bb9" />
<use x="150.422" y="183.51" xlink:href="#dot"  stroke="#b49624" />
<use x="148.579" y="176.724" xlink:href="#dot"  stroke="#7cc606" />
<use x="144.968" y="181.72" xlink:href="#dot"  stroke="#9cfb93" />
<use x="146.724" y="183.542" xlink:href="#dot"  stroke="#b98db4" />
<use x="145.355" y="175.739" xlink:href="#dot"  stroke="#33c35d" />
<use x="143.153" y="182.165" xlink:href="#dot"  stroke="#3076f3" />
<use x="144.522" y="184.306" xlink:href="#dot"  stroke="#54e509" />
<use x="143.516" y="175.738" xlink:href="#dot"  stroke="#0a5332" />
<use x="142.987" y="182.94" xlink:href="#dot"  stroke="#63c31c" />
<use x="143.995" y="185.316" xlink:href="#dot"  stroke="#ec2367" />
<use x="143.283" y="176.192" xlink:href="#dot"  stroke="#3a9a05" />
<use x="144.351" y="183.668" xlink:href="#dot"  stroke="#92f81d" />
<use x="145.016" y="186.207" xlink:href="#dot"  stroke="#b147fd" />
<use x="144.558" y="176.704" xlink:href="#dot"  stroke="#b13d76" />
<use x="146.869" y="184.152" xlink:href="#dot"  stroke="#10075d" />
<use x="147.199" y="186.787" xlink:href="#dot"  stroke="#883f42" />
<use x="146.975" y="177.062" xlink:href="#dot"  stroke="#3b2767" />
<use x="150" y="184.318" xlink:href="#dot"  stroke="#378408" />
<use x="150" y="186.984" xlink:href="#dot"  stroke="#f9dc59" />
<use x="150" y="177.187" xlink:href="#dot"  stroke="#aa6995" />
<use x="153.131" y="184.152" xlink:href="#dot"  stroke="#373247" />
<use x="152.801" y="186.787" xlink:href="#dot"  stroke="#74dae6" />
<use x="153.025" y="177.062" xlink:href="#dot"  stroke="#944d9c" />
<use x="155.649" y="183.668" xlink:href="#dot"  stroke="#b5eb88" />
<use x="154.984" y="186.207" xlink:href="#dot"  stroke="#98aacb" />
<use x="155.442" y="176.704" xlink:href="#dot"  stroke="#c23d7f" />
<use x="157.013" y="182.94" xlink:href="#dot"  stroke="#2895c9" />
<use x="156.005" y="185.316" xlink:href="#dot"  stroke="#d6be04" />
<use x="156.717" y="176.192" xlink:href="#dot"  stroke="#a9a05a" />
<use x="156.847" y="182.165" xlink:href="#dot"  stroke="#a1a352" />
<use x="155.478" y="184.306" xlink:href="#dot"  stroke="#583a2b" />
<use x="156.484" y="175.738" xlink:href="#dot"  stroke="#733172" />
<use x="155.032" y="181.72" xlink:href="#dot"  stroke="#ccb538" />
<use x="153.276" y="183.542" xlink:href="#dot"  stroke="#5920b2" />
<use x="154.645" y="175.739" xlink:href="#dot"  stroke="#c9004d" />
<use x="151.764" y="182.102" xlink:href="#dot"  stroke="#0eaad5" />
<use x="149.578" y="183.51" xlink:href="#dot"  stroke="#6d34a8" />
<use x="151.421" y="176.724" xlink:href="#dot"  stroke="#d24231" />
<use x="147.439" y="183.637" xlink:href="#dot"  stroke="#3cb188" />
<use x="144.762" y="184.518" xlink:href="#dot"  stroke="#a82aa0" />
<use x="147.249" y="179.059" xlink:href="#dot"  stroke="#c0456b" />
<use x="142.282" y="185.834" xlink:href="#dot"  stroke="#71477d" />
<use x="139.027" y="186.051" xlink:href="#dot"  stroke="#30794d" />
<use x="142.395" y="182.29" xlink:href="#dot"  stroke="#3a7b46" />
<use x="135.665" y="186.346" xlink:href="#dot"  stroke="#e82b3b" />
<use x="131.719" y="185.744" xlink:href="#dot"  stroke="#363ea4" />
<use x="136.267" y="184.089" xlink:href="#dot"  stroke="#eddca0" />
<use x="125.464" y="179.815" xlink:href="#dot"  stroke="#943066" />
<use x="120.697" y="178.233" xlink:href="#dot"  stroke="#0333a7" />
<use x="126.732" y="179.033" xlink:href="#dot"  stroke="#bb0960" />
<use x="108.213" y="156.802" xlink:href="#dot"  stroke="#4df8e0" />
<use x="102.509" y="154.122" xlink:href="#dot"  stroke="#f98a5a" />
<use x="110.19" y="157.397" xlink:href="#dot"  stroke="#61c2a8" />
<use x="212.575" y="78.4491" xlink:href="#dot"  stroke="#164f56" />
<use x="182.121" y="145.53" xlink:href="#dot"  stroke="#0de017" />
<use x="187" y="142.154" xlink:href="#dot"  stroke="#d6c274" />
<use x="180.451" y="146.699" xlink:href="#dot"  stroke="#1e5476" />
<use x="165.047" y="173.461" xlink:href="#dot"  stroke="#d7d43f" />
<use x="169.1" y="171.164" xlink:href="#dot"  stroke="#e32111" />
<use x="163.98" y="173.29" xlink:href="#dot"  stroke="#77c5ca" />
<use x="155.654" y="182.405" xlink:href="#dot"  stroke="#d0933e" />
<use x="158.978" y="181.055" xlink:href="#dot"  stroke="#751a01" />
<use x="155.156" y="180.821" xlink:href="#dot"  stroke="#70bc3b" />
<use x="150.107" y="183.129" xlink:href="#dot"  stroke="#043c83" />
<use x="152.816" y="182.554" xlink:href="#dot"  stroke="#81e994" />
<use x="150.024" y="180.332" xlink:href="#dot"  stroke="#c4014f" />
<use x="146.424" y="181.459" xlink:href="#dot"  stroke="#14f63f" />
<use x="148.611" y="181.497" xlink:href="#dot"  stroke="#57311f" />
<use x="146.591" y="177.706" xlink:href="#dot"  stroke="#b12606" />
<use x="143.971" y="179.968" xlink:href="#dot"  stroke="#c3e95a" />
<use x="145.711" y="180.48" xlink:href="#dot"  stroke="#17ac7c" />
<use x="144.258" y="175.496" xlink:href="#dot"  stroke="#5a401d" />
<use x="142.771" y="179.334" xlink:href="#dot"  stroke="#7deafa" />
<use x="144.116" y="180.204" xlink:href="#dot"  stroke="#5c3b3f" />
<use x="143.082" y="174.34" xlink:href="#dot"  stroke="#c144df" />
<use x="142.941" y="179.391" xlink:href="#dot"  stroke="#243787" />
<use x="143.925" y="180.523" xlink:href="#dot"  stroke="#24a0c3" />
<use x="143.216" y="174.032" xlink:href="#dot"  stroke="#701685" />
<use x="144.425" y="179.754" xlink:href="#dot"  stroke="#6234be" />
<use x="145.071" y="181.064" xlink:href="#dot"  stroke="#fbaf24" />
<use x="144.625" y="174.153" xlink:href="#dot"  stroke="#a50c7c" />
<use x="146.934" y="180.098" xlink:href="#dot"  stroke="#c89b13" />
<use x="147.254" y="181.511" xlink:href="#dot"  stroke="#3a61e0" />
<use x="147.038" y="174.36" xlink:href="#dot"  stroke="#063af3" />
<use x="150" y="180.232" xlink:href="#dot"  stroke="#f8ef22" />
<use x="150" y="181.679" xlink:href="#dot"  stroke="#5b2acd" />
<use x="150" y="174.449" xlink:href="#dot"  stroke="#244367" />
<use x="153.066" y="180.098" xlink:href="#dot"  stroke="#93a026" />
<use x="152.746" y="181.511" xlink:href="#dot"  stroke="#a98f4e" />
<use x="152.962" y="174.36" xlink:href="#dot"  stroke="#2559e7" />
<use x="155.575" y="179.754" xlink:href="#dot"  stroke="#bbca37" />
<use x="154.929" y="181.064" xlink:href="#dot"  stroke="#a03051" />
<use x="155.375" y="174.153" xlink:href="#dot"  stroke="#1e1163" />
<use x="157.059" y="179.391" xlink:href="#dot"  stroke="#f61c7a" />
<use x="156.075" y="180.523" xlink:href="#dot"  stroke="#b713e8" />
<use x="156.784" y="174.032" xlink:href="#dot"  stroke="#493a58" />
<use x="157.229" y="179.334" xlink:href="#dot"  stroke="#9c40ef" />
<use x="155.884" y="180.204" xlink:href="#dot"  stroke="#0fa149" />
<use x="156.918" y="174.34" xlink:href="#dot"  stroke="#a4b936" />
<use x="156.029" y="179.968" xlink:href="#dot"  stroke="#6f2061" />
<use x="154.289" y="180.48" xlink:href="#dot"  stroke="#9cd067" />
<use x="155.742" y="175.496" xlink:href="#dot"  stroke="#758302" />
<use x="153.576" y="181.459" xlink:href="#dot"  stroke="#3e5cb0" />
<use x="151.389" y="181.497" xlink:href="#dot"  stroke="#806817" />
<use x="153.409" y="177.706" xlink:href="#dot"  stroke="#3ded4e" />
<use x="149.893" y="183.129" xlink:href="#dot"  stroke="#71d526" />
<use x="147.184" y="182.554" xlink:href="#dot"  stroke="#58701e" />
<use x="149.976" y="180.332" xlink:href="#dot"  stroke="#9944ef" />
<use x="144.346" y="182.405" xlink:href="#dot"  stroke="#b83287" />
<use x="141.022" y="181.055" xlink:href="#dot"  stroke="#395371" />
<use x="144.844" y="180.821" xlink:href="#dot"  stroke="#c773d2" />
<use x="134.953" y="173.461" xlink:href="#dot"  stroke="#1d1986" />
<use x="130.9" y="171.164" xlink:href="#dot"  stroke="#de116f" />
<use x="136.02" y="173.29" xlink:href="#dot"  stroke="#f9f20f" />
<use x="117.879" y="145.53" xlink:href="#dot"  stroke="#2fb15f" />
<use x="113" y="142.154" xlink:href="#dot"  stroke="#87732e" />
<use x="119.549" y="146.699" xlink:href="#dot"  stroke="#13ed94" />
<use x="87.4254" y="78.4491" xlink:href="#dot"  stroke="#843650" />
<use x="175.93" y="131.761" xlink:href="#dot"  stroke="#4fd624" />
<use x="180.167" y="127.767" xlink:href="#dot"  stroke="#888a0a" />
<use x="174.405" y="133.371" xlink:href="#dot"  stroke="#edf22a" />
<use x="159.132" y="166.965" xlink:href="#dot"  stroke="#4617ef" />
<use x="162.623" y="164.029" xlink:href="#dot"  stroke="#322516" />
<use x="158.13" y="167.317" xlink:href="#dot"  stroke="#c290e3" />
<use x="150.444" y="180.149" xlink:href="#dot"  stroke="#d16cf1" />
<use x="153.274" y="178.127" xlink:href="#dot"  stroke="#759252" />
<use x="149.939" y="179.159" xlink:href="#dot"  stroke="#076cf8" />
<use x="145.924" y="183.349" xlink:href="#dot"  stroke="#338c38" />
<use x="148.19" y="182.065" xlink:href="#dot"  stroke="#4e59b0" />
<use x="145.779" y="181.21" xlink:href="#dot"  stroke="#c83823" />
<use x="143.618" y="182.962" xlink:href="#dot"  stroke="#b1b6ea" />
<use x="145.403" y="182.249" xlink:href="#dot"  stroke="#86a7e6" />
<use x="143.69" y="179.926" xlink:href="#dot"  stroke="#6770df" />
<use x="142.777" y="181.931" xlink:href="#dot"  stroke="#3ed3c4" />
<use x="144.145" y="181.647" xlink:href="#dot"  stroke="#9b3d1d" />
<use x="142.949" y="178.237" xlink:href="#dot"  stroke="#eff33f" />
<use x="143.187" y="181.245" xlink:href="#dot"  stroke="#11c64c" />
<use x="144.181" y="181.271" xlink:href="#dot"  stroke="#67a94d" />
<use x="143.377" y="177.09" xlink:href="#dot"  stroke="#1d7489" />
<use x="144.717" y="180.99" xlink:href="#dot"  stroke="#7f188a" />
<use x="145.366" y="181.224" xlink:href="#dot"  stroke="#249811" />
<use x="144.869" y="176.533" xlink:href="#dot"  stroke="#bf2111" />
<use x="147.119" y="180.966" xlink:href="#dot"  stroke="#b0869c" />
<use x="147.439" y="181.319" xlink:href="#dot"  stroke="#b9d4b5" />
<use x="147.202" y="176.339" xlink:href="#dot"  stroke="#ba9073" />
<use x="150" y="180.981" xlink:href="#dot"  stroke="#c4c91c" />
<use x="150" y="181.374" xlink:href="#dot"  stroke="#ef34ca" />
<use x="150" y="176.3" xlink:href="#dot"  stroke="#f64694" />
<use x="152.881" y="180.966" xlink:href="#dot"  stroke="#a56cce" />
<use x="152.561" y="181.319" xlink:href="#dot"  stroke="#243d50" />
<use x="152.798" y="176.339" xlink:href="#dot"  stroke="#8e2b01" />
<use x="155.283" y="180.99" xlink:href="#dot"  stroke="#3d0eae" />
<use x="154.634" y="181.224" xlink:href="#dot"  stroke="#72aac3" />
<use x="155.131" y="176.533" xlink:href="#dot"  stroke="#0d527c" />
<use x="156.813" y="181.245" xlink:href="#dot"  stroke="#8eb06f" />
<use x="155.819" y="181.271" xlink:href="#dot"  stroke="#1634b1" />
<use x="156.623" y="177.09" xlink:href="#dot"  stroke="#b7f4ba" />
<use x="157.223" y="181.931" xlink:href="#dot"  stroke="#defdb7" />
<use x="155.855" y="181.647" xlink:href="#dot"  stroke="#768325" />
<use x="157.051" y="178.237" xlink:href="#dot"  stroke="#ae17ca" />
<use x="156.382" y="182.962" xlink:href="#dot"  stroke="#cbd59d" />
<use x="154.597" y="182.249" xlink:href="#dot"  stroke="#efc063" />
<use x="156.31" y="179.926" xlink:href="#dot"  stroke="#454448" />
<use x="154.076" y="183.349" xlink:href="#dot"  stroke="#1f826a" />
<use x="151.81" y="182.065" xlink:href="#dot"  stroke="#887c1f" />
<use x="154.221" y="181.21" xlink:href="#dot"  stroke="#46dc16" />
<use x="149.556" y="180.149" xlink:href="#dot"  stroke="#e25560" />
<use x="146.726" y="178.127" xlink:href="#dot"  stroke="#2e84ce" />
<use x="150.061" y="179.159" xlink:href="#dot"  stroke="#3e2dfd" />
<use x="140.868" y="166.965" xlink:href="#dot"  stroke="#3d9c01" />
<use x="137.377" y="164.029" xlink:href="#dot"  stroke="#bcd444" />
<use x="141.87" y="167.317" xlink:href="#dot"  stroke="#546bf4" />
<use x="124.07" y="131.761" xlink:href="#dot"  stroke="#9769d8" />
<use x="119.833" y="127.767" xlink:href="#dot"  stroke="#e06f76" />
<use x="125.595" y="133.371" xlink:href="#dot"  stroke="#8b5cf1" />
<use x="173.636" y="112.563" xlink:href="#dot"  stroke="#efd850" />
<use x="177.338" y="107.967" xlink:href="#dot"  stroke="#f87c39" />
<use x="172.203" y="114.557" xlink:href="#dot"  stroke="#d6bfb0" />
<use x="156.805" y="158.025" xlink:href="#dot"  stroke="#3224e5" />
<use x="159.824" y="154.457" xlink:href="#dot"  stroke="#b78680" />
<use x="155.815" y="158.906" xlink:href="#dot"  stroke="#e648a0" />
<use x="148.528" y="177.544" xlink:href="#dot"  stroke="#d0ae37" />
<use x="150.939" y="174.858" xlink:href="#dot"  stroke="#437ca0" />
<use x="147.972" y="177.179" xlink:href="#dot"  stroke="#de8f51" />
<use x="144.757" y="184.663" xlink:href="#dot"  stroke="#085103" />
<use x="146.644" y="182.679" xlink:href="#dot"  stroke="#929c1f" />
<use x="144.518" y="183.217" xlink:href="#dot"  stroke="#c20dee" />
<use x="143.475" y="186.529" xlink:href="#dot"  stroke="#bc61de" />
<use x="144.908" y="185.077" xlink:href="#dot"  stroke="#b73767" />
<use x="143.428" y="184.246" xlink:href="#dot"  stroke="#05b7d5" />
<use x="143.76" y="186.614" xlink:href="#dot"  stroke="#efe021" />
<use x="144.794" y="185.546" xlink:href="#dot"  stroke="#d71813" />
<use x="143.806" y="183.73" xlink:href="#dot"  stroke="#1d5cd6" />
<use x="145.171" y="186.34" xlink:href="#dot"  stroke="#afb32e" />
<use x="145.842" y="185.53" xlink:href="#dot"  stroke="#986349" />
<use x="145.237" y="183.058" xlink:href="#dot"  stroke="#147dca" />
<use x="147.375" y="186.138" xlink:href="#dot"  stroke="#366a9d" />
<use x="147.705" y="185.476" xlink:href="#dot"  stroke="#831ccd" />
<use x="147.418" y="182.631" xlink:href="#dot"  stroke="#33aafd" />
<use x="150" y="186.074" xlink:href="#dot"  stroke="#736704" />
<use x="150" y="185.459" xlink:href="#dot"  stroke="#8b1976" />
<use x="150" y="182.493" xlink:href="#dot"  stroke="#8c4914" />
<use x="152.625" y="186.138" xlink:href="#dot"  stroke="#b92f58" />
<use x="152.295" y="185.476" xlink:href="#dot"  stroke="#57234a" />
<use x="152.582" y="182.631" xlink:href="#dot"  stroke="#5985a6" />
<use x="154.829" y="186.34" xlink:href="#dot"  stroke="#071f6e" />
<use x="154.158" y="185.53" xlink:href="#dot"  stroke="#005ff4" />
<use x="154.763" y="183.058" xlink:href="#dot"  stroke="#d8c98d" />
<use x="156.24" y="186.614" xlink:href="#dot"  stroke="#d722e6" />
<use x="155.206" y="185.546" xlink:href="#dot"  stroke="#71318a" />
<use x="156.194" y="183.73" xlink:href="#dot"  stroke="#329626" />
<use x="156.525" y="186.529" xlink:href="#dot"  stroke="#011bba" />
<use x="155.092" y="185.077" xlink:href="#dot"  stroke="#358fbe" />
<use x="156.572" y="184.246" xlink:href="#dot"  stroke="#377613" />
<use x="155.243" y="184.663" xlink:href="#dot"  stroke="#d151e6" />
<use x="153.356" y="182.679" xlink:href="#dot"  stroke="#94adf0" />
<use x="155.482" y="183.217" xlink:href="#dot"  stroke="#72a17a" />
<use x="151.472" y="177.544" xlink:href="#dot"  stroke="#f9e8a4" />
<use x="149.061" y="174.858" xlink:href="#dot"  stroke="#4b25c9" />
<use x="152.028" y="177.179" xlink:href="#dot"  stroke="#0d1597" />
<use x="143.195" y="158.025" xlink:href="#dot"  stroke="#12668f" />
<use x="140.176" y="154.457" xlink:href="#dot"  stroke="#10c825" />
<use x="144.185" y="158.906" xlink:href="#dot"  stroke="#403b88" />
<use x="126.364" y="112.563" xlink:href="#dot"  stroke="#9f4990" />
<use x="122.662" y="107.967" xlink:href="#dot"  stroke="#1ad345" />
<use x="127.797" y="114.557" xlink:href="#dot"  stroke="#631c12" />
<use x="174.927" y="82.7488" xlink:href="#dot"  stroke="#9ffcc6" />
<use x="178.156" y="77.5271" xlink:href="#dot"  stroke="#0c0cb9" />
<use x="173.589" y="85.0687" xlink:href="#dot"  stroke="#6de27c" />
<use x="157.597" y="142.264" xlink:href="#dot"  stroke="#34ed76" />
<use x="160.198" y="138.025" xlink:href="#dot"  stroke="#67d064" />
<use x="156.617" y="143.714" xlink:href="#dot"  stroke="#3ef86b" />
<use x="149.342" y="170.654" xlink:href="#dot"  stroke="#bf9cfa" />
<use x="151.377" y="167.255" xlink:href="#dot"  stroke="#17c1f8" />
<use x="148.733" y="171.006" xlink:href="#dot"  stroke="#7ed622" />
<use x="145.918" y="183.467" xlink:href="#dot"  stroke="#c33257" />
<use x="147.458" y="180.728" xlink:href="#dot"  stroke="#462a1a" />
<use x="145.59" y="182.844" xlink:href="#dot"  stroke="#b953b7" />
<use x="145.178" y="188.855" xlink:href="#dot"  stroke="#9b966b" />
<use x="146.282" y="186.6" xlink:href="#dot"  stroke="#bba56b" />
<use x="145.028" y="187.48" xlink:href="#dot"  stroke="#648e74" />
<use x="146.013" y="190.963" xlink:href="#dot"  stroke="#4fb5f8" />
<use x="146.726" y="189.035" xlink:href="#dot"  stroke="#98d482" />
<use x="145.958" y="189.071" xlink:href="#dot"  stroke="#ef654a" />
<use x="147.781" y="191.72" xlink:href="#dot"  stroke="#416d80" />
<use x="148.131" y="189.98" xlink:href="#dot"  stroke="#17c231" />
<use x="147.767" y="189.53" xlink:href="#dot"  stroke="#671a07" />
<use x="150" y="191.905" xlink:href="#dot"  stroke="#51a39a" />
<use x="150" y="190.227" xlink:href="#dot"  stroke="#525e55" />
<use x="150" y="189.617" xlink:href="#dot"  stroke="#cef63a" />
<use x="152.219" y="191.72" xlink:href="#dot"  stroke="#22bcd3" />
<use x="151.869" y="189.98" xlink:href="#dot"  stroke="#506c15" />
<use x="152.233" y="189.53" xlink:href="#dot"  stroke="#cc269d" />
<use x="153.987" y="190.963" xlink:href="#dot"  stroke="#c2bfd0" />
<use x="153.274" y="189.035" xlink:href="#dot"  stroke="#5e10a3" />
<use x="154.042" y="189.071" xlink:href="#dot"  stroke="#3dbf2e" />
<use x="154.822" y="188.855" xlink:href="#dot"  stroke="#46aebc" />
<use x="153.718" y="186.6" xlink:href="#dot"  stroke="#3dd4ed" />
<use x="154.972" y="187.48" xlink:href="#dot"  stroke="#d665b1" />
<use x="154.082" y="183.467" xlink:href="#dot"  stroke="#bffa6a" />
<use x="152.542" y="180.728" xlink:href="#dot"  stroke="#7532b8" />
<use x="154.41" y="182.844" xlink:href="#dot"  stroke="#89d9dc" />
<use x="150.658" y="170.654" xlink:href="#dot"  stroke="#7ce2ac" />
<use x="148.623" y="167.255" xlink:href="#dot"  stroke="#a9fc2d" />
<use x="151.267" y="171.006" xlink:href="#dot"  stroke="#192df2" />
<use x="142.403" y="142.264" xlink:href="#dot"  stroke="#02d941" />
<use x="139.802" y="138.025" xlink:href="#dot"  stroke="#e99204" />
<use x="143.383" y="143.714" xlink:href="#dot"  stroke="#dab5f9" />
<use x="125.073" y="82.7488" xlink:href="#dot"  stroke="#a25405" />
<use x="121.844" y="77.5271" xlink:href="#dot"  stroke="#67d6e4" />
<use x="126.411" y="85.0687" xlink:href="#dot"  stroke="#5b4b45" />
<use x="160.898" y="112.339" xlink:href="#dot"  stroke="#68bdf2" />
<use x="163.107" y="107.354" xlink:href="#dot"  stroke="#5f06bf" />
<use x="159.959" y="114.367" xlink:href="#dot"  stroke="#332f53" />
<use x="152.204" y="152.592" xlink:href="#dot"  stroke="#e9d13f" />
<use x="153.881" y="148.383" xlink:href="#dot"  stroke="#40507a" />
<use x="151.576" y="153.769" xlink:href="#dot"  stroke="#cfb06d" />
<use x="148.646" y="173.017" xlink:href="#dot"  stroke="#51ee61" />
<use x="149.848" y="169.402" xlink:href="#dot"  stroke="#b61917" />
<use x="148.269" y="173.395" xlink:href="#dot"  stroke="#cbabed" />
<use x="147.883" y="183.071" xlink:href="#dot"  stroke="#08cd6e" />
<use x="148.658" y="179.868" xlink:href="#dot"  stroke="#d62343" />
<use x="147.681" y="182.848" xlink:href="#dot"  stroke="#13b561" />
<use x="148.612" y="187.618" xlink:href="#dot"  stroke="#cffea2" />
<use x="148.991" y="184.655" xlink:href="#dot"  stroke="#4ef64f" />
<use x="148.526" y="187.032" xlink:href="#dot"  stroke="#120079" />
<use x="150" y="188.917" xlink:href="#dot"  stroke="#46940d" />
<use x="150" y="186.032" xlink:href="#dot"  stroke="#17ddec" />
<use x="150" y="188.21" xlink:href="#dot"  stroke="#bda70c" />
<use x="151.388" y="187.618" xlink:href="#dot"  stroke="#c5ad73" />
<use x="151.009" y="184.655" xlink:href="#dot"  stroke="#e558ad" />
<use x="151.474" y="187.032" xlink:href="#dot"  stroke="#e68a0e" />
<use x="152.117" y="183.071" xlink:href="#dot"  stroke="#affc5e" />
<use x="151.342" y="179.868" xlink:href="#dot"  stroke="#42958e" />
<use x="152.319" y="182.848" xlink:href="#dot"  stroke="#454dea" />
<use x="151.354" y="173.017" xlink:href="#dot"  stroke="#d0ba2c" />
<use x="150.152" y="169.402" xlink:href="#dot"  stroke="#512151" />
<use x="151.731" y="173.395" xlink:href="#dot"  stroke="#2f8bc9" />
<use x="147.796" y="152.592" xlink:href="#dot"  stroke="#619ca1" />
<use x="146.119" y="148.383" xlink:href="#dot"  stroke="#019306" />
<use x="148.424" y="153.769" xlink:href="#dot"  stroke="#2c1154" />
<use x="139.102" y="112.339" xlink:href="#dot"  stroke="#301470" />
<use x="136.893" y="107.354" xlink:href="#dot"  stroke="#3423c5" />
<use x="140.041" y="114.367" xlink:href="#dot"  stroke="#b68ecc" />
<use x="156.28" y="110.627" xlink:href="#dot"  stroke="#97ddf5" />
<use x="157.593" y="105.469" xlink:href="#dot"  stroke="#b55333" />
<use x="155.701" y="112.648" xlink:href="#dot"  stroke="#0a9c1f" />
<use x="151.954" y="139.793" xlink:href="#dot"  stroke="#0881bd" />
<use x="152.802" y="135.123" xlink:href="#dot"  stroke="#64e7a4" />
<use x="151.605" y="141.309" xlink:href="#dot"  stroke="#a4bbc7" />
<use x="150.389" y="153.873" xlink:href="#dot"  stroke="#40451f" />
<use x="150.805" y="149.495" xlink:href="#dot"  stroke="#86571a" />
<use x="150.228" y="155.038" xlink:href="#dot"  stroke="#4a631f" />
<use x="150" y="158.056" xlink:href="#dot"  stroke="#5f7237" />
<use x="150" y="153.775" xlink:href="#dot"  stroke="#441d27" />
<use x="150" y="159.098" xlink:href="#dot"  stroke="#ae114d" />
<use x="149.611" y="153.873" xlink:href="#dot"  stroke="#9a1047" />
<use x="149.195" y="149.495" xlink:href="#dot"  stroke="#822d7a" />
<use x="149.772" y="155.038" xlink:href="#dot"  stroke="#536eab" />
<use x="148.046" y="139.793" xlink:href="#dot"  stroke="#802e88" />
<use x="147.198" y="135.123" xlink:href="#dot"  stroke="#645acf" />
<use x="148.395" y="141.309" xlink:href="#dot"  stroke="#c305ea" />
<use x="143.72" y="110.627" xlink:href="#dot"  stroke="#7cb391" />
<use x="142.407" y="105.469" xlink:href="#dot"  stroke="#5c6550" />
<use x="144.299" y="112.648" xlink:href="#dot"  stroke="#48251e" />
</svg>
