<?xml version="1.0" standalone="no"?>
<svg width="300px" height="300px" version="1.1" xmlns="http://www.w3.org/2000/svg" xmlns:xlink="http://www.w3.org/1999/xlink">
<rect x="0" y="0" width="300" height="300"  fill="#000000" />
<defs>
<g id="dot">
<line x1="1" y1="1" x2="0" y2="0"  />
</g>
<g id="cross">
<line x1="-3" y1="0" x2="3" y2="0"  />
<line x1="0" y1="-3" x2="0" y2="3"  />
</g>
<g id="square">
<line x1="-3" y1="-3" x2="-3" y2="3"  />
<line x1="-3" y1="3" x2="3" y2="3"  />
<line x1="3" y1="3" x2="3" y2="-3"  />
<line x1="3" y1="-3" x2="-3" y2="-3"  />
</g>
<g id="round">
<ellipse cx="0" cy="0" rx="3" ry="3"  fill="none" /></g>
<g id="triangle">
<line x1="0" y1="-3" x2="-3" y2="3"  />
<line x1="-3" y1="3" x2="3" y2="3"  />
<line x1="0" y1="-3" x2="3" y2="3"  />
</g>
</defs>
<polygon fill="none" stroke="#ffffff" points="30.9524,269.048 30.9524,30.9524 269.048,30.9524 269.048,269.048 " />
<text style="font-size:12;text-align:center;text-anchor:middle;" x="150" y="298.262" fill="#ffffff">Saggital distance (um)</text>
<use x="70.6349" y="30.9524" xlink:href="#cross"  stroke="#ffffff" />
<use x="70.6349" y="269.048" xlink:href="#cross"  stroke="#ffffff" />
<text style="font-size:12;text-align:center;text-anchor:middle;" x="70.6349" y="287.048" fill="#ffffff">-51.8</text>
<use x="150" y="30.9524" xlink:href="#cross"  stroke="#ffffff" />
<use x="150" y="269.048" xlink:href="#cross"  stroke="#ffffff" />
<text style="font-size:12;text-align:center;text-anchor:middle;" x="150" y="287.048" fill="#ffffff">0</text>
<use x="229.365" y="30.9524" xlink:href="#cross"  stroke="#ffffff" />
<use x="229.365" y="269.048" xlink:href="#cross"  stroke="#ffffff" />
<text style="font-size:12;text-align:center;text-anchor:middle;" x="229.365" y="287.048" fill="#ffffff">51.8</text>
<text style="font-size:12;text-align:center;text-anchor:middle;" x="7.7381" y="156" transform="rotate(-90,7.7381,150)" fill="#ffffff">Tangential distance (um)</text>
<use x="269.048" y="246.263" xlink:href="#cross"  stroke="#ffffff" />
<use x="30.9524" y="246.263" xlink:href="#cross"  stroke="#ffffff" />
<text style="font-size:12;text-align:right;text-anchor:end;" x="24.9524" y="252.263" fill="#ffffff">-51.8</text>
<use x="269.048" y="166.898" xlink:href="#cross"  stroke="#ffffff" />
<use x="30.9524" y="166.898" xlink:href="#cross"  stroke="#ffffff" />
<text style="font-size:12;text-align:right;text-anchor:end;" x="24.9524" y="172.898" fill="#ffffff">0</text>
<use x="269.048" y="87.5325" xlink:href="#cross"  stroke="#ffffff" />
<use x="30.9524" y="87.5325" xlink:href="#cross"  stroke="#ffffff" />
<text style="font-size:12;text-align:right;text-anchor:end;" x="24.9524" y="93.5325" fill="#ffffff">51.8</text>
<use x="116.185" y="123.182" xlink:href="#dot"  stroke="#fd0713" />
<use x="134.496" y="138.145" xlink:href="#dot"  stroke="#016d69" />
<use x="109.364" y="88.552" xlink:href="#dot"  stroke="#61e4ce" />
<use x="110.383" y="114.401" xlink:href="#dot"  stroke="#3a8474" />
<use x="125.785" y="131.316" xlink:href="#dot"  stroke="#e57924" />
<use x="106.399" y="76.6399" xlink:href="#dot"  stroke="#7ec9d8" />
<use x="107.689" y="108.145" xlink:href="#dot"  stroke="#b69e71" />
<use x="120.725" y="126.793" xlink:href="#dot"  stroke="#53fc48" />
<use x="105.348" y="67.538" xlink:href="#dot"  stroke="#b24aca" />
<use x="108.013" y="104.035" xlink:href="#dot"  stroke="#4be805" />
<use x="119.034" y="124.221" xlink:href="#dot"  stroke="#f7fb9b" />
<use x="106.597" y="60.842" xlink:href="#dot"  stroke="#b7be20" />
<use x="110.843" y="101.696" xlink:href="#dot"  stroke="#de25fa" />
<use x="120.068" y="123.229" xlink:href="#dot"  stroke="#7ea15c" />
<use x="109.935" y="56.1827" xlink:href="#dot"  stroke="#df19fa" />
<use x="115.536" y="100.722" xlink:href="#dot"  stroke="#9ba9fb" />
<use x="123.103" y="123.409" xlink:href="#dot"  stroke="#23b094" />
<use x="114.907" y="53.1777" xlink:href="#dot"  stroke="#081c11" />
<use x="121.484" y="100.688" xlink:href="#dot"  stroke="#59c1d6" />
<use x="127.475" y="124.332" xlink:href="#dot"  stroke="#823db5" />
<use x="121.021" y="51.4308" xlink:href="#dot"  stroke="#e580e2" />
<use x="128.193" y="101.178" xlink:href="#dot"  stroke="#29a267" />
<use x="132.658" y="125.575" xlink:href="#dot"  stroke="#99c246" />
<use x="127.852" y="50.5559" xlink:href="#dot"  stroke="#b3974e" />
<use x="135.312" y="101.824" xlink:href="#dot"  stroke="#260944" />
<use x="138.278" y="126.764" xlink:href="#dot"  stroke="#a493a9" />
<use x="135.082" y="50.2084" xlink:href="#dot"  stroke="#59346b" />
<use x="142.622" y="102.336" xlink:href="#dot"  stroke="#dc6539" />
<use x="144.102" y="127.603" xlink:href="#dot"  stroke="#481fe5" />
<use x="142.505" y="50.1162" xlink:href="#dot"  stroke="#1cd86c" />
<use x="150" y="102.528" xlink:href="#dot"  stroke="#88103b" />
<use x="150" y="127.905" xlink:href="#dot"  stroke="#4bec6f" />
<use x="150" y="50.1055" xlink:href="#dot"  stroke="#87829d" />
<use x="157.378" y="102.336" xlink:href="#dot"  stroke="#8e1bb8" />
<use x="155.898" y="127.603" xlink:href="#dot"  stroke="#b53407" />
<use x="157.495" y="50.1162" xlink:href="#dot"  stroke="#324e5a" />
<use x="164.688" y="101.824" xlink:href="#dot"  stroke="#7be2de" />
<use x="161.722" y="126.764" xlink:href="#dot"  stroke="#8d112b" />
<use x="164.918" y="50.2084" xlink:href="#dot"  stroke="#5d2c00" />
<use x="171.807" y="101.178" xlink:href="#dot"  stroke="#8584f2" />
<use x="167.342" y="125.575" xlink:href="#dot"  stroke="#742066" />
<use x="172.148" y="50.5559" xlink:href="#dot"  stroke="#27edd8" />
<use x="178.516" y="100.688" xlink:href="#dot"  stroke="#b02167" />
<use x="172.525" y="124.332" xlink:href="#dot"  stroke="#8d87fe" />
<use x="178.979" y="51.4308" xlink:href="#dot"  stroke="#9e9216" />
<use x="184.464" y="100.722" xlink:href="#dot"  stroke="#42d700" />
<use x="176.897" y="123.409" xlink:href="#dot"  stroke="#891165" />
<use x="185.093" y="53.1777" xlink:href="#dot"  stroke="#65b8ca" />
<use x="189.157" y="101.696" xlink:href="#dot"  stroke="#28200d" />
<use x="179.932" y="123.229" xlink:href="#dot"  stroke="#c04bf9" />
<use x="190.065" y="56.1827" xlink:href="#dot"  stroke="#56df8e" />
<use x="191.987" y="104.035" xlink:href="#dot"  stroke="#b402ad" />
<use x="180.966" y="124.221" xlink:href="#dot"  stroke="#f887d0" />
<use x="193.403" y="60.842" xlink:href="#dot"  stroke="#d4d70a" />
<use x="192.311" y="108.145" xlink:href="#dot"  stroke="#e1caca" />
<use x="179.275" y="126.793" xlink:href="#dot"  stroke="#711ee1" />
<use x="194.652" y="67.538" xlink:href="#dot"  stroke="#619cf9" />
<use x="189.617" y="114.401" xlink:href="#dot"  stroke="#514cbc" />
<use x="174.215" y="131.316" xlink:href="#dot"  stroke="#2b3b33" />
<use x="193.601" y="76.6399" xlink:href="#dot"  stroke="#aabf8c" />
<use x="183.815" y="123.182" xlink:href="#dot"  stroke="#c0dd95" />
<use x="165.504" y="138.145" xlink:href="#dot"  stroke="#c1461e" />
<use x="190.636" y="88.552" xlink:href="#dot"  stroke="#03d6eb" />
<use x="106.053" y="176.55" xlink:href="#dot"  stroke="#29cbbc" />
<use x="137.729" y="175.485" xlink:href="#dot"  stroke="#a87167" />
<use x="77.1199" y="167.678" xlink:href="#dot"  stroke="#c1c6a0" />
<use x="115.846" y="157.184" xlink:href="#dot"  stroke="#804d71" />
<use x="140.965" y="160.085" xlink:href="#dot"  stroke="#655671" />
<use x="98.8204" y="141.193" xlink:href="#dot"  stroke="#f28cb7" />
<use x="116.058" y="144.479" xlink:href="#dot"  stroke="#d362d7" />
<use x="136.556" y="150.557" xlink:href="#dot"  stroke="#9a40b0" />
<use x="106.125" y="123.049" xlink:href="#dot"  stroke="#39be87" />
<use x="113.474" y="135.69" xlink:href="#dot"  stroke="#56b77d" />
<use x="130.566" y="144.43" xlink:href="#dot"  stroke="#30a0a6" />
<use x="107.71" y="109.794" xlink:href="#dot"  stroke="#f625b8" />
<use x="111.34" y="129.506" xlink:href="#dot"  stroke="#7b3a35" />
<use x="125.798" y="140.545" xlink:href="#dot"  stroke="#50fd9e" />
<use x="107.97" y="99.7619" xlink:href="#dot"  stroke="#87baee" />
<use x="110.949" y="125.279" xlink:href="#dot"  stroke="#3cd906" />
<use x="123.258" y="138.33" xlink:href="#dot"  stroke="#7a40c5" />
<use x="108.908" y="92.1302" xlink:href="#dot"  stroke="#182ff2" />
<use x="112.547" y="122.624" xlink:href="#dot"  stroke="#f4aff7" />
<use x="123.011" y="137.438" xlink:href="#dot"  stroke="#55302a" />
<use x="111.215" y="86.4427" xlink:href="#dot"  stroke="#21cafb" />
<use x="115.873" y="121.238" xlink:href="#dot"  stroke="#a32aee" />
<use x="124.678" y="137.585" xlink:href="#dot"  stroke="#7b381f" />
<use x="114.913" y="82.3762" xlink:href="#dot"  stroke="#0da8b7" />
<use x="120.478" y="120.822" xlink:href="#dot"  stroke="#f6cb38" />
<use x="127.732" y="138.475" xlink:href="#dot"  stroke="#eede25" />
<use x="119.721" y="79.6383" xlink:href="#dot"  stroke="#14f985" />
<use x="125.9" y="121.064" xlink:href="#dot"  stroke="#31bc99" />
<use x="131.666" y="139.794" xlink:href="#dot"  stroke="#81b952" />
<use x="125.283" y="77.9368" xlink:href="#dot"  stroke="#3ad40a" />
<use x="131.764" y="121.653" xlink:href="#dot"  stroke="#54b8e8" />
<use x="136.073" y="141.228" xlink:href="#dot"  stroke="#aa9149" />
<use x="131.277" y="76.984" xlink:href="#dot"  stroke="#d3836f" />
<use x="137.812" y="122.306" xlink:href="#dot"  stroke="#9e3d55" />
<use x="140.681" y="142.488" xlink:href="#dot"  stroke="#fc8d3c" />
<use x="137.47" y="76.5184" xlink:href="#dot"  stroke="#bc5bbe" />
<use x="143.907" y="122.796" xlink:href="#dot"  stroke="#0b8f14" />
<use x="145.34" y="143.345" xlink:href="#dot"  stroke="#88bb17" />
<use x="143.73" y="76.3301" xlink:href="#dot"  stroke="#b4f648" />
<use x="150" y="122.977" xlink:href="#dot"  stroke="#e3aa9c" />
<use x="150" y="143.648" xlink:href="#dot"  stroke="#4dacec" />
<use x="150" y="76.283" xlink:href="#dot"  stroke="#332067" />
<use x="156.093" y="122.796" xlink:href="#dot"  stroke="#b7bef0" />
<use x="154.66" y="143.345" xlink:href="#dot"  stroke="#534c4c" />
<use x="156.27" y="76.3301" xlink:href="#dot"  stroke="#3b3e09" />
<use x="162.188" y="122.306" xlink:href="#dot"  stroke="#f1aef8" />
<use x="159.319" y="142.488" xlink:href="#dot"  stroke="#2e6555" />
<use x="162.53" y="76.5184" xlink:href="#dot"  stroke="#98e5e8" />
<use x="168.236" y="121.653" xlink:href="#dot"  stroke="#af425e" />
<use x="163.927" y="141.228" xlink:href="#dot"  stroke="#1107da" />
<use x="168.723" y="76.984" xlink:href="#dot"  stroke="#698bf9" />
<use x="174.1" y="121.064" xlink:href="#dot"  stroke="#1820d7" />
<use x="168.334" y="139.794" xlink:href="#dot"  stroke="#0e082b" />
<use x="174.717" y="77.9368" xlink:href="#dot"  stroke="#c749a0" />
<use x="179.522" y="120.822" xlink:href="#dot"  stroke="#d4a166" />
<use x="172.268" y="138.475" xlink:href="#dot"  stroke="#87407f" />
<use x="180.279" y="79.6383" xlink:href="#dot"  stroke="#5fe18a" />
<use x="184.127" y="121.238" xlink:href="#dot"  stroke="#fb6dce" />
<use x="175.322" y="137.585" xlink:href="#dot"  stroke="#874bcb" />
<use x="185.087" y="82.3762" xlink:href="#dot"  stroke="#3f46af" />
<use x="187.453" y="122.624" xlink:href="#dot"  stroke="#ed6bb9" />
<use x="176.989" y="137.438" xlink:href="#dot"  stroke="#b49624" />
<use x="188.785" y="86.4427" xlink:href="#dot"  stroke="#7cc606" />
<use x="189.051" y="125.279" xlink:href="#dot"  stroke="#9cfb93" />
<use x="176.742" y="138.33" xlink:href="#dot"  stroke="#b98db4" />
<use x="191.092" y="92.1302" xlink:href="#dot"  stroke="#33c35d" />
<use x="188.66" y="129.506" xlink:href="#dot"  stroke="#3076f3" />
<use x="174.202" y="140.545" xlink:href="#dot"  stroke="#54e509" />
<use x="192.03" y="99.7619" xlink:href="#dot"  stroke="#0a5332" />
<use x="186.526" y="135.69" xlink:href="#dot"  stroke="#63c31c" />
<use x="169.434" y="144.43" xlink:href="#dot"  stroke="#ec2367" />
<use x="192.29" y="109.794" xlink:href="#dot"  stroke="#3a9a05" />
<use x="183.942" y="144.479" xlink:href="#dot"  stroke="#92f81d" />
<use x="163.444" y="150.557" xlink:href="#dot"  stroke="#b147fd" />
<use x="193.875" y="123.049" xlink:href="#dot"  stroke="#b13d76" />
<use x="184.154" y="157.184" xlink:href="#dot"  stroke="#10075d" />
<use x="159.035" y="160.085" xlink:href="#dot"  stroke="#883f42" />
<use x="201.18" y="141.193" xlink:href="#dot"  stroke="#3b2767" />
<use x="193.947" y="176.55" xlink:href="#dot"  stroke="#378408" />
<use x="162.271" y="175.485" xlink:href="#dot"  stroke="#f9dc59" />
<use x="222.88" y="167.678" xlink:href="#dot"  stroke="#aa6995" />
<use x="109.842" y="174.202" xlink:href="#dot"  stroke="#373247" />
<use x="133.856" y="170.258" xlink:href="#dot"  stroke="#74dae6" />
<use x="93.3653" y="168.782" xlink:href="#dot"  stroke="#944d9c" />
<use x="115.727" y="161.74" xlink:href="#dot"  stroke="#b5eb88" />
<use x="135.323" y="161.579" xlink:href="#dot"  stroke="#98aacb" />
<use x="106.12" y="149.532" xlink:href="#dot"  stroke="#c23d7f" />
<use x="116.542" y="153.832" xlink:href="#dot"  stroke="#2895c9" />
<use x="132.914" y="156.777" xlink:href="#dot"  stroke="#d6be04" />
<use x="110.891" y="136.226" xlink:href="#dot"  stroke="#a9a05a" />
<use x="116.272" y="148.508" xlink:href="#dot"  stroke="#a1a352" />
<use x="130.166" y="154.089" xlink:href="#dot"  stroke="#583a2b" />
<use x="112.84" y="126.373" xlink:href="#dot"  stroke="#733172" />
<use x="116.716" y="144.841" xlink:href="#dot"  stroke="#ccb538" />
<use x="128.591" y="152.701" xlink:href="#dot"  stroke="#5920b2" />
<use x="114.482" y="118.784" xlink:href="#dot"  stroke="#c9004d" />
<use x="118.462" y="142.382" xlink:href="#dot"  stroke="#0eaad5" />
<use x="128.599" y="152.222" xlink:href="#dot"  stroke="#6d34a8" />
<use x="116.853" y="112.883" xlink:href="#dot"  stroke="#d24231" />
<use x="121.481" y="140.873" xlink:href="#dot"  stroke="#3cb188" />
<use x="130.044" y="152.422" xlink:href="#dot"  stroke="#a82aa0" />
<use x="120.2" y="108.362" xlink:href="#dot"  stroke="#c0456b" />
<use x="125.474" y="140.107" xlink:href="#dot"  stroke="#71477d" />
<use x="132.556" y="153.106" xlink:href="#dot"  stroke="#30794d" />
<use x="124.393" y="105.007" xlink:href="#dot"  stroke="#3a7b46" />
<use x="130.084" y="139.882" xlink:href="#dot"  stroke="#e82b3b" />
<use x="135.73" y="154.073" xlink:href="#dot"  stroke="#363ea4" />
<use x="129.168" y="102.624" xlink:href="#dot"  stroke="#eddca0" />
<use x="135" y="139.989" xlink:href="#dot"  stroke="#943066" />
<use x="139.23" y="155.114" xlink:href="#dot"  stroke="#0333a7" />
<use x="134.267" y="101.025" xlink:href="#dot"  stroke="#bb0960" />
<use x="140.013" y="140.233" xlink:href="#dot"  stroke="#4df8e0" />
<use x="142.834" y="156.028" xlink:href="#dot"  stroke="#f98a5a" />
<use x="139.497" y="100.034" xlink:href="#dot"  stroke="#61c2a8" />
<use x="145.02" y="140.451" xlink:href="#dot"  stroke="#164f56" />
<use x="146.431" y="156.651" xlink:href="#dot"  stroke="#0de017" />
<use x="144.752" y="99.504" xlink:href="#dot"  stroke="#d6c274" />
<use x="150" y="140.537" xlink:href="#dot"  stroke="#1e5476" />
<use x="150" y="156.871" xlink:href="#dot"  stroke="#d7d43f" />
<use x="150" y="99.3386" xlink:href="#dot"  stroke="#e32111" />
<use x="154.98" y="140.451" xlink:href="#dot"  stroke="#77c5ca" />
<use x="153.569" y="156.651" xlink:href="#dot"  stroke="#d0933e" />
<use x="155.248" y="99.504" xlink:href="#dot"  stroke="#751a01" />
<use x="159.987" y="140.233" xlink:href="#dot"  stroke="#70bc3b" />
<use x="157.166" y="156.028" xlink:href="#dot"  stroke="#043c83" />
<use x="160.503" y="100.034" xlink:href="#dot"  stroke="#81e994" />
<use x="165" y="139.989" xlink:href="#dot"  stroke="#c4014f" />
<use x="160.77" y="155.114" xlink:href="#dot"  stroke="#14f63f" />
<use x="165.733" y="101.025" xlink:href="#dot"  stroke="#57311f" />
<use x="169.916" y="139.882" xlink:href="#dot"  stroke="#b12606" />
<use x="164.27" y="154.073" xlink:href="#dot"  stroke="#c3e95a" />
<use x="170.832" y="102.624" xlink:href="#dot"  stroke="#17ac7c" />
<use x="174.526" y="140.107" xlink:href="#dot"  stroke="#5a401d" />
<use x="167.444" y="153.106" xlink:href="#dot"  stroke="#7deafa" />
<use x="175.607" y="105.007" xlink:href="#dot"  stroke="#5c3b3f" />
<use x="178.519" y="140.873" xlink:href="#dot"  stroke="#c144df" />
<use x="169.956" y="152.422" xlink:href="#dot"  stroke="#243787" />
<use x="179.8" y="108.362" xlink:href="#dot"  stroke="#24a0c3" />
<use x="181.538" y="142.382" xlink:href="#dot"  stroke="#701685" />
<use x="171.401" y="152.222" xlink:href="#dot"  stroke="#6234be" />
<use x="183.147" y="112.883" xlink:href="#dot"  stroke="#fbaf24" />
<use x="183.284" y="144.841" xlink:href="#dot"  stroke="#a50c7c" />
<use x="171.409" y="152.701" xlink:href="#dot"  stroke="#c89b13" />
<use x="185.518" y="118.784" xlink:href="#dot"  stroke="#3a61e0" />
<use x="183.728" y="148.508" xlink:href="#dot"  stroke="#063af3" />
<use x="169.834" y="154.089" xlink:href="#dot"  stroke="#f8ef22" />
<use x="187.16" y="126.373" xlink:href="#dot"  stroke="#5b2acd" />
<use x="183.458" y="153.832" xlink:href="#dot"  stroke="#244367" />
<use x="167.086" y="156.777" xlink:href="#dot"  stroke="#93a026" />
<use x="189.109" y="136.226" xlink:href="#dot"  stroke="#a98f4e" />
<use x="184.273" y="161.74" xlink:href="#dot"  stroke="#2559e7" />
<use x="164.677" y="161.579" xlink:href="#dot"  stroke="#bbca37" />
<use x="193.88" y="149.532" xlink:href="#dot"  stroke="#a03051" />
<use x="190.158" y="174.202" xlink:href="#dot"  stroke="#1e1163" />
<use x="166.144" y="170.258" xlink:href="#dot"  stroke="#f61c7a" />
<use x="206.635" y="168.782" xlink:href="#dot"  stroke="#b713e8" />
<use x="106.471" y="195.44" xlink:href="#dot"  stroke="#493a58" />
<use x="130.093" y="184.635" xlink:href="#dot"  stroke="#9c40ef" />
<use x="89.0033" y="201.107" xlink:href="#dot"  stroke="#0fa149" />
<use x="117.615" y="180.943" xlink:href="#dot"  stroke="#a4b936" />
<use x="136.808" y="174.632" xlink:href="#dot"  stroke="#6f2061" />
<use x="107.342" y="178.206" xlink:href="#dot"  stroke="#9cd067" />
<use x="121.096" y="172.482" xlink:href="#dot"  stroke="#758302" />
<use x="137.107" y="169.772" xlink:href="#dot"  stroke="#3e5cb0" />
<use x="114.907" y="163.291" xlink:href="#dot"  stroke="#806817" />
<use x="121.917" y="167.041" xlink:href="#dot"  stroke="#3ded4e" />
<use x="135.511" y="167.332" xlink:href="#dot"  stroke="#71d526" />
<use x="117.988" y="152.59" xlink:href="#dot"  stroke="#58701e" />
<use x="122.521" y="163.212" xlink:href="#dot"  stroke="#9944ef" />
<use x="134.162" y="166.061" xlink:href="#dot"  stroke="#b83287" />
<use x="119.802" y="144.299" xlink:href="#dot"  stroke="#395371" />
<use x="123.904" y="160.373" xlink:href="#dot"  stroke="#c773d2" />
<use x="133.867" y="165.425" xlink:href="#dot"  stroke="#1d1986" />
<use x="121.819" y="137.605" xlink:href="#dot"  stroke="#de116f" />
<use x="126.286" y="158.258" xlink:href="#dot"  stroke="#f9f20f" />
<use x="134.726" y="165.2" xlink:href="#dot"  stroke="#2fb15f" />
<use x="124.549" y="132.15" xlink:href="#dot"  stroke="#87732e" />
<use x="129.516" y="156.735" xlink:href="#dot"  stroke="#13ed94" />
<use x="136.514" y="165.273" xlink:href="#dot"  stroke="#843650" />
<use x="128.015" y="127.773" xlink:href="#dot"  stroke="#4fd624" />
<use x="133.313" y="155.703" xlink:href="#dot"  stroke="#888a0a" />
<use x="138.906" y="165.55" xlink:href="#dot"  stroke="#edf22a" />
<use x="132.035" y="124.373" xlink:href="#dot"  stroke="#4617ef" />
<use x="137.41" y="155.059" xlink:href="#dot"  stroke="#322516" />
<use x="141.609" y="165.93" xlink:href="#dot"  stroke="#c290e3" />
<use x="136.387" y="121.861" xlink:href="#dot"  stroke="#d16cf1" />
<use x="141.611" y="154.698" xlink:href="#dot"  stroke="#759252" />
<use x="144.415" y="166.303" xlink:href="#dot"  stroke="#076cf8" />
<use x="140.893" y="120.148" xlink:href="#dot"  stroke="#338c38" />
<use x="145.816" y="154.525" xlink:href="#dot"  stroke="#4e59b0" />
<use x="147.219" y="166.573" xlink:href="#dot"  stroke="#c83823" />
<use x="145.444" y="119.157" xlink:href="#dot"  stroke="#b1b6ea" />
<use x="150" y="154.475" xlink:href="#dot"  stroke="#86a7e6" />
<use x="150" y="166.67" xlink:href="#dot"  stroke="#6770df" />
<use x="150" y="118.833" xlink:href="#dot"  stroke="#3ed3c4" />
<use x="154.184" y="154.525" xlink:href="#dot"  stroke="#9b3d1d" />
<use x="152.781" y="166.573" xlink:href="#dot"  stroke="#eff33f" />
<use x="154.556" y="119.157" xlink:href="#dot"  stroke="#11c64c" />
<use x="158.389" y="154.698" xlink:href="#dot"  stroke="#67a94d" />
<use x="155.585" y="166.303" xlink:href="#dot"  stroke="#1d7489" />
<use x="159.107" y="120.148" xlink:href="#dot"  stroke="#7f188a" />
<use x="162.59" y="155.059" xlink:href="#dot"  stroke="#249811" />
<use x="158.391" y="165.93" xlink:href="#dot"  stroke="#bf2111" />
<use x="163.613" y="121.861" xlink:href="#dot"  stroke="#b0869c" />
<use x="166.687" y="155.703" xlink:href="#dot"  stroke="#b9d4b5" />
<use x="161.094" y="165.55" xlink:href="#dot"  stroke="#ba9073" />
<use x="167.965" y="124.373" xlink:href="#dot"  stroke="#c4c91c" />
<use x="170.484" y="156.735" xlink:href="#dot"  stroke="#ef34ca" />
<use x="163.486" y="165.273" xlink:href="#dot"  stroke="#f64694" />
<use x="171.985" y="127.773" xlink:href="#dot"  stroke="#a56cce" />
<use x="173.714" y="158.258" xlink:href="#dot"  stroke="#243d50" />
<use x="165.274" y="165.2" xlink:href="#dot"  stroke="#8e2b01" />
<use x="175.451" y="132.15" xlink:href="#dot"  stroke="#3d0eae" />
<use x="176.096" y="160.373" xlink:href="#dot"  stroke="#72aac3" />
<use x="166.133" y="165.425" xlink:href="#dot"  stroke="#0d527c" />
<use x="178.181" y="137.605" xlink:href="#dot"  stroke="#8eb06f" />
<use x="177.479" y="163.212" xlink:href="#dot"  stroke="#1634b1" />
<use x="165.838" y="166.061" xlink:href="#dot"  stroke="#b7f4ba" />
<use x="180.198" y="144.299" xlink:href="#dot"  stroke="#defdb7" />
<use x="178.083" y="167.041" xlink:href="#dot"  stroke="#768325" />
<use x="164.489" y="167.332" xlink:href="#dot"  stroke="#ae17ca" />
<use x="182.012" y="152.59" xlink:href="#dot"  stroke="#cbd59d" />
<use x="178.904" y="172.482" xlink:href="#dot"  stroke="#efc063" />
<use x="162.893" y="169.772" xlink:href="#dot"  stroke="#454448" />
<use x="185.093" y="163.291" xlink:href="#dot"  stroke="#1f826a" />
<use x="182.385" y="180.943" xlink:href="#dot"  stroke="#887c1f" />
<use x="163.192" y="174.632" xlink:href="#dot"  stroke="#46dc16" />
<use x="192.658" y="178.206" xlink:href="#dot"  stroke="#e25560" />
<use x="193.529" y="195.44" xlink:href="#dot"  stroke="#2e84ce" />
<use x="169.907" y="184.635" xlink:href="#dot"  stroke="#3e2dfd" />
<use x="210.997" y="201.107" xlink:href="#dot"  stroke="#3d9c01" />
<use x="118.323" y="200.144" xlink:href="#dot"  stroke="#bcd444" />
<use x="137.537" y="187.477" xlink:href="#dot"  stroke="#546bf4" />
<use x="106.502" y="207.744" xlink:href="#dot"  stroke="#9769d8" />
<use x="124.784" y="189.735" xlink:href="#dot"  stroke="#e06f76" />
<use x="140.721" y="181.282" xlink:href="#dot"  stroke="#8b5cf1" />
<use x="117.532" y="189.525" xlink:href="#dot"  stroke="#efd850" />
<use x="126.658" y="183.493" xlink:href="#dot"  stroke="#f87c39" />
<use x="140.153" y="178.472" xlink:href="#dot"  stroke="#d6bfb0" />
<use x="121.92" y="177.134" xlink:href="#dot"  stroke="#3224e5" />
<use x="127.267" y="179.167" xlink:href="#dot"  stroke="#b78680" />
<use x="138.817" y="177.023" xlink:href="#dot"  stroke="#e648a0" />
<use x="123.88" y="167.728" xlink:href="#dot"  stroke="#d0ae37" />
<use x="128.142" y="175.775" xlink:href="#dot"  stroke="#437ca0" />
<use x="138.034" y="176.081" xlink:href="#dot"  stroke="#de8f51" />
<use x="125.475" y="160.022" xlink:href="#dot"  stroke="#085103" />
<use x="129.814" y="172.949" xlink:href="#dot"  stroke="#929c1f" />
<use x="138.207" y="175.34" xlink:href="#dot"  stroke="#c20dee" />
<use x="127.562" y="153.503" xlink:href="#dot"  stroke="#bc61de" />
<use x="132.301" y="170.586" xlink:href="#dot"  stroke="#b73767" />
<use x="139.273" y="174.731" xlink:href="#dot"  stroke="#05b7d5" />
<use x="130.35" y="148.008" xlink:href="#dot"  stroke="#efe021" />
<use x="135.406" y="168.674" xlink:href="#dot"  stroke="#d71813" />
<use x="140.988" y="174.254" xlink:href="#dot"  stroke="#1d5cd6" />
<use x="133.749" y="143.508" xlink:href="#dot"  stroke="#afb32e" />
<use x="138.887" y="167.215" xlink:href="#dot"  stroke="#986349" />
<use x="143.085" y="173.914" xlink:href="#dot"  stroke="#147dca" />
<use x="137.568" y="140.011" xlink:href="#dot"  stroke="#366a9d" />
<use x="142.549" y="166.196" xlink:href="#dot"  stroke="#831ccd" />
<use x="145.355" y="173.698" xlink:href="#dot"  stroke="#33aafd" />
<use x="141.626" y="137.521" xlink:href="#dot"  stroke="#736704" />
<use x="146.27" y="165.598" xlink:href="#dot"  stroke="#8b1976" />
<use x="147.676" y="173.583" xlink:href="#dot"  stroke="#8c4914" />
<use x="145.794" y="136.032" xlink:href="#dot"  stroke="#b92f58" />
<use x="150" y="165.401" xlink:href="#dot"  stroke="#57234a" />
<use x="150" y="173.548" xlink:href="#dot"  stroke="#5985a6" />
<use x="150" y="135.538" xlink:href="#dot"  stroke="#071f6e" />
<use x="153.73" y="165.598" xlink:href="#dot"  stroke="#005ff4" />
<use x="152.324" y="173.583" xlink:href="#dot"  stroke="#d8c98d" />
<use x="154.206" y="136.032" xlink:href="#dot"  stroke="#d722e6" />
<use x="157.451" y="166.196" xlink:href="#dot"  stroke="#71318a" />
<use x="154.645" y="173.698" xlink:href="#dot"  stroke="#329626" />
<use x="158.374" y="137.521" xlink:href="#dot"  stroke="#011bba" />
<use x="161.113" y="167.215" xlink:href="#dot"  stroke="#358fbe" />
<use x="156.915" y="173.914" xlink:href="#dot"  stroke="#377613" />
<use x="162.432" y="140.011" xlink:href="#dot"  stroke="#d151e6" />
<use x="164.594" y="168.674" xlink:href="#dot"  stroke="#94adf0" />
<use x="159.012" y="174.254" xlink:href="#dot"  stroke="#72a17a" />
<use x="166.251" y="143.508" xlink:href="#dot"  stroke="#f9e8a4" />
<use x="167.699" y="170.586" xlink:href="#dot"  stroke="#4b25c9" />
<use x="160.727" y="174.731" xlink:href="#dot"  stroke="#0d1597" />
<use x="169.65" y="148.008" xlink:href="#dot"  stroke="#12668f" />
<use x="170.186" y="172.949" xlink:href="#dot"  stroke="#10c825" />
<use x="161.793" y="175.34" xlink:href="#dot"  stroke="#403b88" />
<use x="172.438" y="153.503" xlink:href="#dot"  stroke="#9f4990" />
<use x="171.858" y="175.775" xlink:href="#dot"  stroke="#1ad345" />
<use x="161.966" y="176.081" xlink:href="#dot"  stroke="#631c12" />
<use x="174.525" y="160.022" xlink:href="#dot"  stroke="#9ffcc6" />
<use x="172.733" y="179.167" xlink:href="#dot"  stroke="#0c0cb9" />
<use x="161.183" y="177.023" xlink:href="#dot"  stroke="#6de27c" />
<use x="176.12" y="167.728" xlink:href="#dot"  stroke="#34ed76" />
<use x="173.342" y="183.493" xlink:href="#dot"  stroke="#67d064" />
<use x="159.847" y="178.472" xlink:href="#dot"  stroke="#3ef86b" />
<use x="178.08" y="177.134" xlink:href="#dot"  stroke="#bf9cfa" />
<use x="175.216" y="189.735" xlink:href="#dot"  stroke="#17c1f8" />
<use x="159.279" y="181.282" xlink:href="#dot"  stroke="#7ed622" />
<use x="182.468" y="189.525" xlink:href="#dot"  stroke="#c33257" />
<use x="181.677" y="200.144" xlink:href="#dot"  stroke="#462a1a" />
<use x="162.463" y="187.477" xlink:href="#dot"  stroke="#b953b7" />
<use x="193.498" y="207.744" xlink:href="#dot"  stroke="#9b966b" />
<use x="126.113" y="205.518" xlink:href="#dot"  stroke="#bba56b" />
<use x="142.245" y="191.014" xlink:href="#dot"  stroke="#648e74" />
<use x="117.257" y="215.309" xlink:href="#dot"  stroke="#4fb5f8" />
<use x="129.668" y="197.611" xlink:href="#dot"  stroke="#98d482" />
<use x="143.235" y="187.094" xlink:href="#dot"  stroke="#ef654a" />
<use x="123.835" y="200.054" xlink:href="#dot"  stroke="#416d80" />
<use x="130.545" y="192.536" xlink:href="#dot"  stroke="#17c231" />
<use x="142.115" y="185.289" xlink:href="#dot"  stroke="#671a07" />
<use x="126.347" y="189.11" xlink:href="#dot"  stroke="#51a39a" />
<use x="131.02" y="188.609" xlink:href="#dot"  stroke="#525e55" />
<use x="140.916" y="184.104" xlink:href="#dot"  stroke="#cef63a" />
<use x="127.711" y="180.317" xlink:href="#dot"  stroke="#22bcd3" />
<use x="132.053" y="185.187" xlink:href="#dot"  stroke="#506c15" />
<use x="140.45" y="182.993" xlink:href="#dot"  stroke="#cc269d" />
<use x="129.269" y="172.793" xlink:href="#dot"  stroke="#c2bfd0" />
<use x="133.895" y="182.112" xlink:href="#dot"  stroke="#5e10a3" />
<use x="140.877" y="181.851" xlink:href="#dot"  stroke="#3dbf2e" />
<use x="131.498" y="166.272" xlink:href="#dot"  stroke="#46aebc" />
<use x="136.455" y="179.428" xlink:href="#dot"  stroke="#3dd4ed" />
<use x="142.053" y="180.741" xlink:href="#dot"  stroke="#d665b1" />
<use x="134.433" y="160.756" xlink:href="#dot"  stroke="#bffa6a" />
<use x="139.526" y="177.229" xlink:href="#dot"  stroke="#7532b8" />
<use x="143.739" y="179.768" xlink:href="#dot"  stroke="#89d9dc" />
<use x="137.924" y="156.335" xlink:href="#dot"  stroke="#7ce2ac" />
<use x="142.899" y="175.602" xlink:href="#dot"  stroke="#a9fc2d" />
<use x="145.718" y="179.019" xlink:href="#dot"  stroke="#192df2" />
<use x="141.782" y="153.105" xlink:href="#dot"  stroke="#02d941" />
<use x="146.421" y="174.605" xlink:href="#dot"  stroke="#e99204" />
<use x="147.835" y="178.55" xlink:href="#dot"  stroke="#dab5f9" />
<use x="145.847" y="151.14" xlink:href="#dot"  stroke="#a25405" />
<use x="150" y="174.269" xlink:href="#dot"  stroke="#67d6e4" />
<use x="150" y="178.391" xlink:href="#dot"  stroke="#5b4b45" />
<use x="150" y="150.48" xlink:href="#dot"  stroke="#68bdf2" />
<use x="153.579" y="174.605" xlink:href="#dot"  stroke="#5f06bf" />
<use x="152.165" y="178.55" xlink:href="#dot"  stroke="#332f53" />
<use x="154.153" y="151.14" xlink:href="#dot"  stroke="#e9d13f" />
<use x="157.101" y="175.602" xlink:href="#dot"  stroke="#40507a" />
<use x="154.282" y="179.019" xlink:href="#dot"  stroke="#cfb06d" />
<use x="158.218" y="153.105" xlink:href="#dot"  stroke="#51ee61" />
<use x="160.474" y="177.229" xlink:href="#dot"  stroke="#b61917" />
<use x="156.261" y="179.768" xlink:href="#dot"  stroke="#cbabed" />
<use x="162.076" y="156.335" xlink:href="#dot"  stroke="#08cd6e" />
<use x="163.545" y="179.428" xlink:href="#dot"  stroke="#d62343" />
<use x="157.947" y="180.741" xlink:href="#dot"  stroke="#13b561" />
<use x="165.567" y="160.756" xlink:href="#dot"  stroke="#cffea2" />
<use x="166.105" y="182.112" xlink:href="#dot"  stroke="#4ef64f" />
<use x="159.123" y="181.851" xlink:href="#dot"  stroke="#120079" />
<use x="168.502" y="166.272" xlink:href="#dot"  stroke="#46940d" />
<use x="167.947" y="185.187" xlink:href="#dot"  stroke="#17ddec" />
<use x="159.55" y="182.993" xlink:href="#dot"  stroke="#bda70c" />
<use x="170.731" y="172.793" xlink:href="#dot"  stroke="#c5ad73" />
<use x="168.98" y="188.609" xlink:href="#dot"  stroke="#e558ad" />
<use x="159.084" y="184.104" xlink:href="#dot"  stroke="#e68a0e" />
<use x="172.289" y="180.317" xlink:href="#dot"  stroke="#affc5e" />
<use x="169.455" y="192.536" xlink:href="#dot"  stroke="#42958e" />
<use x="157.885" y="185.289" xlink:href="#dot"  stroke="#454dea" />
<use x="173.653" y="189.11" xlink:href="#dot"  stroke="#d0ba2c" />
<use x="170.332" y="197.611" xlink:href="#dot"  stroke="#512151" />
<use x="156.765" y="187.094" xlink:href="#dot"  stroke="#2f8bc9" />
<use x="176.165" y="200.054" xlink:href="#dot"  stroke="#619ca1" />
<use x="173.887" y="205.518" xlink:href="#dot"  stroke="#019306" />
<use x="157.755" y="191.014" xlink:href="#dot"  stroke="#2c1154" />
<use x="182.743" y="215.309" xlink:href="#dot"  stroke="#301470" />
<use x="130.337" y="210.023" xlink:href="#dot"  stroke="#3423c5" />
<use x="144.155" y="193.642" xlink:href="#dot"  stroke="#b68ecc" />
<use x="123.051" y="222.354" xlink:href="#dot"  stroke="#97ddf5" />
<use x="132.195" y="203.645" xlink:href="#dot"  stroke="#b55333" />
<use x="143.892" y="191.057" xlink:href="#dot"  stroke="#0a9c1f" />
<use x="127.024" y="209.001" xlink:href="#dot"  stroke="#0881bd" />
<use x="132.62" y="199.169" xlink:href="#dot"  stroke="#64e7a4" />
<use x="142.585" y="189.693" xlink:href="#dot"  stroke="#a4bbc7" />
<use x="128.611" y="198.927" xlink:href="#dot"  stroke="#40451f" />
<use x="133.201" y="195.348" xlink:href="#dot"  stroke="#86571a" />
<use x="141.643" y="188.46" xlink:href="#dot"  stroke="#4a631f" />
<use x="129.882" y="190.489" xlink:href="#dot"  stroke="#5f7237" />
<use x="134.531" y="191.81" xlink:href="#dot"  stroke="#441d27" />
<use x="141.549" y="187.066" xlink:href="#dot"  stroke="#ae114d" />
<use x="131.71" y="183.126" xlink:href="#dot"  stroke="#9a1047" />
<use x="136.684" y="188.578" xlink:href="#dot"  stroke="#822d7a" />
<use x="142.313" y="185.573" xlink:href="#dot"  stroke="#536eab" />
<use x="134.324" y="176.777" xlink:href="#dot"  stroke="#802e88" />
<use x="139.508" y="185.815" xlink:href="#dot"  stroke="#645acf" />
<use x="143.749" y="184.158" xlink:href="#dot"  stroke="#c305ea" />
<use x="137.65" y="171.579" xlink:href="#dot"  stroke="#7cb391" />
<use x="142.79" y="183.699" xlink:href="#dot"  stroke="#5c6550" />
<use x="145.629" y="183.007" xlink:href="#dot"  stroke="#48251e" />
<use x="141.499" y="167.712" xlink:href="#dot"  stroke="#0db46f" />
<use x="146.336" y="182.371" xlink:href="#dot"  stroke="#f508bf" />
<use x="147.761" y="182.259" xlink:href="#dot"  stroke="#77f3ea" />
<use x="145.674" y="165.328" xlink:href="#dot"  stroke="#23065c" />
<use x="150" y="181.919" xlink:href="#dot"  stroke="#c7b970" />
<use x="150" y="182.001" xlink:href="#dot"  stroke="#a1f24b" />
<use x="150" y="164.522" xlink:href="#dot"  stroke="#dcfa61" />
<use x="153.664" y="182.371" xlink:href="#dot"  stroke="#add3cb" />
<use x="152.239" y="182.259" xlink:href="#dot"  stroke="#7d8fd3" />
<use x="154.326" y="165.328" xlink:href="#dot"  stroke="#fe33da" />
<use x="157.21" y="183.699" xlink:href="#dot"  stroke="#9faa59" />
<use x="154.371" y="183.007" xlink:href="#dot"  stroke="#fdb91e" />
<use x="158.501" y="167.712" xlink:href="#dot"  stroke="#167919" />
<use x="160.492" y="185.815" xlink:href="#dot"  stroke="#68d922" />
<use x="156.251" y="184.158" xlink:href="#dot"  stroke="#5d91f6" />
<use x="162.35" y="171.579" xlink:href="#dot"  stroke="#52965b" />
<use x="163.316" y="188.578" xlink:href="#dot"  stroke="#08498e" />
<use x="157.687" y="185.573" xlink:href="#dot"  stroke="#6c3d0c" />
<use x="165.676" y="176.777" xlink:href="#dot"  stroke="#3dcb10" />
<use x="165.469" y="191.81" xlink:href="#dot"  stroke="#c11e2d" />
<use x="158.451" y="187.066" xlink:href="#dot"  stroke="#a634cd" />
<use x="168.29" y="183.126" xlink:href="#dot"  stroke="#bc7249" />
<use x="166.799" y="195.348" xlink:href="#dot"  stroke="#5ad67d" />
<use x="158.357" y="188.46" xlink:href="#dot"  stroke="#2e5c9f" />
<use x="170.118" y="190.489" xlink:href="#dot"  stroke="#bebf10" />
<use x="167.38" y="199.169" xlink:href="#dot"  stroke="#1bef61" />
<use x="157.415" y="189.693" xlink:href="#dot"  stroke="#b28a69" />
<use x="171.389" y="198.927" xlink:href="#dot"  stroke="#1113b3" />
<use x="167.805" y="203.645" xlink:href="#dot"  stroke="#962058" />
<use x="156.108" y="191.057" xlink:href="#dot"  stroke="#0a3b25" />
<use x="172.976" y="209.001" xlink:href="#dot"  stroke="#0cf1b0" />
<use x="169.663" y="210.023" xlink:href="#dot"  stroke="#033288" />
<use x="155.845" y="193.642" xlink:href="#dot"  stroke="#d212ab" />
<use x="176.949" y="222.354" xlink:href="#dot"  stroke="#c650b0" />
<use x="131.982" y="213.291" xlink:href="#dot"  stroke="#84818c" />
<use x="143.932" y="194.957" xlink:href="#dot"  stroke="#9cd761" />
<use x="125.58" y="228.535" xlink:href="#dot"  stroke="#270c88" />
<use x="133.037" y="207.875" xlink:href="#dot"  stroke="#23237c" />
<use x="143.141" y="193.159" xlink:href="#dot"  stroke="#422db3" />
<use x="128.228" y="216.462" xlink:href="#dot"  stroke="#6ba9dc" />
<use x="133.499" y="203.751" xlink:href="#dot"  stroke="#489891" />
<use x="142.024" y="191.983" xlink:href="#dot"  stroke="#d460b5" />
<use x="129.624" y="207.019" xlink:href="#dot"  stroke="#0932b6" />
<use x="134.492" y="200.016" xlink:href="#dot"  stroke="#3c3688" />
<use x="141.566" y="190.659" xlink:href="#dot"  stroke="#411dd9" />
<use x="131.262" y="198.967" xlink:href="#dot"  stroke="#ecae37" />
<use x="136.357" y="196.521" xlink:href="#dot"  stroke="#3b7d5b" />
<use x="142.029" y="189.103" xlink:href="#dot"  stroke="#368518" />
<use x="133.689" y="191.998" xlink:href="#dot"  stroke="#f1478c" />
<use x="139.05" y="193.431" xlink:href="#dot"  stroke="#25fd3c" />
<use x="143.324" y="187.511" xlink:href="#dot"  stroke="#1822c8" />
<use x="136.964" y="186.215" xlink:href="#dot"  stroke="#1761f2" />
<use x="142.371" y="190.996" xlink:href="#dot"  stroke="#d05306" />
<use x="145.235" y="186.145" xlink:href="#dot"  stroke="#d4777c" />
<use x="140.928" y="181.851" xlink:href="#dot"  stroke="#356397" />
<use x="146.091" y="189.439" xlink:href="#dot"  stroke="#ceb118" />
<use x="147.528" y="185.228" xlink:href="#dot"  stroke="#16f589" />
<use x="145.352" y="179.131" xlink:href="#dot"  stroke="#7fce38" />
<use x="150" y="188.903" xlink:href="#dot"  stroke="#1ab4d0" />
<use x="150" y="184.906" xlink:href="#dot"  stroke="#46d10d" />
<use x="150" y="178.206" xlink:href="#dot"  stroke="#b348b1" />
<use x="153.909" y="189.439" xlink:href="#dot"  stroke="#e82e3c" />
<use x="152.472" y="185.228" xlink:href="#dot"  stroke="#67e9a9" />
<use x="154.648" y="179.131" xlink:href="#dot"  stroke="#297a3f" />
<use x="157.629" y="190.996" xlink:href="#dot"  stroke="#8e134f" />
<use x="154.765" y="186.145" xlink:href="#dot"  stroke="#43b40f" />
<use x="159.072" y="181.851" xlink:href="#dot"  stroke="#3f5d60" />
<use x="160.95" y="193.431" xlink:href="#dot"  stroke="#8a9551" />
<use x="156.676" y="187.511" xlink:href="#dot"  stroke="#2cb4c0" />
<use x="163.036" y="186.215" xlink:href="#dot"  stroke="#d19c45" />
<use x="163.643" y="196.521" xlink:href="#dot"  stroke="#94f811" />
<use x="157.971" y="189.103" xlink:href="#dot"  stroke="#0ae6c7" />
<use x="166.311" y="191.998" xlink:href="#dot"  stroke="#27d71d" />
<use x="165.508" y="200.016" xlink:href="#dot"  stroke="#601a55" />
<use x="158.434" y="190.659" xlink:href="#dot"  stroke="#c56094" />
<use x="168.738" y="198.967" xlink:href="#dot"  stroke="#43085c" />
<use x="166.501" y="203.751" xlink:href="#dot"  stroke="#40e5ed" />
<use x="157.976" y="191.983" xlink:href="#dot"  stroke="#cf5840" />
<use x="170.376" y="207.019" xlink:href="#dot"  stroke="#73df24" />
<use x="166.963" y="207.875" xlink:href="#dot"  stroke="#efa77e" />
<use x="156.859" y="193.159" xlink:href="#dot"  stroke="#7007fb" />
<use x="171.772" y="216.462" xlink:href="#dot"  stroke="#b8a265" />
<use x="168.018" y="213.291" xlink:href="#dot"  stroke="#e55177" />
<use x="156.068" y="194.957" xlink:href="#dot"  stroke="#96f461" />
<use x="174.42" y="228.535" xlink:href="#dot"  stroke="#cf0bea" />
<use x="132.163" y="215.48" xlink:href="#dot"  stroke="#89c099" />
<use x="142.501" y="195.095" xlink:href="#dot"  stroke="#ad2860" />
<use x="126.35" y="234.012" xlink:href="#dot"  stroke="#005516" />
<use x="133.096" y="210.722" xlink:href="#dot"  stroke="#f9a1cd" />
<use x="141.753" y="193.788" xlink:href="#dot"  stroke="#8e1e66" />
<use x="128.596" y="222.89" xlink:href="#dot"  stroke="#85ceec" />
<use x="134.02" y="206.911" xlink:href="#dot"  stroke="#278689" />
<use x="141.176" y="192.746" xlink:href="#dot"  stroke="#4312e5" />
<use x="130.374" y="214.07" xlink:href="#dot"  stroke="#14bf00" />
<use x="135.721" y="203.416" xlink:href="#dot"  stroke="#4820c4" />
<use x="141.449" y="191.448" xlink:href="#dot"  stroke="#6792f4" />
<use x="132.762" y="206.621" xlink:href="#dot"  stroke="#98a389" />
<use x="138.357" y="200.258" xlink:href="#dot"  stroke="#a23592" />
<use x="142.672" y="189.977" xlink:href="#dot"  stroke="#641bf6" />
<use x="136.067" y="200.434" xlink:href="#dot"  stroke="#4bccd9" />
<use x="141.787" y="197.702" xlink:href="#dot"  stroke="#4379af" />
<use x="144.679" y="188.618" xlink:href="#dot"  stroke="#0d5dfd" />
<use x="140.211" y="195.722" xlink:href="#dot"  stroke="#8654a0" />
<use x="145.759" y="196.034" xlink:href="#dot"  stroke="#2df35c" />
<use x="147.211" y="187.666" xlink:href="#dot"  stroke="#499915" />
<use x="144.954" y="192.76" xlink:href="#dot"  stroke="#daf632" />
<use x="150" y="195.454" xlink:href="#dot"  stroke="#cadcf9" />
<use x="150" y="187.325" xlink:href="#dot"  stroke="#b4883b" />
<use x="150" y="191.748" xlink:href="#dot"  stroke="#360482" />
<use x="154.241" y="196.034" xlink:href="#dot"  stroke="#98a06d" />
<use x="152.789" y="187.666" xlink:href="#dot"  stroke="#67d5fd" />
<use x="155.046" y="192.76" xlink:href="#dot"  stroke="#a81816" />
<use x="158.213" y="197.702" xlink:href="#dot"  stroke="#66a695" />
<use x="155.321" y="188.618" xlink:href="#dot"  stroke="#e63b87" />
<use x="159.789" y="195.722" xlink:href="#dot"  stroke="#2f08f9" />
<use x="161.643" y="200.258" xlink:href="#dot"  stroke="#20002c" />
<use x="157.328" y="189.977" xlink:href="#dot"  stroke="#dfe302" />
<use x="163.933" y="200.434" xlink:href="#dot"  stroke="#fda890" />
<use x="164.279" y="203.416" xlink:href="#dot"  stroke="#b92c3e" />
<use x="158.551" y="191.448" xlink:href="#dot"  stroke="#1010c6" />
<use x="167.238" y="206.621" xlink:href="#dot"  stroke="#f9fc18" />
<use x="165.98" y="206.911" xlink:href="#dot"  stroke="#7f0912" />
<use x="158.824" y="192.746" xlink:href="#dot"  stroke="#86a596" />
<use x="169.626" y="214.07" xlink:href="#dot"  stroke="#eb2c37" />
<use x="166.904" y="210.722" xlink:href="#dot"  stroke="#757907" />
<use x="158.247" y="193.788" xlink:href="#dot"  stroke="#7616f4" />
<use x="171.404" y="222.89" xlink:href="#dot"  stroke="#9bc5a6" />
<use x="167.837" y="215.48" xlink:href="#dot"  stroke="#b518ce" />
<use x="157.499" y="195.095" xlink:href="#dot"  stroke="#799e6a" />
<use x="173.65" y="234.012" xlink:href="#dot"  stroke="#860e08" />
<use x="131.898" y="216.936" xlink:href="#dot"  stroke="#cfe45b" />
<use x="140.765" y="194.385" xlink:href="#dot"  stroke="#823420" />
<use x="126.595" y="239.134" xlink:href="#dot"  stroke="#04563d" />
<use x="133.232" y="212.698" xlink:href="#dot"  stroke="#dca125" />
<use x="140.509" y="193.424" xlink:href="#dot"  stroke="#fdf0b0" />
<use x="129.109" y="228.826" xlink:href="#dot"  stroke="#4b25e2" />
<use x="134.956" y="209.284" xlink:href="#dot"  stroke="#b04421" />
<use x="140.759" y="192.566" xlink:href="#dot"  stroke="#25eb54" />
<use x="131.697" y="220.764" xlink:href="#dot"  stroke="#9dc735" />
<use x="137.598" y="206.264" xlink:href="#dot"  stroke="#d21c08" />
<use x="141.964" y="191.483" xlink:href="#dot"  stroke="#b8dfa8" />
<use x="135.114" y="214.248" xlink:href="#dot"  stroke="#cc50cf" />
<use x="141.161" y="203.779" xlink:href="#dot"  stroke="#ae53bc" />
<use x="144.086" y="190.363" xlink:href="#dot"  stroke="#0b37d8" />
<use x="139.465" y="209.301" xlink:href="#dot"  stroke="#dc730b" />
<use x="145.405" y="202.123" xlink:href="#dot"  stroke="#5595e2" />
<use x="146.873" y="189.523" xlink:href="#dot"  stroke="#c3b72c" />
<use x="144.54" y="206.176" xlink:href="#dot"  stroke="#c7f815" />
<use x="150" y="201.542" xlink:href="#dot"  stroke="#8376ba" />
<use x="150" y="189.212" xlink:href="#dot"  stroke="#d412ed" />
<use x="150" y="205.106" xlink:href="#dot"  stroke="#640259" />
<use x="154.595" y="202.123" xlink:href="#dot"  stroke="#e87f45" />
<use x="153.127" y="189.523" xlink:href="#dot"  stroke="#1db576" />
<use x="155.46" y="206.176" xlink:href="#dot"  stroke="#428e9e" />
<use x="158.839" y="203.779" xlink:href="#dot"  stroke="#2def1f" />
<use x="155.914" y="190.363" xlink:href="#dot"  stroke="#8f18dd" />
<use x="160.535" y="209.301" xlink:href="#dot"  stroke="#744e89" />
<use x="162.402" y="206.264" xlink:href="#dot"  stroke="#d4e981" />
<use x="158.036" y="191.483" xlink:href="#dot"  stroke="#c3e00e" />
<use x="164.886" y="214.248" xlink:href="#dot"  stroke="#4e6fc0" />
<use x="165.044" y="209.284" xlink:href="#dot"  stroke="#450514" />
<use x="159.241" y="192.566" xlink:href="#dot"  stroke="#657c72" />
<use x="168.303" y="220.764" xlink:href="#dot"  stroke="#0c6e3e" />
<use x="166.768" y="212.698" xlink:href="#dot"  stroke="#1d79c3" />
<use x="159.491" y="193.424" xlink:href="#dot"  stroke="#35e10d" />
<use x="170.891" y="228.826" xlink:href="#dot"  stroke="#06396d" />
<use x="168.102" y="216.936" xlink:href="#dot"  stroke="#85217d" />
<use x="159.235" y="194.385" xlink:href="#dot"  stroke="#d96121" />
<use x="173.405" y="239.134" xlink:href="#dot"  stroke="#2e2510" />
<use x="131.999" y="218.032" xlink:href="#dot"  stroke="#62ec1e" />
<use x="139.463" y="193.175" xlink:href="#dot"  stroke="#991270" />
<use x="127.237" y="244.293" xlink:href="#dot"  stroke="#88f86b" />
<use x="134.114" y="214.261" xlink:href="#dot"  stroke="#02c00a" />
<use x="140.028" y="192.484" xlink:href="#dot"  stroke="#b76821" />
<use x="130.496" y="234.778" xlink:href="#dot"  stroke="#d1a628" />
<use x="136.873" y="211.374" xlink:href="#dot"  stroke="#52761f" />
<use x="141.308" y="191.89" xlink:href="#dot"  stroke="#8dd20b" />
<use x="134.178" y="227.695" xlink:href="#dot"  stroke="#8561ce" />
<use x="140.578" y="209.071" xlink:href="#dot"  stroke="#8497f1" />
<use x="143.545" y="191.186" xlink:href="#dot"  stroke="#f59e1d" />
<use x="138.76" y="222.488" xlink:href="#dot"  stroke="#7c8478" />
<use x="145.073" y="207.527" xlink:href="#dot"  stroke="#a95129" />
<use x="146.562" y="190.59" xlink:href="#dot"  stroke="#13d99b" />
<use x="144.152" y="219.228" xlink:href="#dot"  stroke="#327501" />
<use x="150" y="206.98" xlink:href="#dot"  stroke="#41a0cf" />
<use x="150" y="190.358" xlink:href="#dot"  stroke="#657df8" />
<use x="150" y="218.111" xlink:href="#dot"  stroke="#7fb87a" />
<use x="154.927" y="207.527" xlink:href="#dot"  stroke="#431828" />
<use x="153.438" y="190.59" xlink:href="#dot"  stroke="#9f88e1" />
<use x="155.848" y="219.228" xlink:href="#dot"  stroke="#064d16" />
<use x="159.422" y="209.071" xlink:href="#dot"  stroke="#1ab845" />
<use x="156.455" y="191.186" xlink:href="#dot"  stroke="#76501b" />
<use x="161.24" y="222.488" xlink:href="#dot"  stroke="#d45b6c" />
<use x="163.127" y="211.374" xlink:href="#dot"  stroke="#cb4cc2" />
<use x="158.692" y="191.89" xlink:href="#dot"  stroke="#c2aa47" />
<use x="165.822" y="227.695" xlink:href="#dot"  stroke="#0f212a" />
<use x="165.886" y="214.261" xlink:href="#dot"  stroke="#6845b6" />
<use x="159.972" y="192.484" xlink:href="#dot"  stroke="#8e4506" />
<use x="169.504" y="234.778" xlink:href="#dot"  stroke="#52658c" />
<use x="168.001" y="218.032" xlink:href="#dot"  stroke="#22df6b" />
<use x="160.537" y="193.175" xlink:href="#dot"  stroke="#ca7d3a" />
<use x="172.763" y="244.293" xlink:href="#dot"  stroke="#0999d0" />
<use x="133.021" y="219.111" xlink:href="#dot"  stroke="#baa968" />
<use x="139.105" y="191.766" xlink:href="#dot"  stroke="#0a06c2" />
<use x="128.887" y="249.895" xlink:href="#dot"  stroke="#64257d" />
<use x="136.167" y="215.774" xlink:href="#dot"  stroke="#49bd68" />
<use x="140.702" y="191.262" xlink:href="#dot"  stroke="#044cbf" />
<use x="133.197" y="241.219" xlink:href="#dot"  stroke="#3508f1" />
<use x="140.064" y="213.526" xlink:href="#dot"  stroke="#d66054" />
<use x="143.091" y="190.957" xlink:href="#dot"  stroke="#eb8402" />
<use x="138.101" y="235.378" xlink:href="#dot"  stroke="#94f104" />
<use x="144.787" y="212.098" xlink:href="#dot"  stroke="#1578dd" />
<use x="146.304" y="190.671" xlink:href="#dot"  stroke="#bf449e" />
<use x="143.801" y="231.858" xlink:href="#dot"  stroke="#db22d4" />
<use x="150" y="211.597" xlink:href="#dot"  stroke="#e5e9c5" />
<use x="150" y="190.547" xlink:href="#dot"  stroke="#519510" />
<use x="150" y="230.668" xlink:href="#dot"  stroke="#c8f95b" />
<use x="155.213" y="212.098" xlink:href="#dot"  stroke="#c176a2" />
<use x="153.696" y="190.671" xlink:href="#dot"  stroke="#12a944" />
<use x="156.199" y="231.858" xlink:href="#dot"  stroke="#613b66" />
<use x="159.936" y="213.526" xlink:href="#dot"  stroke="#530705" />
<use x="156.909" y="190.957" xlink:href="#dot"  stroke="#21a351" />
<use x="161.899" y="235.378" xlink:href="#dot"  stroke="#682d14" />
<use x="163.833" y="215.774" xlink:href="#dot"  stroke="#f282b0" />
<use x="159.298" y="191.262" xlink:href="#dot"  stroke="#36653d" />
<use x="166.803" y="241.219" xlink:href="#dot"  stroke="#8ef8f9" />
<use x="166.979" y="219.111" xlink:href="#dot"  stroke="#480d76" />
<use x="160.895" y="191.766" xlink:href="#dot"  stroke="#901984" />
<use x="171.113" y="249.895" xlink:href="#dot"  stroke="#44010f" />
<use x="139.557" y="217.564" xlink:href="#dot"  stroke="#2f8e68" />
<use x="142.673" y="189.961" xlink:href="#dot"  stroke="#a60c7e" />
<use x="137.385" y="248.712" xlink:href="#dot"  stroke="#5c05dc" />
<use x="144.528" y="216.002" xlink:href="#dot"  stroke="#b04f28" />
<use x="146.087" y="189.839" xlink:href="#dot"  stroke="#01d25a" />
<use x="143.455" y="244.444" xlink:href="#dot"  stroke="#596051" />
<use x="150" y="215.492" xlink:href="#dot"  stroke="#b6a474" />
<use x="150" y="189.801" xlink:href="#dot"  stroke="#75247c" />
<use x="150" y="243.051" xlink:href="#dot"  stroke="#6e06b7" />
<use x="155.472" y="216.002" xlink:href="#dot"  stroke="#6a547e" />
<use x="153.913" y="189.839" xlink:href="#dot"  stroke="#332ce8" />
<use x="156.545" y="244.444" xlink:href="#dot"  stroke="#c8d0f3" />
<use x="160.443" y="217.564" xlink:href="#dot"  stroke="#52fcc8" />
<use x="157.327" y="189.961" xlink:href="#dot"  stroke="#c44330" />
<use x="162.615" y="248.712" xlink:href="#dot"  stroke="#2b8570" />
</svg>
