<?xml version="1.0" standalone="no"?>
<svg width="300px" height="300px" version="1.1" xmlns="http://www.w3.org/2000/svg" xmlns:xlink="http://www.w3.org/1999/xlink">
<rect x="0" y="0" width="300" height="300"  fill="#000000" />
<defs>
<g id="dot">
<line x1="1" y1="1" x2="0" y2="0"  />
</g>
<g id="cross">
<line x1="-3" y1="0" x2="3" y2="0"  />
<line x1="0" y1="-3" x2="0" y2="3"  />
</g>
<g id="square">
<line x1="-3" y1="-3" x2="-3" y2="3"  />
<line x1="-3" y1="3" x2="3" y2="3"  />
<line x1="3" y1="3" x2="3" y2="-3"  />
<line x1="3" y1="-3" x2="-3" y2="-3"  />
</g>
<g id="round">
<ellipse cx="0" cy="0" rx="3" ry="3"  fill="none" /></g>
<g id="triangle">
<line x1="0" y1="-3" x2="-3" y2="3"  />
<line x1="-3" y1="3" x2="3" y2="3"  />
<line x1="0" y1="-3" x2="3" y2="3"  />
</g>
</defs>
<polygon fill="none" stroke="#ffffff" points="30.9524,269.048 30.9524,30.9524 269.048,30.9524 269.048,269.048 " />
<text style="font-size:12;text-align:center;text-anchor:middle;" x="150" y="298.262" fill="#ffffff">Saggital distance (um)</text>
<use x="70.6349" y="30.9524" xlink:href="#cross"  stroke="#ffffff" />
<use x="70.6349" y="269.048" xlink:href="#cross"  stroke="#ffffff" />
<text style="font-size:12;text-align:center;text-anchor:middle;" x="70.6349" y="287.048" fill="#ffffff">-31.4</text>
<use x="150" y="30.9524" xlink:href="#cross"  stroke="#ffffff" />
<use x="150" y="269.048" xlink:href="#cross"  stroke="#ffffff" />
<text style="font-size:12;text-align:center;text-anchor:middle;" x="150" y="287.048" fill="#ffffff">0</text>
<use x="229.365" y="30.9524" xlink:href="#cross"  stroke="#ffffff" />
<use x="229.365" y="269.048" xlink:href="#cross"  stroke="#ffffff" />
<text style="font-size:12;text-align:center;text-anchor:middle;" x="229.365" y="287.048" fill="#ffffff">31.4</text>
<text style="font-size:12;text-align:center;text-anchor:middle;" x="7.7381" y="156" transform="rotate(-90,7.7381,150)" fill="#ffffff">Tangential distance (um)</text>
<use x="269.048" y="229.365" xlink:href="#cross"  stroke="#ffffff" />
<use x="30.9524" y="229.365" xlink:href="#cross"  stroke="#ffffff" />
<text style="font-size:12;text-align:right;text-anchor:end;" x="24.9524" y="235.365" fill="#ffffff">-31.4</text>
<use x="269.048" y="150" xlink:href="#cross"  stroke="#ffffff" />
<use x="30.9524" y="150" xlink:href="#cross"  stroke="#ffffff" />
<text style="font-size:12;text-align:right;text-anchor:end;" x="24.9524" y="156" fill="#ffffff">0</text>
<use x="269.048" y="70.6349" xlink:href="#cross"  stroke="#ffffff" />
<use x="30.9524" y="70.6349" xlink:href="#cross"  stroke="#ffffff" />
<text style="font-size:12;text-align:right;text-anchor:end;" x="24.9524" y="76.6349" fill="#ffffff">31.4</text>
<use x="150" y="150" xlink:href="#dot"  stroke="#928242" />
<use x="150" y="150" xlink:href="#dot"  stroke="#8b3640" />
<use x="150" y="150" xlink:href="#dot"  stroke="#087991" />
<use x="150" y="269.048" xlink:href="#dot"  stroke="#224fc7" />
<use x="134.461" y="268.029" xlink:href="#dot"  stroke="#a234db" />
<use x="119.188" y="264.991" xlink:href="#dot"  stroke="#dbf4f7" />
<use x="104.442" y="259.986" xlink:href="#dot"  stroke="#c88f8a" />
<use x="90.4762" y="253.098" xlink:href="#dot"  stroke="#91a621" />
<use x="77.5284" y="244.447" xlink:href="#dot"  stroke="#ea6e7a" />
<use x="65.8206" y="234.179" xlink:href="#dot"  stroke="#af460b" />
<use x="55.5532" y="222.472" xlink:href="#dot"  stroke="#a0d98e" />
<use x="46.9017" y="209.524" xlink:href="#dot"  stroke="#e265c4" />
<use x="40.0143" y="195.558" xlink:href="#dot"  stroke="#246d3f" />
<use x="35.0088" y="180.812" xlink:href="#dot"  stroke="#b58f8e" />
<use x="31.9708" y="165.539" xlink:href="#dot"  stroke="#7d33c3" />
<use x="30.9524" y="150" xlink:href="#dot"  stroke="#590fb8" />
<use x="31.9708" y="134.461" xlink:href="#dot"  stroke="#52d749" />
<use x="35.0088" y="119.188" xlink:href="#dot"  stroke="#dc6af0" />
<use x="40.0143" y="104.442" xlink:href="#dot"  stroke="#fe555f" />
<use x="46.9017" y="90.4762" xlink:href="#dot"  stroke="#7906a5" />
<use x="55.5532" y="77.5284" xlink:href="#dot"  stroke="#85a680" />
<use x="65.8206" y="65.8206" xlink:href="#dot"  stroke="#148ae5" />
<use x="77.5284" y="55.5532" xlink:href="#dot"  stroke="#d9ae54" />
<use x="90.4762" y="46.9017" xlink:href="#dot"  stroke="#1964e3" />
<use x="104.442" y="40.0143" xlink:href="#dot"  stroke="#a8e117" />
<use x="119.188" y="35.0088" xlink:href="#dot"  stroke="#6c3c27" />
<use x="134.461" y="31.9708" xlink:href="#dot"  stroke="#268e00" />
<use x="150" y="30.9524" xlink:href="#dot"  stroke="#6f6c6a" />
<use x="165.539" y="31.9708" xlink:href="#dot"  stroke="#606bc0" />
<use x="180.812" y="35.0088" xlink:href="#dot"  stroke="#c0e4c7" />
<use x="195.558" y="40.0143" xlink:href="#dot"  stroke="#676b6e" />
<use x="209.524" y="46.9017" xlink:href="#dot"  stroke="#e77ff8" />
<use x="222.472" y="55.5532" xlink:href="#dot"  stroke="#ce59a8" />
<use x="234.179" y="65.8206" xlink:href="#dot"  stroke="#23730d" />
<use x="244.447" y="77.5284" xlink:href="#dot"  stroke="#081cef" />
<use x="253.098" y="90.4762" xlink:href="#dot"  stroke="#20892c" />
<use x="259.986" y="104.442" xlink:href="#dot"  stroke="#47afbb" />
<use x="264.991" y="119.188" xlink:href="#dot"  stroke="#471f28" />
<use x="268.029" y="134.461" xlink:href="#dot"  stroke="#b28093" />
<use x="269.048" y="150" xlink:href="#dot"  stroke="#744179" />
<use x="268.029" y="165.539" xlink:href="#dot"  stroke="#3ca8e4" />
<use x="264.991" y="180.812" xlink:href="#dot"  stroke="#aa9165" />
<use x="259.986" y="195.558" xlink:href="#dot"  stroke="#a460be" />
<use x="253.098" y="209.524" xlink:href="#dot"  stroke="#4d8333" />
<use x="244.447" y="222.472" xlink:href="#dot"  stroke="#5b8b50" />
<use x="234.179" y="234.179" xlink:href="#dot"  stroke="#4bacd9" />
<use x="222.472" y="244.447" xlink:href="#dot"  stroke="#78f389" />
<use x="209.524" y="253.098" xlink:href="#dot"  stroke="#353ca9" />
<use x="195.558" y="259.986" xlink:href="#dot"  stroke="#5dee2b" />
<use x="180.812" y="264.991" xlink:href="#dot"  stroke="#f1636d" />
<use x="165.539" y="268.029" xlink:href="#dot"  stroke="#6ba016" />
<use x="150" y="192.342" xlink:href="#dot"  stroke="#514ba8" />
<use x="150" y="148.402" xlink:href="#dot"  stroke="#b6f009" />
<use x="150" y="214.95" xlink:href="#dot"  stroke="#753f8c" />
<use x="143.689" y="191.869" xlink:href="#dot"  stroke="#a99a19" />
<use x="150.238" y="148.42" xlink:href="#dot"  stroke="#f9e6c6" />
<use x="140.32" y="214.224" xlink:href="#dot"  stroke="#d360ba" />
<use x="137.52" y="190.461" xlink:href="#dot"  stroke="#5e95f7" />
<use x="150.471" y="148.473" xlink:href="#dot"  stroke="#09f3e7" />
<use x="130.856" y="212.064" xlink:href="#dot"  stroke="#34e54b" />
<use x="131.629" y="188.149" xlink:href="#dot"  stroke="#a151ec" />
<use x="150.693" y="148.561" xlink:href="#dot"  stroke="#b8a238" />
<use x="121.819" y="208.518" xlink:href="#dot"  stroke="#615a2a" />
<use x="126.148" y="184.984" xlink:href="#dot"  stroke="#6acf69" />
<use x="150.9" y="148.68" xlink:href="#dot"  stroke="#f77905" />
<use x="113.413" y="203.664" xlink:href="#dot"  stroke="#1273ec" />
<use x="121.2" y="181.039" xlink:href="#dot"  stroke="#d9484d" />
<use x="151.087" y="148.829" xlink:href="#dot"  stroke="#95a6e3" />
<use x="105.823" y="197.612" xlink:href="#dot"  stroke="#8dafd7" />
<use x="116.896" y="176.4" xlink:href="#dot"  stroke="#75e4bd" />
<use x="151.249" y="149.004" xlink:href="#dot"  stroke="#c18710" />
<use x="99.2203" y="190.495" xlink:href="#dot"  stroke="#ae40b3" />
<use x="113.331" y="171.171" xlink:href="#dot"  stroke="#e7a20e" />
<use x="151.383" y="149.201" xlink:href="#dot"  stroke="#120ede" />
<use x="93.7519" y="182.475" xlink:href="#dot"  stroke="#7c0759" />
<use x="110.585" y="165.469" xlink:href="#dot"  stroke="#821acd" />
<use x="151.487" y="149.416" xlink:href="#dot"  stroke="#6ff316" />
<use x="89.54" y="173.729" xlink:href="#dot"  stroke="#bd89bd" />
<use x="108.72" y="159.422" xlink:href="#dot"  stroke="#a2176e" />
<use x="151.557" y="149.645" xlink:href="#dot"  stroke="#7a8d53" />
<use x="86.6787" y="164.453" xlink:href="#dot"  stroke="#394fdb" />
<use x="107.777" y="153.164" xlink:href="#dot"  stroke="#4afd1c" />
<use x="151.593" y="149.881" xlink:href="#dot"  stroke="#fde6bf" />
<use x="85.2319" y="154.854" xlink:href="#dot"  stroke="#0df9cd" />
<use x="107.777" y="146.836" xlink:href="#dot"  stroke="#eb77d5" />
<use x="151.593" y="150.119" xlink:href="#dot"  stroke="#45f9ef" />
<use x="85.2319" y="145.146" xlink:href="#dot"  stroke="#136ae3" />
<use x="108.72" y="140.578" xlink:href="#dot"  stroke="#2a296d" />
<use x="151.557" y="150.355" xlink:href="#dot"  stroke="#e8cc85" />
<use x="86.6787" y="135.547" xlink:href="#dot"  stroke="#574813" />
<use x="110.585" y="134.531" xlink:href="#dot"  stroke="#ab8162" />
<use x="151.487" y="150.584" xlink:href="#dot"  stroke="#87cc61" />
<use x="89.54" y="126.271" xlink:href="#dot"  stroke="#a4ca49" />
<use x="113.331" y="128.829" xlink:href="#dot"  stroke="#64d843" />
<use x="151.383" y="150.799" xlink:href="#dot"  stroke="#33c4ba" />
<use x="93.7519" y="117.525" xlink:href="#dot"  stroke="#090bb5" />
<use x="116.896" y="123.6" xlink:href="#dot"  stroke="#f81f21" />
<use x="151.249" y="150.996" xlink:href="#dot"  stroke="#dd4a4b" />
<use x="99.2203" y="109.505" xlink:href="#dot"  stroke="#4b3318" />
<use x="121.2" y="118.961" xlink:href="#dot"  stroke="#d08a60" />
<use x="151.087" y="151.171" xlink:href="#dot"  stroke="#e437e2" />
<use x="105.823" y="102.388" xlink:href="#dot"  stroke="#47bfaf" />
<use x="126.148" y="115.016" xlink:href="#dot"  stroke="#a9647b" />
<use x="150.9" y="151.32" xlink:href="#dot"  stroke="#f2c954" />
<use x="113.413" y="96.336" xlink:href="#dot"  stroke="#36fd19" />
<use x="131.629" y="111.851" xlink:href="#dot"  stroke="#f10725" />
<use x="150.693" y="151.439" xlink:href="#dot"  stroke="#a80145" />
<use x="121.819" y="91.4823" xlink:href="#dot"  stroke="#c9de8f" />
<use x="137.52" y="109.539" xlink:href="#dot"  stroke="#162bc2" />
<use x="150.471" y="151.527" xlink:href="#dot"  stroke="#2efc4e" />
<use x="130.856" y="87.9358" xlink:href="#dot"  stroke="#8ee185" />
<use x="143.689" y="108.131" xlink:href="#dot"  stroke="#712945" />
<use x="150.238" y="151.58" xlink:href="#dot"  stroke="#22d3aa" />
<use x="140.32" y="85.7757" xlink:href="#dot"  stroke="#9dc675" />
<use x="150" y="107.658" xlink:href="#dot"  stroke="#f1fd73" />
<use x="150" y="151.598" xlink:href="#dot"  stroke="#0cf07b" />
<use x="150" y="85.0503" xlink:href="#dot"  stroke="#319a7c" />
<use x="156.311" y="108.131" xlink:href="#dot"  stroke="#77645c" />
<use x="149.762" y="151.58" xlink:href="#dot"  stroke="#077b87" />
<use x="159.68" y="85.7757" xlink:href="#dot"  stroke="#c9a984" />
<use x="162.48" y="109.539" xlink:href="#dot"  stroke="#193966" />
<use x="149.529" y="151.527" xlink:href="#dot"  stroke="#9fab90" />
<use x="169.144" y="87.9358" xlink:href="#dot"  stroke="#e5cd64" />
<use x="168.371" y="111.851" xlink:href="#dot"  stroke="#906b2c" />
<use x="149.307" y="151.439" xlink:href="#dot"  stroke="#065d2b" />
<use x="178.181" y="91.4823" xlink:href="#dot"  stroke="#7a691d" />
<use x="173.852" y="115.016" xlink:href="#dot"  stroke="#f59bb7" />
<use x="149.1" y="151.32" xlink:href="#dot"  stroke="#73131d" />
<use x="186.587" y="96.336" xlink:href="#dot"  stroke="#cf1b98" />
<use x="178.8" y="118.961" xlink:href="#dot"  stroke="#57e542" />
<use x="148.913" y="151.171" xlink:href="#dot"  stroke="#dcfe7b" />
<use x="194.177" y="102.388" xlink:href="#dot"  stroke="#449e27" />
<use x="183.104" y="123.6" xlink:href="#dot"  stroke="#d484f5" />
<use x="148.751" y="150.996" xlink:href="#dot"  stroke="#3a1661" />
<use x="200.78" y="109.505" xlink:href="#dot"  stroke="#671dbe" />
<use x="186.669" y="128.829" xlink:href="#dot"  stroke="#939729" />
<use x="148.617" y="150.799" xlink:href="#dot"  stroke="#b08ec5" />
<use x="206.248" y="117.525" xlink:href="#dot"  stroke="#6802d9" />
<use x="189.415" y="134.531" xlink:href="#dot"  stroke="#85d1f4" />
<use x="148.513" y="150.584" xlink:href="#dot"  stroke="#1e2adb" />
<use x="210.46" y="126.271" xlink:href="#dot"  stroke="#6107da" />
<use x="191.28" y="140.578" xlink:href="#dot"  stroke="#dc4b7a" />
<use x="148.443" y="150.355" xlink:href="#dot"  stroke="#0521fe" />
<use x="213.321" y="135.547" xlink:href="#dot"  stroke="#fa5c16" />
<use x="192.223" y="146.836" xlink:href="#dot"  stroke="#5cc333" />
<use x="148.407" y="150.119" xlink:href="#dot"  stroke="#1c57cb" />
<use x="214.768" y="145.146" xlink:href="#dot"  stroke="#46085a" />
<use x="192.223" y="153.164" xlink:href="#dot"  stroke="#0d715d" />
<use x="148.407" y="149.881" xlink:href="#dot"  stroke="#e7f62f" />
<use x="214.768" y="154.854" xlink:href="#dot"  stroke="#dd1659" />
<use x="191.28" y="159.422" xlink:href="#dot"  stroke="#b97761" />
<use x="148.443" y="149.645" xlink:href="#dot"  stroke="#9554ad" />
<use x="213.321" y="164.453" xlink:href="#dot"  stroke="#105ace" />
<use x="189.415" y="165.469" xlink:href="#dot"  stroke="#10562b" />
<use x="148.513" y="149.416" xlink:href="#dot"  stroke="#26b3ef" />
<use x="210.46" y="173.729" xlink:href="#dot"  stroke="#5ad047" />
<use x="186.669" y="171.171" xlink:href="#dot"  stroke="#261850" />
<use x="148.617" y="149.201" xlink:href="#dot"  stroke="#8125c1" />
<use x="206.248" y="182.475" xlink:href="#dot"  stroke="#de0eb9" />
<use x="183.104" y="176.4" xlink:href="#dot"  stroke="#0febcf" />
<use x="148.751" y="149.004" xlink:href="#dot"  stroke="#69a547" />
<use x="200.78" y="190.495" xlink:href="#dot"  stroke="#ca3b9c" />
<use x="178.8" y="181.039" xlink:href="#dot"  stroke="#784cf7" />
<use x="148.913" y="148.829" xlink:href="#dot"  stroke="#485c4e" />
<use x="194.177" y="197.612" xlink:href="#dot"  stroke="#748202" />
<use x="173.852" y="184.984" xlink:href="#dot"  stroke="#64ddd2" />
<use x="149.1" y="148.68" xlink:href="#dot"  stroke="#ac05eb" />
<use x="186.587" y="203.664" xlink:href="#dot"  stroke="#fc8611" />
<use x="168.371" y="188.149" xlink:href="#dot"  stroke="#bf661f" />
<use x="149.307" y="148.561" xlink:href="#dot"  stroke="#79750c" />
<use x="178.181" y="208.518" xlink:href="#dot"  stroke="#4adeb2" />
<use x="162.48" y="190.461" xlink:href="#dot"  stroke="#91aaee" />
<use x="149.529" y="148.473" xlink:href="#dot"  stroke="#2f243b" />
<use x="169.144" y="212.064" xlink:href="#dot"  stroke="#276c97" />
<use x="156.311" y="191.869" xlink:href="#dot"  stroke="#75e01b" />
<use x="149.762" y="148.42" xlink:href="#dot"  stroke="#7846f8" />
<use x="159.68" y="214.224" xlink:href="#dot"  stroke="#4cf2fd" />
<use x="150" y="178.919" xlink:href="#dot"  stroke="#38f085" />
<use x="150" y="145.599" xlink:href="#dot"  stroke="#4ab1eb" />
<use x="150" y="199.544" xlink:href="#dot"  stroke="#6a2c62" />
<use x="144.978" y="178.48" xlink:href="#dot"  stroke="#767641" />
<use x="150.764" y="145.665" xlink:href="#dot"  stroke="#2909ec" />
<use x="141.397" y="198.791" xlink:href="#dot"  stroke="#193811" />
<use x="140.109" y="177.175" xlink:href="#dot"  stroke="#545f7e" />
<use x="151.505" y="145.864" xlink:href="#dot"  stroke="#ecd560" />
<use x="133.055" y="196.556" xlink:href="#dot"  stroke="#084fa6" />
<use x="135.541" y="175.044" xlink:href="#dot"  stroke="#029b9a" />
<use x="152.201" y="146.188" xlink:href="#dot"  stroke="#00d38c" />
<use x="125.228" y="192.906" xlink:href="#dot"  stroke="#861f3e" />
<use x="131.411" y="172.153" xlink:href="#dot"  stroke="#72896a" />
<use x="152.829" y="146.628" xlink:href="#dot"  stroke="#d501e0" />
<use x="118.154" y="187.953" xlink:href="#dot"  stroke="#172be9" />
<use x="127.847" y="168.589" xlink:href="#dot"  stroke="#054423" />
<use x="153.372" y="147.171" xlink:href="#dot"  stroke="#169983" />
<use x="112.047" y="181.846" xlink:href="#dot"  stroke="#958659" />
<use x="124.956" y="164.459" xlink:href="#dot"  stroke="#f58fa8" />
<use x="153.812" y="147.799" xlink:href="#dot"  stroke="#9d9145" />
<use x="107.094" y="174.772" xlink:href="#dot"  stroke="#38921a" />
<use x="122.825" y="159.891" xlink:href="#dot"  stroke="#c41939" />
<use x="154.136" y="148.495" xlink:href="#dot"  stroke="#038cc3" />
<use x="103.444" y="166.945" xlink:href="#dot"  stroke="#6e62c4" />
<use x="121.52" y="155.022" xlink:href="#dot"  stroke="#507aef" />
<use x="154.335" y="149.236" xlink:href="#dot"  stroke="#3a7f35" />
<use x="101.209" y="158.603" xlink:href="#dot"  stroke="#5e96ce" />
<use x="121.081" y="150" xlink:href="#dot"  stroke="#e12c55" />
<use x="154.401" y="150" xlink:href="#dot"  stroke="#3c22e4" />
<use x="100.456" y="150" xlink:href="#dot"  stroke="#e4bf77" />
<use x="121.52" y="144.978" xlink:href="#dot"  stroke="#2af80b" />
<use x="154.335" y="150.764" xlink:href="#dot"  stroke="#45be24" />
<use x="101.209" y="141.397" xlink:href="#dot"  stroke="#7ec1b1" />
<use x="122.825" y="140.109" xlink:href="#dot"  stroke="#423115" />
<use x="154.136" y="151.505" xlink:href="#dot"  stroke="#07818f" />
<use x="103.444" y="133.055" xlink:href="#dot"  stroke="#f7bc10" />
<use x="124.956" y="135.541" xlink:href="#dot"  stroke="#2d1ba7" />
<use x="153.812" y="152.201" xlink:href="#dot"  stroke="#fbfcd3" />
<use x="107.094" y="125.228" xlink:href="#dot"  stroke="#5239f6" />
<use x="127.847" y="131.411" xlink:href="#dot"  stroke="#381fb7" />
<use x="153.372" y="152.829" xlink:href="#dot"  stroke="#af4ab1" />
<use x="112.047" y="118.154" xlink:href="#dot"  stroke="#ba8f70" />
<use x="131.411" y="127.847" xlink:href="#dot"  stroke="#df0f33" />
<use x="152.829" y="153.372" xlink:href="#dot"  stroke="#925164" />
<use x="118.154" y="112.047" xlink:href="#dot"  stroke="#a759e5" />
<use x="135.541" y="124.956" xlink:href="#dot"  stroke="#3851a2" />
<use x="152.201" y="153.812" xlink:href="#dot"  stroke="#497fbd" />
<use x="125.228" y="107.094" xlink:href="#dot"  stroke="#f07cbb" />
<use x="140.109" y="122.825" xlink:href="#dot"  stroke="#c5cef5" />
<use x="151.505" y="154.136" xlink:href="#dot"  stroke="#bd0716" />
<use x="133.055" y="103.444" xlink:href="#dot"  stroke="#75b760" />
<use x="144.978" y="121.52" xlink:href="#dot"  stroke="#2772f0" />
<use x="150.764" y="154.335" xlink:href="#dot"  stroke="#985300" />
<use x="141.397" y="101.209" xlink:href="#dot"  stroke="#cbe551" />
<use x="150" y="121.081" xlink:href="#dot"  stroke="#308eab" />
<use x="150" y="154.401" xlink:href="#dot"  stroke="#16c6fd" />
<use x="150" y="100.456" xlink:href="#dot"  stroke="#b9107d" />
<use x="155.022" y="121.52" xlink:href="#dot"  stroke="#7801f9" />
<use x="149.236" y="154.335" xlink:href="#dot"  stroke="#34c7c9" />
<use x="158.603" y="101.209" xlink:href="#dot"  stroke="#2b85d0" />
<use x="159.891" y="122.825" xlink:href="#dot"  stroke="#41fa89" />
<use x="148.495" y="154.136" xlink:href="#dot"  stroke="#a223fb" />
<use x="166.945" y="103.444" xlink:href="#dot"  stroke="#93bc50" />
<use x="164.459" y="124.956" xlink:href="#dot"  stroke="#938836" />
<use x="147.799" y="153.812" xlink:href="#dot"  stroke="#e5b9c4" />
<use x="174.772" y="107.094" xlink:href="#dot"  stroke="#91cf8c" />
<use x="168.589" y="127.847" xlink:href="#dot"  stroke="#908a9c" />
<use x="147.171" y="153.372" xlink:href="#dot"  stroke="#0e039e" />
<use x="181.846" y="112.047" xlink:href="#dot"  stroke="#093866" />
<use x="172.153" y="131.411" xlink:href="#dot"  stroke="#d364ec" />
<use x="146.628" y="152.829" xlink:href="#dot"  stroke="#a5a5e8" />
<use x="187.953" y="118.154" xlink:href="#dot"  stroke="#2f480d" />
<use x="175.044" y="135.541" xlink:href="#dot"  stroke="#2cdcc9" />
<use x="146.188" y="152.201" xlink:href="#dot"  stroke="#7c7052" />
<use x="192.906" y="125.228" xlink:href="#dot"  stroke="#b3570c" />
<use x="177.175" y="140.109" xlink:href="#dot"  stroke="#78e9dc" />
<use x="145.864" y="151.505" xlink:href="#dot"  stroke="#057a68" />
<use x="196.556" y="133.055" xlink:href="#dot"  stroke="#a2896b" />
<use x="178.48" y="144.978" xlink:href="#dot"  stroke="#4293a4" />
<use x="145.665" y="150.764" xlink:href="#dot"  stroke="#a96709" />
<use x="198.791" y="141.397" xlink:href="#dot"  stroke="#960dae" />
<use x="178.919" y="150" xlink:href="#dot"  stroke="#7f3df7" />
<use x="145.599" y="150" xlink:href="#dot"  stroke="#8c69d4" />
<use x="199.544" y="150" xlink:href="#dot"  stroke="#56e646" />
<use x="178.48" y="155.022" xlink:href="#dot"  stroke="#a99a9e" />
<use x="145.665" y="149.236" xlink:href="#dot"  stroke="#b61488" />
<use x="198.791" y="158.603" xlink:href="#dot"  stroke="#941903" />
<use x="177.175" y="159.891" xlink:href="#dot"  stroke="#fcbc8c" />
<use x="145.864" y="148.495" xlink:href="#dot"  stroke="#68fe20" />
<use x="196.556" y="166.945" xlink:href="#dot"  stroke="#0da988" />
<use x="175.044" y="164.459" xlink:href="#dot"  stroke="#164096" />
<use x="146.188" y="147.799" xlink:href="#dot"  stroke="#c5bfd3" />
<use x="192.906" y="174.772" xlink:href="#dot"  stroke="#be4d3e" />
<use x="172.153" y="168.589" xlink:href="#dot"  stroke="#93a325" />
<use x="146.628" y="147.171" xlink:href="#dot"  stroke="#da4ebf" />
<use x="187.953" y="181.846" xlink:href="#dot"  stroke="#7905d3" />
<use x="168.589" y="172.153" xlink:href="#dot"  stroke="#0399ed" />
<use x="147.171" y="146.628" xlink:href="#dot"  stroke="#0696ab" />
<use x="181.846" y="187.953" xlink:href="#dot"  stroke="#9300ab" />
<use x="164.459" y="175.044" xlink:href="#dot"  stroke="#b30d55" />
<use x="147.799" y="146.188" xlink:href="#dot"  stroke="#3d2495" />
<use x="174.772" y="192.906" xlink:href="#dot"  stroke="#d3ea56" />
<use x="159.891" y="177.175" xlink:href="#dot"  stroke="#a8a9a3" />
<use x="148.495" y="145.864" xlink:href="#dot"  stroke="#e63e48" />
<use x="166.945" y="196.556" xlink:href="#dot"  stroke="#0c1996" />
<use x="155.022" y="178.48" xlink:href="#dot"  stroke="#cc939c" />
<use x="149.236" y="145.665" xlink:href="#dot"  stroke="#a19636" />
<use x="158.603" y="198.791" xlink:href="#dot"  stroke="#8f9dcd" />
<use x="150" y="165.25" xlink:href="#dot"  stroke="#3b31cd" />
<use x="150" y="139.225" xlink:href="#dot"  stroke="#e6e5db" />
<use x="150" y="185.269" xlink:href="#dot"  stroke="#3d2300" />
<use x="146.829" y="164.917" xlink:href="#dot"  stroke="#d2f7eb" />
<use x="152.24" y="139.46" xlink:href="#dot"  stroke="#29a095" />
<use x="142.667" y="184.499" xlink:href="#dot"  stroke="#cd87d3" />
<use x="143.797" y="163.932" xlink:href="#dot"  stroke="#1694ed" />
<use x="154.383" y="140.157" xlink:href="#dot"  stroke="#ac6282" />
<use x="135.655" y="182.22" xlink:href="#dot"  stroke="#4a041a" />
<use x="141.036" y="162.338" xlink:href="#dot"  stroke="#8094b7" />
<use x="156.333" y="141.283" xlink:href="#dot"  stroke="#4ed0e8" />
<use x="129.269" y="178.534" xlink:href="#dot"  stroke="#1db8ce" />
<use x="138.667" y="160.204" xlink:href="#dot"  stroke="#f8f5f2" />
<use x="158.007" y="142.79" xlink:href="#dot"  stroke="#f9c8ea" />
<use x="123.79" y="173.6" xlink:href="#dot"  stroke="#e5f28b" />
<use x="136.793" y="157.625" xlink:href="#dot"  stroke="#7cc014" />
<use x="159.331" y="144.612" xlink:href="#dot"  stroke="#50d7a9" />
<use x="119.456" y="167.635" xlink:href="#dot"  stroke="#3e850d" />
<use x="135.496" y="154.713" xlink:href="#dot"  stroke="#c0cf12" />
<use x="160.248" y="146.67" xlink:href="#dot"  stroke="#db50a6" />
<use x="116.457" y="160.899" xlink:href="#dot"  stroke="#939f77" />
<use x="134.833" y="151.594" xlink:href="#dot"  stroke="#7dbd30" />
<use x="160.716" y="148.874" xlink:href="#dot"  stroke="#4db726" />
<use x="114.924" y="153.687" xlink:href="#dot"  stroke="#40b1ef" />
<use x="134.833" y="148.406" xlink:href="#dot"  stroke="#2c98e3" />
<use x="160.716" y="151.126" xlink:href="#dot"  stroke="#b815a4" />
<use x="114.924" y="146.313" xlink:href="#dot"  stroke="#cc667c" />
<use x="135.496" y="145.287" xlink:href="#dot"  stroke="#77a502" />
<use x="160.248" y="153.33" xlink:href="#dot"  stroke="#8567d1" />
<use x="116.457" y="139.101" xlink:href="#dot"  stroke="#974323" />
<use x="136.793" y="142.375" xlink:href="#dot"  stroke="#3ed6c3" />
<use x="159.331" y="155.388" xlink:href="#dot"  stroke="#b65481" />
<use x="119.456" y="132.365" xlink:href="#dot"  stroke="#e7a139" />
<use x="138.667" y="139.796" xlink:href="#dot"  stroke="#0fe2eb" />
<use x="158.007" y="157.21" xlink:href="#dot"  stroke="#fe0f85" />
<use x="123.79" y="126.4" xlink:href="#dot"  stroke="#e2c79b" />
<use x="141.036" y="137.662" xlink:href="#dot"  stroke="#889502" />
<use x="156.333" y="158.717" xlink:href="#dot"  stroke="#060ea7" />
<use x="129.269" y="121.466" xlink:href="#dot"  stroke="#099310" />
<use x="143.797" y="136.068" xlink:href="#dot"  stroke="#db2b53" />
<use x="154.383" y="159.843" xlink:href="#dot"  stroke="#fe6a2b" />
<use x="135.655" y="117.78" xlink:href="#dot"  stroke="#c3217f" />
<use x="146.829" y="135.083" xlink:href="#dot"  stroke="#450922" />
<use x="152.24" y="160.54" xlink:href="#dot"  stroke="#7f1805" />
<use x="142.667" y="115.501" xlink:href="#dot"  stroke="#6c1815" />
<use x="150" y="134.75" xlink:href="#dot"  stroke="#f1fbdd" />
<use x="150" y="160.775" xlink:href="#dot"  stroke="#8e8573" />
<use x="150" y="114.731" xlink:href="#dot"  stroke="#908c81" />
<use x="153.171" y="135.083" xlink:href="#dot"  stroke="#399516" />
<use x="147.76" y="160.54" xlink:href="#dot"  stroke="#497141" />
<use x="157.333" y="115.501" xlink:href="#dot"  stroke="#9d71ac" />
<use x="156.203" y="136.068" xlink:href="#dot"  stroke="#c835cd" />
<use x="145.617" y="159.843" xlink:href="#dot"  stroke="#497bd7" />
<use x="164.345" y="117.78" xlink:href="#dot"  stroke="#6bfbf0" />
<use x="158.964" y="137.662" xlink:href="#dot"  stroke="#71680a" />
<use x="143.667" y="158.717" xlink:href="#dot"  stroke="#875b06" />
<use x="170.731" y="121.466" xlink:href="#dot"  stroke="#65e98c" />
<use x="161.333" y="139.796" xlink:href="#dot"  stroke="#d97b19" />
<use x="141.993" y="157.21" xlink:href="#dot"  stroke="#5bb5ae" />
<use x="176.21" y="126.4" xlink:href="#dot"  stroke="#720021" />
<use x="163.207" y="142.375" xlink:href="#dot"  stroke="#b39d92" />
<use x="140.669" y="155.388" xlink:href="#dot"  stroke="#6167c8" />
<use x="180.544" y="132.365" xlink:href="#dot"  stroke="#2fb045" />
<use x="164.504" y="145.287" xlink:href="#dot"  stroke="#081d41" />
<use x="139.752" y="153.33" xlink:href="#dot"  stroke="#f88faa" />
<use x="183.543" y="139.101" xlink:href="#dot"  stroke="#031707" />
<use x="165.167" y="148.406" xlink:href="#dot"  stroke="#0a7df1" />
<use x="139.284" y="151.126" xlink:href="#dot"  stroke="#96576d" />
<use x="185.076" y="146.313" xlink:href="#dot"  stroke="#afb324" />
<use x="165.167" y="151.594" xlink:href="#dot"  stroke="#5f2624" />
<use x="139.284" y="148.874" xlink:href="#dot"  stroke="#81dac2" />
<use x="185.076" y="153.687" xlink:href="#dot"  stroke="#143c2a" />
<use x="164.504" y="154.713" xlink:href="#dot"  stroke="#dd6bdb" />
<use x="139.752" y="146.67" xlink:href="#dot"  stroke="#2374f8" />
<use x="183.543" y="160.899" xlink:href="#dot"  stroke="#656d89" />
<use x="163.207" y="157.625" xlink:href="#dot"  stroke="#1170a0" />
<use x="140.669" y="144.612" xlink:href="#dot"  stroke="#197b1f" />
<use x="180.544" y="167.635" xlink:href="#dot"  stroke="#0b1276" />
<use x="161.333" y="160.204" xlink:href="#dot"  stroke="#78c22a" />
<use x="141.993" y="142.79" xlink:href="#dot"  stroke="#9d2350" />
<use x="176.21" y="173.6" xlink:href="#dot"  stroke="#c1a42c" />
<use x="158.964" y="162.338" xlink:href="#dot"  stroke="#84b968" />
<use x="143.667" y="141.283" xlink:href="#dot"  stroke="#af98d4" />
<use x="170.731" y="178.534" xlink:href="#dot"  stroke="#8bbc49" />
<use x="156.203" y="163.932" xlink:href="#dot"  stroke="#8422b6" />
<use x="145.617" y="140.157" xlink:href="#dot"  stroke="#0e3428" />
<use x="164.345" y="182.22" xlink:href="#dot"  stroke="#af4da4" />
<use x="153.171" y="164.917" xlink:href="#dot"  stroke="#ce58b6" />
<use x="147.76" y="139.46" xlink:href="#dot"  stroke="#46d17a" />
<use x="157.333" y="184.499" xlink:href="#dot"  stroke="#706f9e" />
<use x="150" y="153.388" xlink:href="#dot"  stroke="#c13243" />
<use x="150" y="133.793" xlink:href="#dot"  stroke="#edb6fd" />
<use x="150" y="171.091" xlink:href="#dot"  stroke="#576796" />
<use x="149.123" y="153.272" xlink:href="#dot"  stroke="#2cf253" />
<use x="154.195" y="134.346" xlink:href="#dot"  stroke="#767876" />
<use x="144.541" y="170.372" xlink:href="#dot"  stroke="#2e87aa" />
<use x="148.306" y="152.934" xlink:href="#dot"  stroke="#5738f8" />
<use x="158.103" y="135.965" xlink:href="#dot"  stroke="#fb0852" />
<use x="139.454" y="168.265" xlink:href="#dot"  stroke="#b34e24" />
<use x="147.605" y="152.395" xlink:href="#dot"  stroke="#2ebf94" />
<use x="161.46" y="138.54" xlink:href="#dot"  stroke="#cc82c6" />
<use x="135.086" y="164.914" xlink:href="#dot"  stroke="#11717e" />
<use x="147.066" y="151.694" xlink:href="#dot"  stroke="#0fc8e5" />
<use x="164.035" y="141.897" xlink:href="#dot"  stroke="#a6f5d9" />
<use x="131.735" y="160.546" xlink:href="#dot"  stroke="#f96d52" />
<use x="146.728" y="150.877" xlink:href="#dot"  stroke="#719bd9" />
<use x="165.654" y="145.805" xlink:href="#dot"  stroke="#1cf212" />
<use x="129.628" y="155.459" xlink:href="#dot"  stroke="#16ef1b" />
<use x="146.612" y="150" xlink:href="#dot"  stroke="#68a369" />
<use x="166.207" y="150" xlink:href="#dot"  stroke="#8dd22a" />
<use x="128.909" y="150" xlink:href="#dot"  stroke="#22a0ac" />
<use x="146.728" y="149.123" xlink:href="#dot"  stroke="#e9b11e" />
<use x="165.654" y="154.195" xlink:href="#dot"  stroke="#68c1e7" />
<use x="129.628" y="144.541" xlink:href="#dot"  stroke="#4f68de" />
<use x="147.066" y="148.306" xlink:href="#dot"  stroke="#29634c" />
<use x="164.035" y="158.103" xlink:href="#dot"  stroke="#7bd4e7" />
<use x="131.735" y="139.454" xlink:href="#dot"  stroke="#56f1db" />
<use x="147.605" y="147.605" xlink:href="#dot"  stroke="#6908cb" />
<use x="161.46" y="161.46" xlink:href="#dot"  stroke="#847170" />
<use x="135.086" y="135.086" xlink:href="#dot"  stroke="#eefe43" />
<use x="148.306" y="147.066" xlink:href="#dot"  stroke="#1921e3" />
<use x="158.103" y="164.035" xlink:href="#dot"  stroke="#c50c96" />
<use x="139.454" y="131.735" xlink:href="#dot"  stroke="#e47458" />
<use x="149.123" y="146.728" xlink:href="#dot"  stroke="#cdc4c1" />
<use x="154.195" y="165.654" xlink:href="#dot"  stroke="#aced25" />
<use x="144.541" y="129.628" xlink:href="#dot"  stroke="#f86afa" />
<use x="150" y="146.612" xlink:href="#dot"  stroke="#e1c0ec" />
<use x="150" y="166.207" xlink:href="#dot"  stroke="#be2bf5" />
<use x="150" y="128.909" xlink:href="#dot"  stroke="#8baf67" />
<use x="150.877" y="146.728" xlink:href="#dot"  stroke="#fc9f66" />
<use x="145.805" y="165.654" xlink:href="#dot"  stroke="#40b888" />
<use x="155.459" y="129.628" xlink:href="#dot"  stroke="#257f95" />
<use x="151.694" y="147.066" xlink:href="#dot"  stroke="#bb650b" />
<use x="141.897" y="164.035" xlink:href="#dot"  stroke="#1433cf" />
<use x="160.546" y="131.735" xlink:href="#dot"  stroke="#d6e0bd" />
<use x="152.395" y="147.605" xlink:href="#dot"  stroke="#fcda29" />
<use x="138.54" y="161.46" xlink:href="#dot"  stroke="#f7bce9" />
<use x="164.914" y="135.086" xlink:href="#dot"  stroke="#e57c15" />
<use x="152.934" y="148.306" xlink:href="#dot"  stroke="#db09c5" />
<use x="135.965" y="158.103" xlink:href="#dot"  stroke="#430665" />
<use x="168.265" y="139.454" xlink:href="#dot"  stroke="#aa471f" />
<use x="153.272" y="149.123" xlink:href="#dot"  stroke="#346c9e" />
<use x="134.346" y="154.195" xlink:href="#dot"  stroke="#c92804" />
<use x="170.372" y="144.541" xlink:href="#dot"  stroke="#d43d38" />
<use x="153.388" y="150" xlink:href="#dot"  stroke="#a41419" />
<use x="133.793" y="150" xlink:href="#dot"  stroke="#6311f3" />
<use x="171.091" y="150" xlink:href="#dot"  stroke="#8c0ab1" />
<use x="153.272" y="150.877" xlink:href="#dot"  stroke="#77ef2f" />
<use x="134.346" y="145.805" xlink:href="#dot"  stroke="#8dcb38" />
<use x="170.372" y="155.459" xlink:href="#dot"  stroke="#54103f" />
<use x="152.934" y="151.694" xlink:href="#dot"  stroke="#b9bb86" />
<use x="135.965" y="141.897" xlink:href="#dot"  stroke="#d8f0f2" />
<use x="168.265" y="160.546" xlink:href="#dot"  stroke="#78ba1b" />
<use x="152.395" y="152.395" xlink:href="#dot"  stroke="#7d9058" />
<use x="138.54" y="138.54" xlink:href="#dot"  stroke="#b5366d" />
<use x="164.914" y="164.914" xlink:href="#dot"  stroke="#ce9a7e" />
<use x="151.694" y="152.934" xlink:href="#dot"  stroke="#c32889" />
<use x="141.897" y="135.965" xlink:href="#dot"  stroke="#759f79" />
<use x="160.546" y="168.265" xlink:href="#dot"  stroke="#a42e46" />
<use x="150.877" y="153.272" xlink:href="#dot"  stroke="#dd8257" />
<use x="145.805" y="134.346" xlink:href="#dot"  stroke="#1d3d13" />
<use x="155.459" y="170.372" xlink:href="#dot"  stroke="#a41704" />
<use x="150" y="149.878" xlink:href="#dot"  stroke="#978fbf" />
<use x="150" y="136.672" xlink:href="#dot"  stroke="#b30e51" />
<use x="150" y="163.093" xlink:href="#dot"  stroke="#0dc388" />
<use x="150.042" y="149.885" xlink:href="#dot"  stroke="#7a9323" />
<use x="154.558" y="137.476" xlink:href="#dot"  stroke="#f9584c" />
<use x="145.522" y="162.303" xlink:href="#dot"  stroke="#83cdec" />
<use x="150.079" y="149.906" xlink:href="#dot"  stroke="#fc731b" />
<use x="158.567" y="139.79" xlink:href="#dot"  stroke="#44529e" />
<use x="141.584" y="160.029" xlink:href="#dot"  stroke="#9b6fdb" />
<use x="150.106" y="149.939" xlink:href="#dot"  stroke="#ae14f2" />
<use x="161.542" y="143.336" xlink:href="#dot"  stroke="#b3ac83" />
<use x="138.662" y="156.546" xlink:href="#dot"  stroke="#746091" />
<use x="150.121" y="149.979" xlink:href="#dot"  stroke="#c66d56" />
<use x="163.125" y="147.686" xlink:href="#dot"  stroke="#4fe8ea" />
<use x="137.106" y="152.273" xlink:href="#dot"  stroke="#73e243" />
<use x="150.121" y="150.021" xlink:href="#dot"  stroke="#bf6712" />
<use x="163.125" y="152.314" xlink:href="#dot"  stroke="#ac6585" />
<use x="137.106" y="147.727" xlink:href="#dot"  stroke="#c7a9d7" />
<use x="150.106" y="150.061" xlink:href="#dot"  stroke="#664548" />
<use x="161.542" y="156.664" xlink:href="#dot"  stroke="#42f45d" />
<use x="138.662" y="143.454" xlink:href="#dot"  stroke="#36a90a" />
<use x="150.079" y="150.094" xlink:href="#dot"  stroke="#ba1e6b" />
<use x="158.567" y="160.21" xlink:href="#dot"  stroke="#4ce4d9" />
<use x="141.584" y="139.971" xlink:href="#dot"  stroke="#a335c2" />
<use x="150.042" y="150.115" xlink:href="#dot"  stroke="#8ea8a6" />
<use x="154.558" y="162.524" xlink:href="#dot"  stroke="#d2680e" />
<use x="145.522" y="137.697" xlink:href="#dot"  stroke="#e41573" />
<use x="150" y="150.122" xlink:href="#dot"  stroke="#6bdc1e" />
<use x="150" y="163.328" xlink:href="#dot"  stroke="#444463" />
<use x="150" y="136.907" xlink:href="#dot"  stroke="#8c8759" />
<use x="149.958" y="150.115" xlink:href="#dot"  stroke="#eabd03" />
<use x="145.442" y="162.524" xlink:href="#dot"  stroke="#f57921" />
<use x="154.478" y="137.697" xlink:href="#dot"  stroke="#61c507" />
<use x="149.921" y="150.094" xlink:href="#dot"  stroke="#3c6a3c" />
<use x="141.433" y="160.21" xlink:href="#dot"  stroke="#fef9e4" />
<use x="158.416" y="139.971" xlink:href="#dot"  stroke="#a5cc4e" />
<use x="149.894" y="150.061" xlink:href="#dot"  stroke="#b4b263" />
<use x="138.458" y="156.664" xlink:href="#dot"  stroke="#291e41" />
<use x="161.338" y="143.454" xlink:href="#dot"  stroke="#476285" />
<use x="149.879" y="150.021" xlink:href="#dot"  stroke="#abef0e" />
<use x="136.875" y="152.314" xlink:href="#dot"  stroke="#05dbcc" />
<use x="162.894" y="147.727" xlink:href="#dot"  stroke="#09d146" />
<use x="149.879" y="149.979" xlink:href="#dot"  stroke="#2b340d" />
<use x="136.875" y="147.686" xlink:href="#dot"  stroke="#327077" />
<use x="162.894" y="152.273" xlink:href="#dot"  stroke="#6f7071" />
<use x="149.894" y="149.939" xlink:href="#dot"  stroke="#55173f" />
<use x="138.458" y="143.336" xlink:href="#dot"  stroke="#a3cbf1" />
<use x="161.338" y="156.546" xlink:href="#dot"  stroke="#08f510" />
<use x="149.921" y="149.906" xlink:href="#dot"  stroke="#493e73" />
<use x="141.433" y="139.79" xlink:href="#dot"  stroke="#cfe964" />
<use x="158.416" y="160.029" xlink:href="#dot"  stroke="#deef41" />
<use x="149.958" y="149.885" xlink:href="#dot"  stroke="#abf813" />
<use x="145.442" y="137.476" xlink:href="#dot"  stroke="#f12448" />
<use x="154.478" y="162.303" xlink:href="#dot"  stroke="#fe57b8" />
<use x="150" y="150.157" xlink:href="#dot"  stroke="#77c629" />
<use x="150" y="143.496" xlink:href="#dot"  stroke="#e91d40" />
<use x="150" y="157.205" xlink:href="#dot"  stroke="#29c10d" />
<use x="149.922" y="150.136" xlink:href="#dot"  stroke="#1bc903" />
<use x="153.252" y="144.367" xlink:href="#dot"  stroke="#2c1441" />
<use x="146.398" y="156.24" xlink:href="#dot"  stroke="#a0e42c" />
<use x="149.864" y="150.078" xlink:href="#dot"  stroke="#06c31c" />
<use x="155.633" y="146.748" xlink:href="#dot"  stroke="#476f16" />
<use x="143.76" y="153.602" xlink:href="#dot"  stroke="#5b623b" />
<use x="149.843" y="150" xlink:href="#dot"  stroke="#a46292" />
<use x="156.504" y="150" xlink:href="#dot"  stroke="#5dd95a" />
<use x="142.795" y="150" xlink:href="#dot"  stroke="#87c377" />
<use x="149.864" y="149.922" xlink:href="#dot"  stroke="#c8ed3a" />
<use x="155.633" y="153.252" xlink:href="#dot"  stroke="#d50a04" />
<use x="143.76" y="146.398" xlink:href="#dot"  stroke="#d93718" />
<use x="149.922" y="149.864" xlink:href="#dot"  stroke="#1bd7fc" />
<use x="153.252" y="155.633" xlink:href="#dot"  stroke="#48dec1" />
<use x="146.398" y="143.76" xlink:href="#dot"  stroke="#642731" />
<use x="150" y="149.843" xlink:href="#dot"  stroke="#7b8394" />
<use x="150" y="156.504" xlink:href="#dot"  stroke="#b628f6" />
<use x="150" y="142.795" xlink:href="#dot"  stroke="#4986d1" />
<use x="150.078" y="149.864" xlink:href="#dot"  stroke="#a40e96" />
<use x="146.748" y="155.633" xlink:href="#dot"  stroke="#1dd684" />
<use x="153.602" y="143.76" xlink:href="#dot"  stroke="#57ad8e" />
<use x="150.136" y="149.922" xlink:href="#dot"  stroke="#5b87c6" />
<use x="144.367" y="153.252" xlink:href="#dot"  stroke="#74a39f" />
<use x="156.24" y="146.398" xlink:href="#dot"  stroke="#72eb7e" />
<use x="150.157" y="150" xlink:href="#dot"  stroke="#3451a6" />
<use x="143.496" y="150" xlink:href="#dot"  stroke="#66cc2a" />
<use x="157.205" y="150" xlink:href="#dot"  stroke="#fb8353" />
<use x="150.136" y="150.078" xlink:href="#dot"  stroke="#f2cdd9" />
<use x="144.367" y="146.748" xlink:href="#dot"  stroke="#c473e7" />
<use x="156.24" y="153.602" xlink:href="#dot"  stroke="#5b90bf" />
<use x="150.078" y="150.136" xlink:href="#dot"  stroke="#e0e76d" />
<use x="146.748" y="144.367" xlink:href="#dot"  stroke="#7044f5" />
<use x="153.602" y="156.24" xlink:href="#dot"  stroke="#37b999" />
</svg>
