<?xml version="1.0" standalone="no"?>
<svg width="800px" height="400px" version="1.1" xmlns="http://www.w3.org/2000/svg" xmlns:xlink="http://www.w3.org/1999/xlink">
<rect x="0" y="0" width="800" height="400"  fill="#ffffff" />
<defs>
<g id="dot">
<line x1="1" y1="1" x2="0" y2="0"  />
</g>
<g id="cross">
<line x1="-3" y1="0" x2="3" y2="0"  />
<line x1="0" y1="-3" x2="0" y2="3"  />
</g>
<g id="square">
<line x1="-3" y1="-3" x2="-3" y2="3"  />
<line x1="-3" y1="3" x2="3" y2="3"  />
<line x1="3" y1="3" x2="3" y2="-3"  />
<line x1="3" y1="-3" x2="-3" y2="-3"  />
</g>
<g id="round">
<ellipse cx="0" cy="0" rx="3" ry="3"  fill="none" /></g>
<g id="triangle">
<line x1="0" y1="-3" x2="-3" y2="3"  />
<line x1="-3" y1="3" x2="3" y2="3"  />
<line x1="0" y1="-3" x2="3" y2="3"  />
</g>
</defs>
<line x1="265.796" y1="200" x2="534.204" y2="200"  stroke="#7f7f7f" />
<g><title>element</title>
<g>
<line x1="331.97" y1="166.823" x2="331.97" y2="133.646"  stroke="#7f7fff" />
<line x1="331.97" y1="233.177" x2="331.97" y2="266.354"  stroke="#7f7fff" />
</g>
<g>
<polyline fill="none" stroke="#7f7fff" points="275.077,146.833 274.694,147.907 274.321,148.981 273.956,150.055 273.6,151.129 273.252,152.203 272.913,153.277 272.582,154.351 272.259,155.425 271.945,156.5 271.64,157.574 271.342,158.648 271.053,159.722 270.772,160.796 270.499,161.87 270.234,162.944 269.977,164.018 269.728,165.092 269.486,166.166 269.253,167.24 269.028,168.314 268.81,169.389 268.601,170.463 268.399,171.537 268.204,172.611 268.018,173.685 267.839,174.759 267.668,175.833 267.504,176.907 267.348,177.981 267.2,179.055 267.059,180.129 266.926,181.203 266.8,182.278 266.681,183.352 266.571,184.426 266.467,185.5 266.371,186.574 266.283,187.648 266.202,188.722 266.128,189.796 266.062,190.87 266.003,191.944 265.951,193.018 265.907,194.093 265.87,195.167 265.841,196.241 265.819,197.315 265.804,198.389 265.797,199.463 265.797,200.537 265.804,201.611 265.819,202.685 265.841,203.759 265.87,204.833 265.907,205.907 265.951,206.982 266.003,208.056 266.062,209.13 266.128,210.204 266.202,211.278 266.283,212.352 266.371,213.426 266.467,214.5 266.571,215.574 266.681,216.648 266.8,217.722 266.926,218.797 267.059,219.871 267.2,220.945 267.348,222.019 267.504,223.093 267.668,224.167 267.839,225.241 268.018,226.315 268.204,227.389 268.399,228.463 268.601,229.537 268.81,230.611 269.028,231.686 269.253,232.76 269.486,233.834 269.728,234.908 269.977,235.982 270.234,237.056 270.499,238.13 270.772,239.204 271.053,240.278 271.342,241.352 271.64,242.426 271.945,243.5 272.259,244.575 272.582,245.649 272.913,246.723 273.252,247.797 273.6,248.871 273.956,249.945 274.321,251.019 274.694,252.093 275.077,253.167 " />
<line x1="282.18" y1="146.833" x2="282.18" y2="150.287"  stroke="#7f7fff" />
<line x1="275.077" y1="146.833" x2="282.18" y2="146.833"  stroke="#7f7fff" />
<line x1="282.18" y1="253.167" x2="282.18" y2="249.713"  stroke="#7f7fff" />
<line x1="275.077" y1="253.167" x2="282.18" y2="253.167"  stroke="#7f7fff" />
<polyline fill="none" stroke="#7f7fff" points="282.18,150.287 282.111,151.291 282.043,152.295 281.977,153.3 281.912,154.304 281.849,155.308 281.787,156.312 281.726,157.317 281.667,158.321 281.61,159.325 281.553,160.33 281.498,161.334 281.445,162.338 281.393,163.343 281.342,164.347 281.293,165.351 281.245,166.356 281.199,167.36 281.154,168.364 281.11,169.369 281.068,170.373 281.027,171.377 280.988,172.381 280.95,173.386 280.913,174.39 280.878,175.394 280.844,176.399 280.812,177.403 280.781,178.407 280.752,179.412 280.724,180.416 280.697,181.42 280.672,182.425 280.648,183.429 280.625,184.433 280.604,185.437 280.584,186.442 280.566,187.446 280.549,188.45 280.534,189.455 280.52,190.459 280.507,191.463 280.496,192.468 280.486,193.472 280.478,194.476 280.471,195.481 280.465,196.485 280.461,197.489 280.458,198.494 280.457,199.498 280.457,200.502 280.458,201.506 280.461,202.511 280.465,203.515 280.471,204.519 280.478,205.524 280.486,206.528 280.496,207.532 280.507,208.537 280.52,209.541 280.534,210.545 280.549,211.55 280.566,212.554 280.584,213.558 280.604,214.563 280.625,215.567 280.648,216.571 280.672,217.575 280.697,218.58 280.724,219.584 280.752,220.588 280.781,221.593 280.812,222.597 280.844,223.601 280.878,224.606 280.913,225.61 280.95,226.614 280.988,227.619 281.027,228.623 281.068,229.627 281.11,230.631 281.154,231.636 281.199,232.64 281.245,233.644 281.293,234.649 281.342,235.653 281.393,236.657 281.445,237.662 281.498,238.666 281.553,239.67 281.61,240.675 281.667,241.679 281.726,242.683 281.787,243.688 281.849,244.692 281.912,245.696 281.977,246.7 282.043,247.705 282.111,248.709 282.18,249.713 " />
</g>
<g>
<polyline fill="none" stroke="#7f7fff" points="295.471,155.872 294.837,156.763 294.221,157.655 293.624,158.546 293.046,159.437 292.485,160.329 291.941,161.22 291.414,162.112 290.903,163.003 290.408,163.895 289.929,164.786 289.465,165.678 289.016,166.569 288.582,167.461 288.162,168.352 287.757,169.244 287.365,170.135 286.986,171.027 286.622,171.918 286.27,172.81 285.931,173.701 285.606,174.593 285.292,175.484 284.992,176.376 284.704,177.267 284.427,178.159 284.163,179.05 283.911,179.942 283.671,180.833 283.442,181.725 283.225,182.616 283.019,183.508 282.825,184.399 282.641,185.291 282.47,186.182 282.309,187.073 282.159,187.965 282.02,188.856 281.892,189.748 281.775,190.639 281.669,191.531 281.573,192.422 281.489,193.314 281.414,194.205 281.351,195.097 281.298,195.988 281.256,196.88 281.224,197.771 281.203,198.663 281.193,199.554 281.193,200.446 281.203,201.337 281.224,202.229 281.256,203.12 281.298,204.012 281.351,204.903 281.414,205.795 281.489,206.686 281.573,207.578 281.669,208.469 281.775,209.361 281.892,210.252 282.02,211.144 282.159,212.035 282.309,212.927 282.47,213.818 282.641,214.709 282.825,215.601 283.019,216.492 283.225,217.384 283.442,218.275 283.671,219.167 283.911,220.058 284.163,220.95 284.427,221.841 284.704,222.733 284.992,223.624 285.292,224.516 285.606,225.407 285.931,226.299 286.27,227.19 286.622,228.082 286.986,228.973 287.365,229.865 287.757,230.756 288.162,231.648 288.582,232.539 289.016,233.431 289.465,234.322 289.929,235.214 290.408,236.105 290.903,236.997 291.414,237.888 291.941,238.78 292.485,239.671 293.046,240.563 293.624,241.454 294.221,242.345 294.837,243.237 295.471,244.128 " />
<line x1="307.573" y1="155.872" x2="307.573" y2="160.52"  stroke="#7f7fff" />
<line x1="295.471" y1="155.872" x2="307.573" y2="155.872"  stroke="#7f7fff" />
<line x1="307.573" y1="244.128" x2="307.573" y2="239.48"  stroke="#7f7fff" />
<line x1="295.471" y1="244.128" x2="307.573" y2="244.128"  stroke="#7f7fff" />
<polyline fill="none" stroke="#7f7fff" points="307.573,160.52 307.573,161.317 307.573,162.115 307.573,162.912 307.573,163.71 307.573,164.507 307.573,165.305 307.573,166.103 307.573,166.9 307.573,167.698 307.573,168.495 307.573,169.293 307.573,170.091 307.573,170.888 307.573,171.686 307.573,172.483 307.573,173.281 307.573,174.078 307.573,174.876 307.573,175.674 307.573,176.471 307.573,177.269 307.573,178.066 307.573,178.864 307.573,179.662 307.573,180.459 307.573,181.257 307.573,182.054 307.573,182.852 307.573,183.65 307.573,184.447 307.573,185.245 307.573,186.042 307.573,186.84 307.573,187.637 307.573,188.435 307.573,189.233 307.573,190.03 307.573,190.828 307.573,191.625 307.573,192.423 307.573,193.221 307.573,194.018 307.573,194.816 307.573,195.613 307.573,196.411 307.573,197.208 307.573,198.006 307.573,198.804 307.573,199.601 307.573,200.399 307.573,201.196 307.573,201.994 307.573,202.792 307.573,203.589 307.573,204.387 307.573,205.184 307.573,205.982 307.573,206.779 307.573,207.577 307.573,208.375 307.573,209.172 307.573,209.97 307.573,210.767 307.573,211.565 307.573,212.363 307.573,213.16 307.573,213.958 307.573,214.755 307.573,215.553 307.573,216.35 307.573,217.148 307.573,217.946 307.573,218.743 307.573,219.541 307.573,220.338 307.573,221.136 307.573,221.934 307.573,222.731 307.573,223.529 307.573,224.326 307.573,225.124 307.573,225.922 307.573,226.719 307.573,227.517 307.573,228.314 307.573,229.112 307.573,229.909 307.573,230.707 307.573,231.505 307.573,232.302 307.573,233.1 307.573,233.897 307.573,234.695 307.573,235.493 307.573,236.29 307.573,237.088 307.573,237.885 307.573,238.683 307.573,239.48 " />
<line x1="323.941" y1="160.52" x2="323.941" y2="166.215"  stroke="#7f7fff" />
<line x1="307.573" y1="160.52" x2="323.941" y2="160.52"  stroke="#7f7fff" />
<line x1="323.941" y1="239.48" x2="323.941" y2="233.785"  stroke="#7f7fff" />
<line x1="307.573" y1="239.48" x2="323.941" y2="239.48"  stroke="#7f7fff" />
<polyline fill="none" stroke="#7f7fff" points="323.941,166.215 323.417,166.897 322.909,167.58 322.417,168.262 321.941,168.945 321.481,169.627 321.035,170.31 320.603,170.992 320.185,171.675 319.78,172.358 319.389,173.04 319.011,173.723 318.645,174.405 318.291,175.088 317.949,175.77 317.62,176.453 317.301,177.135 316.994,177.818 316.698,178.5 316.413,179.183 316.139,179.865 315.875,180.548 315.621,181.23 315.378,181.913 315.145,182.595 314.922,183.278 314.708,183.961 314.504,184.643 314.31,185.326 314.126,186.008 313.951,186.691 313.785,187.373 313.628,188.056 313.48,188.738 313.342,189.421 313.212,190.103 313.091,190.786 312.98,191.468 312.877,192.151 312.782,192.833 312.697,193.516 312.62,194.198 312.552,194.881 312.492,195.564 312.441,196.246 312.399,196.929 312.365,197.611 312.339,198.294 312.322,198.976 312.314,199.659 312.314,200.341 312.322,201.024 312.339,201.706 312.365,202.389 312.399,203.071 312.441,203.754 312.492,204.436 312.552,205.119 312.62,205.802 312.697,206.484 312.782,207.167 312.877,207.849 312.98,208.532 313.091,209.214 313.212,209.897 313.342,210.579 313.48,211.262 313.628,211.944 313.785,212.627 313.951,213.309 314.126,213.992 314.31,214.674 314.504,215.357 314.708,216.039 314.922,216.722 315.145,217.405 315.378,218.087 315.621,218.77 315.875,219.452 316.139,220.135 316.413,220.817 316.698,221.5 316.994,222.182 317.301,222.865 317.62,223.547 317.949,224.23 318.291,224.912 318.645,225.595 319.011,226.277 319.389,226.96 319.78,227.642 320.185,228.325 320.603,229.008 321.035,229.69 321.481,230.373 321.941,231.055 322.417,231.738 322.909,232.42 323.417,233.103 323.941,233.785 " />
</g>
<g>
<polyline fill="none" stroke="#7f7fff" points="349.532,167.85 349.994,168.499 350.442,169.149 350.877,169.798 351.298,170.448 351.707,171.097 352.103,171.747 352.486,172.396 352.858,173.046 353.219,173.695 353.568,174.345 353.906,174.994 354.232,175.644 354.549,176.293 354.854,176.943 355.15,177.592 355.435,178.242 355.711,178.891 355.977,179.541 356.233,180.19 356.479,180.84 356.717,181.489 356.945,182.139 357.164,182.788 357.374,183.438 357.575,184.087 357.767,184.737 357.951,185.386 358.126,186.036 358.292,186.685 358.451,187.335 358.6,187.984 358.742,188.634 358.875,189.283 359.001,189.933 359.118,190.582 359.227,191.232 359.328,191.881 359.421,192.531 359.506,193.18 359.584,193.83 359.653,194.479 359.715,195.129 359.769,195.778 359.815,196.428 359.854,197.077 359.885,197.727 359.908,198.376 359.923,199.026 359.931,199.675 359.931,200.325 359.923,200.974 359.908,201.624 359.885,202.273 359.854,202.923 359.815,203.572 359.769,204.222 359.715,204.871 359.653,205.521 359.584,206.17 359.506,206.82 359.421,207.469 359.328,208.119 359.227,208.768 359.118,209.418 359.001,210.067 358.875,210.717 358.742,211.366 358.6,212.016 358.451,212.665 358.292,213.315 358.126,213.964 357.951,214.614 357.767,215.263 357.575,215.913 357.374,216.562 357.164,217.212 356.945,217.861 356.717,218.511 356.479,219.16 356.233,219.81 355.977,220.459 355.711,221.109 355.435,221.758 355.15,222.408 354.854,223.057 354.549,223.707 354.232,224.356 353.906,225.006 353.568,225.655 353.219,226.305 352.858,226.954 352.486,227.604 352.103,228.253 351.707,228.903 351.298,229.552 350.877,230.202 350.442,230.851 349.994,231.501 349.532,232.15 " />
<line x1="349.532" y1="164.598" x2="349.532" y2="167.85"  stroke="#7f7fff" />
<line x1="349.532" y1="164.598" x2="363.606" y2="164.598"  stroke="#7f7fff" />
<line x1="349.532" y1="235.402" x2="349.532" y2="232.15"  stroke="#7f7fff" />
<line x1="349.532" y1="235.402" x2="363.606" y2="235.402"  stroke="#7f7fff" />
<polyline fill="none" stroke="#7f7fff" points="363.606,164.598 363.606,165.313 363.606,166.028 363.606,166.744 363.606,167.459 363.606,168.174 363.606,168.889 363.606,169.604 363.606,170.32 363.606,171.035 363.606,171.75 363.606,172.465 363.606,173.18 363.606,173.896 363.606,174.611 363.606,175.326 363.606,176.041 363.606,176.756 363.606,177.471 363.606,178.187 363.606,178.902 363.606,179.617 363.606,180.332 363.606,181.047 363.606,181.763 363.606,182.478 363.606,183.193 363.606,183.908 363.606,184.623 363.606,185.339 363.606,186.054 363.606,186.769 363.606,187.484 363.606,188.199 363.606,188.915 363.606,189.63 363.606,190.345 363.606,191.06 363.606,191.775 363.606,192.49 363.606,193.206 363.606,193.921 363.606,194.636 363.606,195.351 363.606,196.066 363.606,196.782 363.606,197.497 363.606,198.212 363.606,198.927 363.606,199.642 363.606,200.358 363.606,201.073 363.606,201.788 363.606,202.503 363.606,203.218 363.606,203.934 363.606,204.649 363.606,205.364 363.606,206.079 363.606,206.794 363.606,207.51 363.606,208.225 363.606,208.94 363.606,209.655 363.606,210.37 363.606,211.085 363.606,211.801 363.606,212.516 363.606,213.231 363.606,213.946 363.606,214.661 363.606,215.377 363.606,216.092 363.606,216.807 363.606,217.522 363.606,218.237 363.606,218.953 363.606,219.668 363.606,220.383 363.606,221.098 363.606,221.813 363.606,222.529 363.606,223.244 363.606,223.959 363.606,224.674 363.606,225.389 363.606,226.104 363.606,226.82 363.606,227.535 363.606,228.25 363.606,228.965 363.606,229.68 363.606,230.396 363.606,231.111 363.606,231.826 363.606,232.541 363.606,233.256 363.606,233.972 363.606,234.687 363.606,235.402 " />
<line x1="363.606" y1="162.559" x2="363.606" y2="164.598"  stroke="#7f7fff" />
<line x1="363.606" y1="162.559" x2="372.821" y2="162.559"  stroke="#7f7fff" />
<line x1="363.606" y1="237.441" x2="363.606" y2="235.402"  stroke="#7f7fff" />
<line x1="363.606" y1="237.441" x2="372.821" y2="237.441"  stroke="#7f7fff" />
<polyline fill="none" stroke="#7f7fff" points="372.821,162.559 373.249,163.315 373.665,164.072 374.07,164.828 374.464,165.584 374.847,166.341 375.219,167.097 375.582,167.854 375.933,168.61 376.275,169.366 376.607,170.123 376.929,170.879 377.241,171.635 377.544,172.392 377.837,173.148 378.121,173.905 378.396,174.661 378.662,175.417 378.918,176.174 379.166,176.93 379.405,177.687 379.635,178.443 379.857,179.199 380.07,179.956 380.274,180.712 380.471,181.468 380.658,182.225 380.838,182.981 381.009,183.738 381.173,184.494 381.328,185.25 381.475,186.007 381.614,186.763 381.745,187.52 381.868,188.276 381.983,189.032 382.091,189.789 382.19,190.545 382.282,191.302 382.366,192.058 382.442,192.814 382.511,193.571 382.572,194.327 382.625,195.083 382.671,195.84 382.709,196.596 382.739,197.353 382.762,198.109 382.777,198.865 382.785,199.622 382.785,200.378 382.777,201.135 382.762,201.891 382.739,202.647 382.709,203.404 382.671,204.16 382.625,204.917 382.572,205.673 382.511,206.429 382.442,207.186 382.366,207.942 382.282,208.698 382.19,209.455 382.091,210.211 381.983,210.968 381.868,211.724 381.745,212.48 381.614,213.237 381.475,213.993 381.328,214.75 381.173,215.506 381.009,216.262 380.838,217.019 380.658,217.775 380.471,218.532 380.274,219.288 380.07,220.044 379.857,220.801 379.635,221.557 379.405,222.313 379.166,223.07 378.918,223.826 378.662,224.583 378.396,225.339 378.121,226.095 377.837,226.852 377.544,227.608 377.241,228.365 376.929,229.121 376.607,229.877 376.275,230.634 375.933,231.39 375.582,232.146 375.219,232.903 374.847,233.659 374.464,234.416 374.07,235.172 373.665,235.928 373.249,236.685 372.821,237.441 " />
</g>
<g>
<polyline fill="none" stroke="#7f7fff" points="383.521,157.819 383.521,158.671 383.521,159.523 383.521,160.375 383.521,161.228 383.521,162.08 383.521,162.932 383.521,163.784 383.521,164.636 383.521,165.488 383.521,166.34 383.521,167.193 383.521,168.045 383.521,168.897 383.521,169.749 383.521,170.601 383.521,171.453 383.521,172.305 383.521,173.158 383.521,174.01 383.521,174.862 383.521,175.714 383.521,176.566 383.521,177.418 383.521,178.27 383.521,179.123 383.521,179.975 383.521,180.827 383.521,181.679 383.521,182.531 383.521,183.383 383.521,184.235 383.521,185.088 383.521,185.94 383.521,186.792 383.521,187.644 383.521,188.496 383.521,189.348 383.521,190.2 383.521,191.053 383.521,191.905 383.521,192.757 383.521,193.609 383.521,194.461 383.521,195.313 383.521,196.165 383.521,197.018 383.521,197.87 383.521,198.722 383.521,199.574 383.521,200.426 383.521,201.278 383.521,202.13 383.521,202.982 383.521,203.835 383.521,204.687 383.521,205.539 383.521,206.391 383.521,207.243 383.521,208.095 383.521,208.947 383.521,209.8 383.521,210.652 383.521,211.504 383.521,212.356 383.521,213.208 383.521,214.06 383.521,214.912 383.521,215.765 383.521,216.617 383.521,217.469 383.521,218.321 383.521,219.173 383.521,220.025 383.521,220.877 383.521,221.73 383.521,222.582 383.521,223.434 383.521,224.286 383.521,225.138 383.521,225.99 383.521,226.842 383.521,227.695 383.521,228.547 383.521,229.399 383.521,230.251 383.521,231.103 383.521,231.955 383.521,232.807 383.521,233.66 383.521,234.512 383.521,235.364 383.521,236.216 383.521,237.068 383.521,237.92 383.521,238.772 383.521,239.625 383.521,240.477 383.521,241.329 383.521,242.181 " />
<line x1="383.521" y1="155.963" x2="383.521" y2="157.819"  stroke="#7f7fff" />
<line x1="383.521" y1="155.963" x2="390.774" y2="155.963"  stroke="#7f7fff" />
<line x1="383.521" y1="244.037" x2="383.521" y2="242.181"  stroke="#7f7fff" />
<line x1="383.521" y1="244.037" x2="390.774" y2="244.037"  stroke="#7f7fff" />
<polyline fill="none" stroke="#7f7fff" points="390.774,155.963 391.031,156.853 391.282,157.743 391.528,158.632 391.769,159.522 392.003,160.412 392.233,161.301 392.456,162.191 392.674,163.08 392.887,163.97 393.094,164.86 393.296,165.749 393.492,166.639 393.683,167.529 393.868,168.418 394.048,169.308 394.223,170.197 394.392,171.087 394.557,171.977 394.715,172.866 394.869,173.756 395.017,174.646 395.16,175.535 395.298,176.425 395.431,177.314 395.558,178.204 395.68,179.094 395.797,179.983 395.909,180.873 396.016,181.763 396.117,182.652 396.214,183.542 396.305,184.432 396.391,185.321 396.472,186.211 396.548,187.1 396.619,187.99 396.684,188.88 396.745,189.769 396.801,190.659 396.851,191.549 396.897,192.438 396.937,193.328 396.972,194.217 397.003,195.107 397.028,195.997 397.048,196.886 397.063,197.776 397.073,198.666 397.078,199.555 397.078,200.445 397.073,201.334 397.063,202.224 397.048,203.114 397.028,204.003 397.003,204.893 396.972,205.783 396.937,206.672 396.897,207.562 396.851,208.451 396.801,209.341 396.745,210.231 396.684,211.12 396.619,212.01 396.548,212.9 396.472,213.789 396.391,214.679 396.305,215.568 396.214,216.458 396.117,217.348 396.016,218.237 395.909,219.127 395.797,220.017 395.68,220.906 395.558,221.796 395.431,222.686 395.298,223.575 395.16,224.465 395.017,225.354 394.869,226.244 394.715,227.134 394.557,228.023 394.392,228.913 394.223,229.803 394.048,230.692 393.868,231.582 393.683,232.471 393.492,233.361 393.296,234.251 393.094,235.14 392.887,236.03 392.674,236.92 392.456,237.809 392.233,238.699 392.003,239.588 391.769,240.478 391.528,241.368 391.282,242.257 391.031,243.147 390.774,244.037 " />
</g>
</g>
<g><title>element</title>
<polyline fill="none" stroke="#7f7fff" points="534.204,41.2698 534.204,44.4765 534.204,47.6832 534.204,50.8899 534.204,54.0965 534.204,57.3032 534.204,60.5099 534.204,63.7165 534.204,66.9232 534.204,70.1299 534.204,73.3365 534.204,76.5432 534.204,79.7499 534.204,82.9565 534.204,86.1632 534.204,89.3699 534.204,92.5766 534.204,95.7832 534.204,98.9899 534.204,102.197 534.204,105.403 534.204,108.61 534.204,111.817 534.204,115.023 534.204,118.23 534.204,121.437 534.204,124.643 534.204,127.85 534.204,131.057 534.204,134.263 534.204,137.47 534.204,140.677 534.204,143.883 534.204,147.09 534.204,150.297 534.204,153.503 534.204,156.71 534.204,159.917 534.204,163.123 534.204,166.33 534.204,169.537 534.204,172.743 534.204,175.95 534.204,179.157 534.204,182.363 534.204,185.57 534.204,188.777 534.204,191.983 534.204,195.19 534.204,198.397 534.204,201.603 534.204,204.81 534.204,208.017 534.204,211.223 534.204,214.43 534.204,217.637 534.204,220.843 534.204,224.05 534.204,227.257 534.204,230.463 534.204,233.67 534.204,236.877 534.204,240.083 534.204,243.29 534.204,246.497 534.204,249.703 534.204,252.91 534.204,256.117 534.204,259.323 534.204,262.53 534.204,265.737 534.204,268.943 534.204,272.15 534.204,275.357 534.204,278.563 534.204,281.77 534.204,284.977 534.204,288.183 534.204,291.39 534.204,294.597 534.204,297.803 534.204,301.01 534.204,304.217 534.204,307.423 534.204,310.63 534.204,313.837 534.204,317.043 534.204,320.25 534.204,323.457 534.204,326.663 534.204,329.87 534.204,333.077 534.204,336.283 534.204,339.49 534.204,342.697 534.204,345.903 534.204,349.11 534.204,352.317 534.204,355.523 534.204,358.73 " />
</g>
<g><title>element</title>
</g>
<g><title>rays</title>
<g><title>ray</title>
<line x1="397.079" y1="200" x2="534.204" y2="200"  stroke="#008f31" />
<line x1="383.521" y1="200" x2="397.079" y2="200"  stroke="#ce957a" />
<line x1="382.786" y1="200" x2="383.521" y2="200"  stroke="#59e4d1" />
<line x1="363.606" y1="200" x2="382.786" y2="200"  stroke="#be2cdb" />
<line x1="359.932" y1="200" x2="363.606" y2="200"  stroke="#b5824d" />
<line x1="331.97" y1="200" x2="359.932" y2="200"  stroke="#03175c" />
<line x1="312.313" y1="200" x2="331.97" y2="200"  stroke="#252afc" />
<line x1="307.573" y1="200" x2="312.313" y2="200"  stroke="#711e01" />
<line x1="281.191" y1="200" x2="307.573" y2="200"  stroke="#026087" />
<line x1="280.456" y1="200" x2="281.191" y2="200"  stroke="#91999a" />
<line x1="265.796" y1="200" x2="280.456" y2="200"  stroke="#2aa972" />
<line x1="-3408.51" y1="200" x2="265.796" y2="200"  stroke="#590e9a" />
</g>
<g><title>ray</title>
<line x1="397.079" y1="200" x2="534.204" y2="200"  stroke="#c7cc84" />
<line x1="383.521" y1="200" x2="397.079" y2="200"  stroke="#4cdfb9" />
<line x1="382.786" y1="200" x2="383.521" y2="200"  stroke="#f3ec89" />
<line x1="363.606" y1="200" x2="382.786" y2="200"  stroke="#24753c" />
<line x1="359.932" y1="200" x2="363.606" y2="200"  stroke="#db35c6" />
<line x1="331.97" y1="200" x2="359.932" y2="200"  stroke="#d7fefe" />
<line x1="312.313" y1="200" x2="331.97" y2="200"  stroke="#9b6443" />
<line x1="307.573" y1="200" x2="312.313" y2="200"  stroke="#4bd606" />
<line x1="281.191" y1="200" x2="307.573" y2="200"  stroke="#5f17ac" />
<line x1="280.456" y1="200" x2="281.191" y2="200"  stroke="#0e02ea" />
<line x1="265.796" y1="200" x2="280.456" y2="200"  stroke="#464595" />
<line x1="-3408.51" y1="200" x2="265.796" y2="200"  stroke="#b0d5b9" />
</g>
<g><title>ray</title>
<line x1="397.079" y1="200" x2="534.204" y2="200"  stroke="#7b34bd" />
<line x1="383.521" y1="200" x2="397.079" y2="200"  stroke="#7774f2" />
<line x1="382.786" y1="200" x2="383.521" y2="200"  stroke="#bd1b98" />
<line x1="363.606" y1="200" x2="382.786" y2="200"  stroke="#62bb9b" />
<line x1="359.932" y1="200" x2="363.606" y2="200"  stroke="#915c26" />
<line x1="331.97" y1="200" x2="359.932" y2="200"  stroke="#396ccc" />
<line x1="312.313" y1="200" x2="331.97" y2="200"  stroke="#83fcbf" />
<line x1="307.573" y1="200" x2="312.313" y2="200"  stroke="#582ba7" />
<line x1="281.191" y1="200" x2="307.573" y2="200"  stroke="#7d10b2" />
<line x1="280.456" y1="200" x2="281.191" y2="200"  stroke="#8025f2" />
<line x1="265.796" y1="200" x2="280.456" y2="200"  stroke="#24e6b0" />
<line x1="-3408.51" y1="200" x2="265.796" y2="200"  stroke="#4d6c11" />
</g>
<g><title>ray</title>
<line x1="-3408.51" y1="146.886" x2="275.058" y2="146.886"  stroke="#f6ae27" />
</g>
<g><title>ray</title>
<line x1="-3408.51" y1="146.886" x2="275.058" y2="146.886"  stroke="#dfd194" />
</g>
<g><title>ray</title>
<line x1="-3408.51" y1="146.886" x2="275.058" y2="146.886"  stroke="#302dd0" />
</g>
<g><title>ray</title>
<line x1="-3408.51" y1="253.114" x2="275.058" y2="253.114"  stroke="#792780" />
</g>
<g><title>ray</title>
<line x1="-3408.51" y1="253.114" x2="275.058" y2="253.114"  stroke="#ba6747" />
</g>
<g><title>ray</title>
<line x1="-3408.51" y1="253.114" x2="275.058" y2="253.114"  stroke="#91adc0" />
</g>
<g><title>ray</title>
<line x1="273.254" y1="152.197" x2="281.973" y2="153.364"  stroke="#b8791f" />
<line x1="-3408.51" y1="152.197" x2="273.254" y2="152.197"  stroke="#5dd408" />
</g>
<g><title>ray</title>
<line x1="273.254" y1="152.197" x2="281.973" y2="153.357"  stroke="#83a96c" />
<line x1="-3408.51" y1="152.197" x2="273.254" y2="152.197"  stroke="#1af2ea" />
</g>
<g><title>ray</title>
<line x1="392.756" y1="163.42" x2="534.204" y2="199.948"  stroke="#8c5878" />
<line x1="383.521" y1="163.165" x2="392.756" y2="163.42"  stroke="#5fd750" />
<line x1="372.863" y1="162.633" x2="383.521" y2="163.165"  stroke="#7445fa" />
<line x1="363.606" y1="164.662" x2="372.863" y2="162.633"  stroke="#4bbc90" />
<line x1="349.635" y1="167.993" x2="363.606" y2="164.662"  stroke="#31c2d6" />
<line x1="331.97" y1="166.926" x2="349.635" y2="167.993"  stroke="#657fe2" />
<line x1="323.773" y1="166.431" x2="331.97" y2="166.926"  stroke="#07fd92" />
<line x1="307.573" y1="160.653" x2="323.773" y2="166.431"  stroke="#0c8731" />
<line x1="295.426" y1="155.935" x2="307.573" y2="160.653"  stroke="#d69fa7" />
<line x1="281.972" y1="153.38" x2="295.426" y2="155.935"  stroke="#32d61f" />
<line x1="273.254" y1="152.197" x2="281.972" y2="153.38"  stroke="#1cbd50" />
<line x1="-3408.51" y1="152.197" x2="273.254" y2="152.197"  stroke="#ef4855" />
</g>
<g><title>ray</title>
<line x1="273.254" y1="247.803" x2="281.973" y2="246.636"  stroke="#23bad4" />
<line x1="-3408.51" y1="247.803" x2="273.254" y2="247.803"  stroke="#b499be" />
</g>
<g><title>ray</title>
<line x1="273.254" y1="247.803" x2="281.973" y2="246.643"  stroke="#402400" />
<line x1="-3408.51" y1="247.803" x2="273.254" y2="247.803"  stroke="#0fcdd9" />
</g>
<g><title>ray</title>
<line x1="392.756" y1="236.58" x2="534.204" y2="200.052"  stroke="#351d8d" />
<line x1="383.521" y1="236.835" x2="392.756" y2="236.58"  stroke="#031d73" />
<line x1="372.863" y1="237.367" x2="383.521" y2="236.835"  stroke="#bfae8a" />
<line x1="363.606" y1="235.338" x2="372.863" y2="237.367"  stroke="#126f33" />
<line x1="349.635" y1="232.007" x2="363.606" y2="235.338"  stroke="#b14a6f" />
<line x1="331.97" y1="233.074" x2="349.635" y2="232.007"  stroke="#3b9387" />
<line x1="323.773" y1="233.569" x2="331.97" y2="233.074"  stroke="#a02880" />
<line x1="307.573" y1="239.347" x2="323.773" y2="233.569"  stroke="#f5b1eb" />
<line x1="295.426" y1="244.065" x2="307.573" y2="239.347"  stroke="#30552d" />
<line x1="281.972" y1="246.62" x2="295.426" y2="244.065"  stroke="#fd74fe" />
<line x1="273.254" y1="247.803" x2="281.972" y2="246.62"  stroke="#189f18" />
<line x1="-3408.51" y1="247.803" x2="273.254" y2="247.803"  stroke="#6fed0c" />
</g>
<g><title>ray</title>
<line x1="393.776" y1="167.972" x2="534.204" y2="200.051"  stroke="#e44939" />
<line x1="383.521" y1="167.672" x2="393.776" y2="167.972"  stroke="#c46833" />
<line x1="375.288" y1="167.239" x2="383.521" y2="167.672"  stroke="#a09a73" />
<line x1="363.606" y1="169.34" x2="375.288" y2="167.239"  stroke="#7698a1" />
<line x1="352.018" y1="171.607" x2="363.606" y2="169.34"  stroke="#d9d39f" />
<line x1="331.97" y1="170.413" x2="352.018" y2="171.607"  stroke="#b7905f" />
<line x1="321.378" y1="169.782" x2="331.97" y2="170.413"  stroke="#2ebc8d" />
<line x1="307.573" y1="165.509" x2="321.378" y2="169.782"  stroke="#e63d30" />
<line x1="292.415" y1="160.441" x2="307.573" y2="165.509"  stroke="#9ab295" />
<line x1="281.646" y1="158.687" x2="292.415" y2="160.441"  stroke="#597e14" />
<line x1="271.658" y1="157.509" x2="281.646" y2="158.687"  stroke="#bc9c9e" />
<line x1="-3408.51" y1="157.509" x2="271.658" y2="157.509"  stroke="#b0cd26" />
</g>
<g><title>ray</title>
<line x1="393.774" y1="167.964" x2="534.204" y2="200.023"  stroke="#92dde8" />
<line x1="383.521" y1="167.658" x2="393.774" y2="167.964"  stroke="#9cb90b" />
<line x1="375.278" y1="167.218" x2="383.521" y2="167.658"  stroke="#aaf950" />
<line x1="363.606" y1="169.304" x2="375.278" y2="167.218"  stroke="#914d2c" />
<line x1="351.992" y1="171.564" x2="363.606" y2="169.304"  stroke="#1bddd9" />
<line x1="331.97" y1="170.363" x2="351.992" y2="171.564"  stroke="#bd2753" />
<line x1="321.413" y1="169.73" x2="331.97" y2="170.363"  stroke="#1413a3" />
<line x1="307.573" y1="165.456" x2="321.413" y2="169.73"  stroke="#d18a72" />
<line x1="292.429" y1="160.418" x2="307.573" y2="165.456"  stroke="#684c76" />
<line x1="281.646" y1="158.68" x2="292.429" y2="160.418"  stroke="#7f2652" />
<line x1="271.658" y1="157.509" x2="281.646" y2="158.68"  stroke="#bc50d2" />
<line x1="-3408.51" y1="157.509" x2="271.658" y2="157.509"  stroke="#f4deb8" />
</g>
<g><title>ray</title>
<line x1="393.775" y1="167.97" x2="534.204" y2="200.052"  stroke="#4cf020" />
<line x1="383.521" y1="167.686" x2="393.775" y2="167.97"  stroke="#10c885" />
<line x1="375.305" y1="167.275" x2="383.521" y2="167.686"  stroke="#9bf312" />
<line x1="363.606" y1="169.413" x2="375.305" y2="167.275"  stroke="#dfa652" />
<line x1="352.075" y1="171.701" x2="363.606" y2="169.413"  stroke="#1a8039" />
<line x1="331.97" y1="170.529" x2="352.075" y2="171.701"  stroke="#4aea8c" />
<line x1="321.296" y1="169.907" x2="331.97" y2="170.529"  stroke="#a91d7d" />
<line x1="307.573" y1="165.635" x2="321.296" y2="169.907"  stroke="#607eca" />
<line x1="292.381" y1="160.497" x2="307.573" y2="165.635"  stroke="#8161af" />
<line x1="281.645" y1="158.704" x2="292.381" y2="160.497"  stroke="#879a64" />
<line x1="271.658" y1="157.509" x2="281.645" y2="158.704"  stroke="#01b419" />
<line x1="-3408.51" y1="157.509" x2="271.658" y2="157.509"  stroke="#9edc7d" />
</g>
<g><title>ray</title>
<line x1="393.776" y1="232.028" x2="534.204" y2="199.949"  stroke="#be7e60" />
<line x1="383.521" y1="232.328" x2="393.776" y2="232.028"  stroke="#c88c5b" />
<line x1="375.288" y1="232.761" x2="383.521" y2="232.328"  stroke="#f3a02d" />
<line x1="363.606" y1="230.66" x2="375.288" y2="232.761"  stroke="#5f21bd" />
<line x1="352.018" y1="228.393" x2="363.606" y2="230.66"  stroke="#f29c07" />
<line x1="331.97" y1="229.587" x2="352.018" y2="228.393"  stroke="#540ea2" />
<line x1="321.378" y1="230.218" x2="331.97" y2="229.587"  stroke="#21d8dc" />
<line x1="307.573" y1="234.491" x2="321.378" y2="230.218"  stroke="#98b8d9" />
<line x1="292.415" y1="239.559" x2="307.573" y2="234.491"  stroke="#0320b4" />
<line x1="281.646" y1="241.313" x2="292.415" y2="239.559"  stroke="#9d3710" />
<line x1="271.658" y1="242.491" x2="281.646" y2="241.313"  stroke="#2b9f56" />
<line x1="-3408.51" y1="242.491" x2="271.658" y2="242.491"  stroke="#515da8" />
</g>
<g><title>ray</title>
<line x1="393.774" y1="232.036" x2="534.204" y2="199.977"  stroke="#cccd86" />
<line x1="383.521" y1="232.342" x2="393.774" y2="232.036"  stroke="#9bcbe5" />
<line x1="375.278" y1="232.782" x2="383.521" y2="232.342"  stroke="#24a066" />
<line x1="363.606" y1="230.696" x2="375.278" y2="232.782"  stroke="#4022da" />
<line x1="351.992" y1="228.436" x2="363.606" y2="230.696"  stroke="#106d92" />
<line x1="331.97" y1="229.637" x2="351.992" y2="228.436"  stroke="#4d8b39" />
<line x1="321.413" y1="230.27" x2="331.97" y2="229.637"  stroke="#4f1cce" />
<line x1="307.573" y1="234.544" x2="321.413" y2="230.27"  stroke="#2248c8" />
<line x1="292.429" y1="239.582" x2="307.573" y2="234.544"  stroke="#e4c9bd" />
<line x1="281.646" y1="241.32" x2="292.429" y2="239.582"  stroke="#9c5cda" />
<line x1="271.658" y1="242.491" x2="281.646" y2="241.32"  stroke="#3adc3a" />
<line x1="-3408.51" y1="242.491" x2="271.658" y2="242.491"  stroke="#3f8afb" />
</g>
<g><title>ray</title>
<line x1="393.775" y1="232.03" x2="534.204" y2="199.948"  stroke="#0d1485" />
<line x1="383.521" y1="232.314" x2="393.775" y2="232.03"  stroke="#6c1841" />
<line x1="375.305" y1="232.725" x2="383.521" y2="232.314"  stroke="#e33b25" />
<line x1="363.606" y1="230.587" x2="375.305" y2="232.725"  stroke="#1fed14" />
<line x1="352.075" y1="228.299" x2="363.606" y2="230.587"  stroke="#0c0e55" />
<line x1="331.97" y1="229.471" x2="352.075" y2="228.299"  stroke="#e9656e" />
<line x1="321.296" y1="230.093" x2="331.97" y2="229.471"  stroke="#f1d588" />
<line x1="307.573" y1="234.365" x2="321.296" y2="230.093"  stroke="#d6b065" />
<line x1="292.381" y1="239.503" x2="307.573" y2="234.365"  stroke="#420186" />
<line x1="281.645" y1="241.296" x2="292.381" y2="239.503"  stroke="#f3653d" />
<line x1="271.658" y1="242.491" x2="281.645" y2="241.296"  stroke="#9541ae" />
<line x1="-3408.51" y1="242.491" x2="271.658" y2="242.491"  stroke="#f16fe3" />
</g>
<g><title>ray</title>
<line x1="394.619" y1="172.32" x2="534.204" y2="200.071"  stroke="#01ef99" />
<line x1="383.521" y1="172.012" x2="394.619" y2="172.32"  stroke="#c89324" />
<line x1="377.268" y1="171.701" x2="383.521" y2="172.012"  stroke="#386101" />
<line x1="363.606" y1="173.736" x2="377.268" y2="171.701"  stroke="#6a14a8" />
<line x1="354.052" y1="175.283" x2="363.606" y2="173.736"  stroke="#da10ce" />
<line x1="331.97" y1="174.069" x2="354.052" y2="175.283"  stroke="#a8b0cc" />
<line x1="319.206" y1="173.367" x2="331.97" y2="174.069"  stroke="#87ae24" />
<line x1="307.573" y1="170.266" x2="319.206" y2="173.367"  stroke="#afb9c6" />
<line x1="289.742" y1="165.142" x2="307.573" y2="170.266"  stroke="#07dda4" />
<line x1="281.362" y1="163.958" x2="289.742" y2="165.142"  stroke="#b4158c" />
<line x1="270.264" y1="162.82" x2="281.362" y2="163.958"  stroke="#f10e46" />
<line x1="-3408.51" y1="162.82" x2="270.264" y2="162.82"  stroke="#25fa9e" />
</g>
<g><title>ray</title>
<line x1="394.617" y1="172.311" x2="534.204" y2="200.041"  stroke="#4aeb5d" />
<line x1="383.521" y1="171.998" x2="394.617" y2="172.311"  stroke="#b13727" />
<line x1="377.26" y1="171.682" x2="383.521" y2="171.998"  stroke="#3d84e6" />
<line x1="363.606" y1="173.703" x2="377.26" y2="171.682"  stroke="#1be670" />
<line x1="354.032" y1="175.244" x2="363.606" y2="173.703"  stroke="#14c72b" />
<line x1="331.97" y1="174.024" x2="354.032" y2="175.244"  stroke="#f8c5dd" />
<line x1="319.232" y1="173.32" x2="331.97" y2="174.024"  stroke="#357400" />
<line x1="307.573" y1="170.22" x2="319.232" y2="173.32"  stroke="#bf1d67" />
<line x1="289.752" y1="165.124" x2="307.573" y2="170.22"  stroke="#4ffd09" />
<line x1="281.362" y1="163.951" x2="289.752" y2="165.124"  stroke="#40303f" />
<line x1="270.264" y1="162.82" x2="281.362" y2="163.951"  stroke="#279ee1" />
<line x1="-3408.51" y1="162.82" x2="270.264" y2="162.82"  stroke="#ef31c6" />
</g>
<g><title>ray</title>
<line x1="394.619" y1="172.325" x2="534.204" y2="200.085"  stroke="#a4a7e7" />
<line x1="383.521" y1="172.032" x2="394.619" y2="172.325"  stroke="#74eaa9" />
<line x1="377.281" y1="171.734" x2="383.521" y2="172.032"  stroke="#26a291" />
<line x1="363.606" y1="173.805" x2="377.281" y2="171.734"  stroke="#6bf089" />
<line x1="354.095" y1="175.367" x2="363.606" y2="173.805"  stroke="#938841" />
<line x1="331.97" y1="174.171" x2="354.095" y2="175.367"  stroke="#655909" />
<line x1="319.145" y1="173.478" x2="331.97" y2="174.171"  stroke="#ca3211" />
<line x1="307.573" y1="170.376" x2="319.145" y2="173.478"  stroke="#639612" />
<line x1="289.72" y1="165.185" x2="307.573" y2="170.376"  stroke="#3227a4" />
<line x1="281.361" y1="163.974" x2="289.72" y2="165.185"  stroke="#739ab1" />
<line x1="270.264" y1="162.82" x2="281.361" y2="163.974"  stroke="#70ae65" />
<line x1="-3408.51" y1="162.82" x2="270.264" y2="162.82"  stroke="#d59732" />
</g>
<g><title>ray</title>
<line x1="394.619" y1="227.68" x2="534.204" y2="199.929"  stroke="#f2df63" />
<line x1="383.521" y1="227.988" x2="394.619" y2="227.68"  stroke="#fb2fe4" />
<line x1="377.268" y1="228.299" x2="383.521" y2="227.988"  stroke="#92709f" />
<line x1="363.606" y1="226.264" x2="377.268" y2="228.299"  stroke="#b40c48" />
<line x1="354.052" y1="224.717" x2="363.606" y2="226.264"  stroke="#4267e4" />
<line x1="331.97" y1="225.931" x2="354.052" y2="224.717"  stroke="#b5b9e4" />
<line x1="319.206" y1="226.633" x2="331.97" y2="225.931"  stroke="#6465e6" />
<line x1="307.573" y1="229.734" x2="319.206" y2="226.633"  stroke="#4e6291" />
<line x1="289.742" y1="234.858" x2="307.573" y2="229.734"  stroke="#5abbbe" />
<line x1="281.362" y1="236.042" x2="289.742" y2="234.858"  stroke="#bbbc23" />
<line x1="270.264" y1="237.18" x2="281.362" y2="236.042"  stroke="#3345ad" />
<line x1="-3408.51" y1="237.18" x2="270.264" y2="237.18"  stroke="#e85d84" />
</g>
<g><title>ray</title>
<line x1="394.617" y1="227.689" x2="534.204" y2="199.959"  stroke="#1be733" />
<line x1="383.521" y1="228.002" x2="394.617" y2="227.689"  stroke="#84a66f" />
<line x1="377.26" y1="228.318" x2="383.521" y2="228.002"  stroke="#af1714" />
<line x1="363.606" y1="226.297" x2="377.26" y2="228.318"  stroke="#13075a" />
<line x1="354.032" y1="224.756" x2="363.606" y2="226.297"  stroke="#4eb124" />
<line x1="331.97" y1="225.976" x2="354.032" y2="224.756"  stroke="#6411ac" />
<line x1="319.232" y1="226.68" x2="331.97" y2="225.976"  stroke="#b832b0" />
<line x1="307.573" y1="229.78" x2="319.232" y2="226.68"  stroke="#9da68a" />
<line x1="289.752" y1="234.876" x2="307.573" y2="229.78"  stroke="#198b0c" />
<line x1="281.362" y1="236.049" x2="289.752" y2="234.876"  stroke="#f876f7" />
<line x1="270.264" y1="237.18" x2="281.362" y2="236.049"  stroke="#b987ad" />
<line x1="-3408.51" y1="237.18" x2="270.264" y2="237.18"  stroke="#b05e63" />
</g>
<g><title>ray</title>
<line x1="394.619" y1="227.675" x2="534.204" y2="199.915"  stroke="#0cce2b" />
<line x1="383.521" y1="227.968" x2="394.619" y2="227.675"  stroke="#0f4fc8" />
<line x1="377.281" y1="228.266" x2="383.521" y2="227.968"  stroke="#36527b" />
<line x1="363.606" y1="226.195" x2="377.281" y2="228.266"  stroke="#027081" />
<line x1="354.095" y1="224.633" x2="363.606" y2="226.195"  stroke="#9ac166" />
<line x1="331.97" y1="225.829" x2="354.095" y2="224.633"  stroke="#59d6f0" />
<line x1="319.145" y1="226.522" x2="331.97" y2="225.829"  stroke="#9efe0d" />
<line x1="307.573" y1="229.624" x2="319.145" y2="226.522"  stroke="#8fdc62" />
<line x1="289.72" y1="234.815" x2="307.573" y2="229.624"  stroke="#4e4806" />
<line x1="281.361" y1="236.026" x2="289.72" y2="234.815"  stroke="#9c6304" />
<line x1="270.264" y1="237.18" x2="281.361" y2="236.026"  stroke="#0774da" />
<line x1="-3408.51" y1="237.18" x2="270.264" y2="237.18"  stroke="#ee66b9" />
</g>
<g><title>ray</title>
<line x1="395.312" y1="176.515" x2="534.204" y2="200.06"  stroke="#9bcedf" />
<line x1="383.521" y1="176.218" x2="395.312" y2="176.515"  stroke="#949714" />
<line x1="378.863" y1="176.007" x2="383.521" y2="176.218"  stroke="#ca7596" />
<line x1="363.606" y1="177.868" x2="378.863" y2="176.007"  stroke="#9691d0" />
<line x1="355.72" y1="178.913" x2="363.606" y2="177.868"  stroke="#ab5702" />
<line x1="331.97" y1="177.749" x2="355.72" y2="178.913"  stroke="#44573b" />
<line x1="317.348" y1="177.032" x2="331.97" y2="177.749"  stroke="#c45edd" />
<line x1="307.573" y1="174.828" x2="317.348" y2="177.032"  stroke="#1db9a0" />
<line x1="287.447" y1="169.945" x2="307.573" y2="174.828"  stroke="#e32e88" />
<line x1="281.118" y1="169.184" x2="287.447" y2="169.945"  stroke="#e6c6f6" />
<line x1="269.066" y1="168.132" x2="281.118" y2="169.184"  stroke="#32e5cb" />
<line x1="-3408.51" y1="168.132" x2="269.066" y2="168.132"  stroke="#f3d8e3" />
</g>
<g><title>ray</title>
<line x1="395.31" y1="176.506" x2="534.204" y2="200.031"  stroke="#a02f9d" />
<line x1="383.521" y1="176.204" x2="395.31" y2="176.506"  stroke="#433fba" />
<line x1="378.857" y1="175.99" x2="383.521" y2="176.204"  stroke="#c82bb6" />
<line x1="363.606" y1="177.838" x2="378.857" y2="175.99"  stroke="#7a14cd" />
<line x1="355.706" y1="178.878" x2="363.606" y2="177.838"  stroke="#da1f4e" />
<line x1="331.97" y1="177.71" x2="355.706" y2="178.878"  stroke="#9278c2" />
<line x1="317.367" y1="176.991" x2="331.97" y2="177.71"  stroke="#30b9fd" />
<line x1="307.573" y1="174.789" x2="317.367" y2="176.991"  stroke="#03a5b0" />
<line x1="287.453" y1="169.932" x2="307.573" y2="174.789"  stroke="#2c1246" />
<line x1="281.118" y1="169.178" x2="287.453" y2="169.932"  stroke="#acd58d" />
<line x1="269.066" y1="168.132" x2="281.118" y2="169.178"  stroke="#5ec63b" />
<line x1="-3408.51" y1="168.132" x2="269.066" y2="168.132"  stroke="#a23b34" />
</g>
<g><title>ray</title>
<line x1="395.313" y1="176.524" x2="534.204" y2="200.082"  stroke="#f74705" />
<line x1="383.521" y1="176.24" x2="395.313" y2="176.524"  stroke="#c4260b" />
<line x1="378.873" y1="176.037" x2="383.521" y2="176.24"  stroke="#0258a4" />
<line x1="363.606" y1="177.93" x2="378.873" y2="176.037"  stroke="#57696a" />
<line x1="355.751" y1="178.987" x2="363.606" y2="177.93"  stroke="#178bb2" />
<line x1="331.97" y1="177.838" x2="355.751" y2="178.987"  stroke="#56a7df" />
<line x1="317.304" y1="177.129" x2="331.97" y2="177.838"  stroke="#88910d" />
<line x1="307.573" y1="174.922" x2="317.304" y2="177.129"  stroke="#76426c" />
<line x1="287.433" y1="169.978" x2="307.573" y2="174.922"  stroke="#dc7c16" />
<line x1="281.117" y1="169.199" x2="287.433" y2="169.978"  stroke="#90b4c6" />
<line x1="269.066" y1="168.132" x2="281.117" y2="169.199"  stroke="#dcd84a" />
<line x1="-3408.51" y1="168.132" x2="269.066" y2="168.132"  stroke="#dca4be" />
</g>
<g><title>ray</title>
<line x1="395.312" y1="223.485" x2="534.204" y2="199.94"  stroke="#d3c3de" />
<line x1="383.521" y1="223.782" x2="395.312" y2="223.485"  stroke="#e7e885" />
<line x1="378.863" y1="223.993" x2="383.521" y2="223.782"  stroke="#701b5a" />
<line x1="363.606" y1="222.132" x2="378.863" y2="223.993"  stroke="#d16d2b" />
<line x1="355.72" y1="221.087" x2="363.606" y2="222.132"  stroke="#00a7c5" />
<line x1="331.97" y1="222.251" x2="355.72" y2="221.087"  stroke="#101662" />
<line x1="317.348" y1="222.968" x2="331.97" y2="222.251"  stroke="#aecd27" />
<line x1="307.573" y1="225.172" x2="317.348" y2="222.968"  stroke="#240c58" />
<line x1="287.447" y1="230.055" x2="307.573" y2="225.172"  stroke="#04f9a5" />
<line x1="281.118" y1="230.816" x2="287.447" y2="230.055"  stroke="#0de9a2" />
<line x1="269.066" y1="231.868" x2="281.118" y2="230.816"  stroke="#6e053d" />
<line x1="-3408.51" y1="231.868" x2="269.066" y2="231.868"  stroke="#63a6c7" />
</g>
<g><title>ray</title>
<line x1="395.31" y1="223.494" x2="534.204" y2="199.969"  stroke="#05d223" />
<line x1="383.521" y1="223.796" x2="395.31" y2="223.494"  stroke="#a18cfa" />
<line x1="378.857" y1="224.01" x2="383.521" y2="223.796"  stroke="#76364c" />
<line x1="363.606" y1="222.162" x2="378.857" y2="224.01"  stroke="#c7577a" />
<line x1="355.706" y1="221.122" x2="363.606" y2="222.162"  stroke="#9b1afb" />
<line x1="331.97" y1="222.29" x2="355.706" y2="221.122"  stroke="#c02674" />
<line x1="317.367" y1="223.009" x2="331.97" y2="222.29"  stroke="#b5fec5" />
<line x1="307.573" y1="225.211" x2="317.367" y2="223.009"  stroke="#a39ef1" />
<line x1="287.453" y1="230.068" x2="307.573" y2="225.211"  stroke="#af4990" />
<line x1="281.118" y1="230.822" x2="287.453" y2="230.068"  stroke="#4a8bb5" />
<line x1="269.066" y1="231.868" x2="281.118" y2="230.822"  stroke="#3e8b7d" />
<line x1="-3408.51" y1="231.868" x2="269.066" y2="231.868"  stroke="#f2aac3" />
</g>
<g><title>ray</title>
<line x1="395.313" y1="223.476" x2="534.204" y2="199.918"  stroke="#9e71cb" />
<line x1="383.521" y1="223.76" x2="395.313" y2="223.476"  stroke="#befc34" />
<line x1="378.873" y1="223.963" x2="383.521" y2="223.76"  stroke="#a0e896" />
<line x1="363.606" y1="222.07" x2="378.873" y2="223.963"  stroke="#ea807c" />
<line x1="355.751" y1="221.013" x2="363.606" y2="222.07"  stroke="#72e2ef" />
<line x1="331.97" y1="222.162" x2="355.751" y2="221.013"  stroke="#2e4033" />
<line x1="317.304" y1="222.871" x2="331.97" y2="222.162"  stroke="#baef9f" />
<line x1="307.573" y1="225.078" x2="317.304" y2="222.871"  stroke="#0aa308" />
<line x1="287.433" y1="230.022" x2="307.573" y2="225.078"  stroke="#8d8a71" />
<line x1="281.117" y1="230.801" x2="287.433" y2="230.022"  stroke="#0ffd20" />
<line x1="269.066" y1="231.868" x2="281.117" y2="230.801"  stroke="#990c2c" />
<line x1="-3408.51" y1="231.868" x2="269.066" y2="231.868"  stroke="#a85450" />
</g>
<g><title>ray</title>
<line x1="395.874" y1="180.59" x2="534.204" y2="200.038"  stroke="#a6686d" />
<line x1="383.521" y1="180.319" x2="395.874" y2="180.59"  stroke="#38ad2a" />
<line x1="380.133" y1="180.186" x2="383.521" y2="180.319"  stroke="#7e81cc" />
<line x1="363.606" y1="181.804" x2="380.133" y2="180.186"  stroke="#6e0156" />
<line x1="357.067" y1="182.499" x2="363.606" y2="181.804"  stroke="#5f20d2" />
<line x1="331.97" y1="181.444" x2="357.067" y2="182.499"  stroke="#bae3a4" />
<line x1="315.793" y1="180.764" x2="331.97" y2="181.444"  stroke="#a583bb" />
<line x1="307.573" y1="179.237" x2="315.793" y2="180.764"  stroke="#bbf476" />
<line x1="285.52" y1="174.833" x2="307.573" y2="179.237"  stroke="#5c1ce6" />
<line x1="280.914" y1="174.374" x2="285.52" y2="174.833"  stroke="#d1731b" />
<line x1="268.059" y1="173.443" x2="280.914" y2="174.374"  stroke="#ddc209" />
<line x1="-3408.51" y1="173.443" x2="268.059" y2="173.443"  stroke="#6aee11" />
</g>
<g><title>ray</title>
<line x1="395.873" y1="180.581" x2="534.204" y2="200.013"  stroke="#2a351d" />
<line x1="383.521" y1="180.306" x2="395.873" y2="180.581"  stroke="#961e9d" />
<line x1="380.129" y1="180.171" x2="383.521" y2="180.306"  stroke="#93b0ba" />
<line x1="363.606" y1="181.778" x2="380.129" y2="180.171"  stroke="#e9aa4c" />
<line x1="357.057" y1="182.469" x2="363.606" y2="181.778"  stroke="#ce60fe" />
<line x1="331.97" y1="181.411" x2="357.057" y2="182.469"  stroke="#c4342b" />
<line x1="315.806" y1="180.73" x2="331.97" y2="181.411"  stroke="#632e94" />
<line x1="307.573" y1="179.204" x2="315.806" y2="180.73"  stroke="#31f430" />
<line x1="285.524" y1="174.823" x2="307.573" y2="179.204"  stroke="#614d1e" />
<line x1="280.914" y1="174.369" x2="285.524" y2="174.823"  stroke="#320bc4" />
<line x1="268.059" y1="173.443" x2="280.914" y2="174.369"  stroke="#c2e000" />
<line x1="-3408.51" y1="173.443" x2="268.059" y2="173.443"  stroke="#726ccc" />
</g>
<g><title>ray</title>
<line x1="395.875" y1="180.601" x2="534.204" y2="200.063"  stroke="#757ebf" />
<line x1="383.521" y1="180.341" x2="395.875" y2="180.601"  stroke="#3c8e17" />
<line x1="380.14" y1="180.213" x2="383.521" y2="180.341"  stroke="#ebe3da" />
<line x1="363.606" y1="181.859" x2="380.14" y2="180.213"  stroke="#0f7da1" />
<line x1="357.088" y1="182.562" x2="363.606" y2="181.859"  stroke="#bec041" />
<line x1="331.97" y1="181.519" x2="357.088" y2="182.562"  stroke="#e8c932" />
<line x1="315.763" y1="180.846" x2="331.97" y2="181.519"  stroke="#8c0d85" />
<line x1="307.573" y1="179.315" x2="315.763" y2="180.846"  stroke="#c9b306" />
<line x1="285.512" y1="174.857" x2="307.573" y2="179.315"  stroke="#ba8de9" />
<line x1="280.913" y1="174.387" x2="285.512" y2="174.857"  stroke="#dfcb4d" />
<line x1="268.059" y1="173.443" x2="280.913" y2="174.387"  stroke="#647a0d" />
<line x1="-3408.51" y1="173.443" x2="268.059" y2="173.443"  stroke="#a600c3" />
</g>
<g><title>ray</title>
<line x1="395.874" y1="219.41" x2="534.204" y2="199.962"  stroke="#c03827" />
<line x1="383.521" y1="219.681" x2="395.874" y2="219.41"  stroke="#0eab08" />
<line x1="380.133" y1="219.814" x2="383.521" y2="219.681"  stroke="#58b1cb" />
<line x1="363.606" y1="218.196" x2="380.133" y2="219.814"  stroke="#6ffaa2" />
<line x1="357.067" y1="217.501" x2="363.606" y2="218.196"  stroke="#4b79de" />
<line x1="331.97" y1="218.556" x2="357.067" y2="217.501"  stroke="#141924" />
<line x1="315.793" y1="219.236" x2="331.97" y2="218.556"  stroke="#24ea4e" />
<line x1="307.573" y1="220.763" x2="315.793" y2="219.236"  stroke="#5fcf0b" />
<line x1="285.52" y1="225.167" x2="307.573" y2="220.763"  stroke="#cf3de4" />
<line x1="280.914" y1="225.626" x2="285.52" y2="225.167"  stroke="#414435" />
<line x1="268.059" y1="226.557" x2="280.914" y2="225.626"  stroke="#3ad7df" />
<line x1="-3408.51" y1="226.557" x2="268.059" y2="226.557"  stroke="#e2d79b" />
</g>
<g><title>ray</title>
<line x1="395.873" y1="219.419" x2="534.204" y2="199.987"  stroke="#0a2c2e" />
<line x1="383.521" y1="219.694" x2="395.873" y2="219.419"  stroke="#5a722f" />
<line x1="380.129" y1="219.829" x2="383.521" y2="219.694"  stroke="#e49e8b" />
<line x1="363.606" y1="218.222" x2="380.129" y2="219.829"  stroke="#e885ba" />
<line x1="357.057" y1="217.531" x2="363.606" y2="218.222"  stroke="#fef7dd" />
<line x1="331.97" y1="218.589" x2="357.057" y2="217.531"  stroke="#d6255f" />
<line x1="315.806" y1="219.27" x2="331.97" y2="218.589"  stroke="#482bf8" />
<line x1="307.573" y1="220.796" x2="315.806" y2="219.27"  stroke="#bdb607" />
<line x1="285.524" y1="225.177" x2="307.573" y2="220.796"  stroke="#a4cfbb" />
<line x1="280.914" y1="225.631" x2="285.524" y2="225.177"  stroke="#d01fb7" />
<line x1="268.059" y1="226.557" x2="280.914" y2="225.631"  stroke="#5fa5e9" />
<line x1="-3408.51" y1="226.557" x2="268.059" y2="226.557"  stroke="#e208c5" />
</g>
<g><title>ray</title>
<line x1="395.875" y1="219.399" x2="534.204" y2="199.937"  stroke="#72013a" />
<line x1="383.521" y1="219.659" x2="395.875" y2="219.399"  stroke="#6a27ea" />
<line x1="380.14" y1="219.787" x2="383.521" y2="219.659"  stroke="#7f3dc0" />
<line x1="363.606" y1="218.141" x2="380.14" y2="219.787"  stroke="#e73608" />
<line x1="357.088" y1="217.438" x2="363.606" y2="218.141"  stroke="#c43a8d" />
<line x1="331.97" y1="218.481" x2="357.088" y2="217.438"  stroke="#cdd954" />
<line x1="315.763" y1="219.154" x2="331.97" y2="218.481"  stroke="#89fcdd" />
<line x1="307.573" y1="220.685" x2="315.763" y2="219.154"  stroke="#a43acf" />
<line x1="285.512" y1="225.143" x2="307.573" y2="220.685"  stroke="#5e5d08" />
<line x1="280.913" y1="225.613" x2="285.512" y2="225.143"  stroke="#8f651e" />
<line x1="268.059" y1="226.557" x2="280.913" y2="225.613"  stroke="#52e533" />
<line x1="-3408.51" y1="226.557" x2="268.059" y2="226.557"  stroke="#ef1fd8" />
</g>
<g><title>ray</title>
<line x1="396.319" y1="184.573" x2="534.204" y2="200.018"  stroke="#e37138" />
<line x1="383.521" y1="184.341" x2="396.319" y2="184.573"  stroke="#a18e9f" />
<line x1="381.124" y1="184.263" x2="383.521" y2="184.341"  stroke="#6c04dc" />
<line x1="363.606" y1="185.594" x2="381.124" y2="184.263"  stroke="#23444a" />
<line x1="358.129" y1="186.046" x2="363.606" y2="185.594"  stroke="#ad8ff4" />
<line x1="331.97" y1="185.148" x2="358.129" y2="186.046"  stroke="#9ac86b" />
<line x1="314.532" y1="184.55" x2="331.97" y2="185.148"  stroke="#d0bc22" />
<line x1="307.573" y1="183.524" x2="314.532" y2="184.55"  stroke="#830501" />
<line x1="283.954" y1="179.788" x2="307.573" y2="183.524"  stroke="#be55e6" />
<line x1="280.748" y1="179.534" x2="283.954" y2="179.788"  stroke="#75c30c" />
<line x1="267.241" y1="178.754" x2="280.748" y2="179.534"  stroke="#a006ae" />
<line x1="-3408.51" y1="178.754" x2="267.241" y2="178.754"  stroke="#f77fb4" />
</g>
<g><title>ray</title>
<line x1="396.318" y1="184.564" x2="534.204" y2="199.996"  stroke="#43d1a4" />
<line x1="383.521" y1="184.329" x2="396.318" y2="184.564"  stroke="#9843d7" />
<line x1="381.121" y1="184.251" x2="383.521" y2="184.329"  stroke="#75be59" />
<line x1="363.606" y1="185.573" x2="381.121" y2="184.251"  stroke="#03799f" />
<line x1="358.122" y1="186.022" x2="363.606" y2="185.573"  stroke="#666107" />
<line x1="331.97" y1="185.122" x2="358.122" y2="186.022"  stroke="#4998e1" />
<line x1="314.54" y1="184.522" x2="331.97" y2="185.122"  stroke="#6eed61" />
<line x1="307.573" y1="183.498" x2="314.54" y2="184.522"  stroke="#8702f8" />
<line x1="283.956" y1="179.781" x2="307.573" y2="183.498"  stroke="#dc6fb2" />
<line x1="280.748" y1="179.529" x2="283.956" y2="179.781"  stroke="#54997f" />
<line x1="267.241" y1="178.754" x2="280.748" y2="179.529"  stroke="#8e0960" />
<line x1="-3408.51" y1="178.754" x2="267.241" y2="178.754"  stroke="#3befdb" />
</g>
<g><title>ray</title>
<line x1="396.32" y1="184.584" x2="534.204" y2="200.042"  stroke="#f59b94" />
<line x1="383.521" y1="184.361" x2="396.32" y2="184.584"  stroke="#13674d" />
<line x1="381.128" y1="184.286" x2="383.521" y2="184.361"  stroke="#7f14df" />
<line x1="363.606" y1="185.64" x2="381.128" y2="184.286"  stroke="#4dc7ed" />
<line x1="358.142" y1="186.098" x2="363.606" y2="185.64"  stroke="#963747" />
<line x1="331.97" y1="185.209" x2="358.142" y2="186.098"  stroke="#8ede3f" />
<line x1="314.512" y1="184.616" x2="331.97" y2="185.209"  stroke="#4cb9dc" />
<line x1="307.573" y1="183.587" x2="314.512" y2="184.616"  stroke="#3a3071" />
<line x1="283.949" y1="179.805" x2="307.573" y2="183.587"  stroke="#e39207" />
<line x1="280.748" y1="179.545" x2="283.949" y2="179.805"  stroke="#fd0f9d" />
<line x1="267.241" y1="178.754" x2="280.748" y2="179.545"  stroke="#412b1d" />
<line x1="-3408.51" y1="178.754" x2="267.241" y2="178.754"  stroke="#3b7ef4" />
</g>
<g><title>ray</title>
<line x1="396.319" y1="215.427" x2="534.204" y2="199.982"  stroke="#0c1456" />
<line x1="383.521" y1="215.659" x2="396.319" y2="215.427"  stroke="#47837d" />
<line x1="381.124" y1="215.737" x2="383.521" y2="215.659"  stroke="#69eb99" />
<line x1="363.606" y1="214.406" x2="381.124" y2="215.737"  stroke="#4a7966" />
<line x1="358.129" y1="213.954" x2="363.606" y2="214.406"  stroke="#f28bd4" />
<line x1="331.97" y1="214.852" x2="358.129" y2="213.954"  stroke="#cacc97" />
<line x1="314.532" y1="215.45" x2="331.97" y2="214.852"  stroke="#dd51ef" />
<line x1="307.573" y1="216.476" x2="314.532" y2="215.45"  stroke="#44f0b7" />
<line x1="283.954" y1="220.212" x2="307.573" y2="216.476"  stroke="#20c578" />
<line x1="280.748" y1="220.466" x2="283.954" y2="220.212"  stroke="#2c060a" />
<line x1="267.241" y1="221.246" x2="280.748" y2="220.466"  stroke="#73db22" />
<line x1="-3408.51" y1="221.246" x2="267.241" y2="221.246"  stroke="#0336d0" />
</g>
<g><title>ray</title>
<line x1="396.318" y1="215.436" x2="534.204" y2="200.004"  stroke="#cbc6a7" />
<line x1="383.521" y1="215.671" x2="396.318" y2="215.436"  stroke="#4cc7ea" />
<line x1="381.121" y1="215.749" x2="383.521" y2="215.671"  stroke="#d63d7f" />
<line x1="363.606" y1="214.427" x2="381.121" y2="215.749"  stroke="#051307" />
<line x1="358.122" y1="213.978" x2="363.606" y2="214.427"  stroke="#5ab668" />
<line x1="331.97" y1="214.878" x2="358.122" y2="213.978"  stroke="#2e4b2e" />
<line x1="314.54" y1="215.478" x2="331.97" y2="214.878"  stroke="#bd220e" />
<line x1="307.573" y1="216.502" x2="314.54" y2="215.478"  stroke="#865bcd" />
<line x1="283.956" y1="220.219" x2="307.573" y2="216.502"  stroke="#28e521" />
<line x1="280.748" y1="220.471" x2="283.956" y2="220.219"  stroke="#072ed0" />
<line x1="267.241" y1="221.246" x2="280.748" y2="220.471"  stroke="#3f9158" />
<line x1="-3408.51" y1="221.246" x2="267.241" y2="221.246"  stroke="#89a9de" />
</g>
<g><title>ray</title>
<line x1="396.32" y1="215.416" x2="534.204" y2="199.958"  stroke="#edf11a" />
<line x1="383.521" y1="215.639" x2="396.32" y2="215.416"  stroke="#278ecc" />
<line x1="381.128" y1="215.714" x2="383.521" y2="215.639"  stroke="#e412de" />
<line x1="363.606" y1="214.36" x2="381.128" y2="215.714"  stroke="#d1638b" />
<line x1="358.142" y1="213.902" x2="363.606" y2="214.36"  stroke="#ab7247" />
<line x1="331.97" y1="214.791" x2="358.142" y2="213.902"  stroke="#f2fab9" />
<line x1="314.512" y1="215.384" x2="331.97" y2="214.791"  stroke="#974521" />
<line x1="307.573" y1="216.413" x2="314.512" y2="215.384"  stroke="#32997c" />
<line x1="283.949" y1="220.195" x2="307.573" y2="216.413"  stroke="#5a3a7a" />
<line x1="280.748" y1="220.455" x2="283.949" y2="220.195"  stroke="#b0f1ab" />
<line x1="267.241" y1="221.246" x2="280.748" y2="220.455"  stroke="#fa3c82" />
<line x1="-3408.51" y1="221.246" x2="267.241" y2="221.246"  stroke="#3ce47b" />
</g>
<g><title>ray</title>
<line x1="396.656" y1="188.486" x2="534.204" y2="200.004"  stroke="#538991" />
<line x1="383.521" y1="188.304" x2="396.656" y2="188.486"  stroke="#55582b" />
<line x1="381.866" y1="188.262" x2="383.521" y2="188.304"  stroke="#4937eb" />
<line x1="363.606" y1="189.28" x2="381.866" y2="188.262"  stroke="#bccda5" />
<line x1="358.93" y1="189.562" x2="363.606" y2="189.28"  stroke="#af44c3" />
<line x1="331.97" y1="188.858" x2="358.93" y2="189.562"  stroke="#10b8db" />
<line x1="313.557" y1="188.377" x2="331.97" y2="188.858"  stroke="#570b7b" />
<line x1="307.573" y1="187.72" x2="313.557" y2="188.377"  stroke="#05d59d" />
<line x1="282.742" y1="184.796" x2="307.573" y2="187.72"  stroke="#899a91" />
<line x1="280.62" y1="184.671" x2="282.742" y2="184.796"  stroke="#c6a3b1" />
<line x1="266.607" y1="184.066" x2="280.62" y2="184.671"  stroke="#c1dd28" />
<line x1="-3408.51" y1="184.066" x2="266.607" y2="184.066"  stroke="#6bc805" />
</g>
<g><title>ray</title>
<line x1="396.655" y1="188.479" x2="534.204" y2="199.987"  stroke="#6f0a81" />
<line x1="383.521" y1="188.294" x2="396.655" y2="188.479"  stroke="#44113e" />
<line x1="381.864" y1="188.253" x2="383.521" y2="188.294"  stroke="#fa819c" />
<line x1="363.606" y1="189.263" x2="381.864" y2="188.253"  stroke="#125df3" />
<line x1="358.927" y1="189.544" x2="363.606" y2="189.263"  stroke="#db563d" />
<line x1="331.97" y1="188.838" x2="358.927" y2="189.544"  stroke="#490cfd" />
<line x1="313.562" y1="188.356" x2="331.97" y2="188.838"  stroke="#2b1138" />
<line x1="307.573" y1="187.7" x2="313.562" y2="188.356"  stroke="#4cc8a5" />
<line x1="282.743" y1="184.791" x2="307.573" y2="187.7"  stroke="#154322" />
<line x1="280.62" y1="184.667" x2="282.743" y2="184.791"  stroke="#378f2d" />
<line x1="266.607" y1="184.066" x2="280.62" y2="184.667"  stroke="#a11b73" />
<line x1="-3408.51" y1="184.066" x2="266.607" y2="184.066"  stroke="#c1550e" />
</g>
<g><title>ray</title>
<line x1="396.657" y1="188.496" x2="534.204" y2="200.024"  stroke="#48b1de" />
<line x1="383.521" y1="188.32" x2="396.657" y2="188.496"  stroke="#90dd14" />
<line x1="381.868" y1="188.28" x2="383.521" y2="188.32"  stroke="#cafea1" />
<line x1="363.606" y1="189.315" x2="381.868" y2="188.28"  stroke="#9d9797" />
<line x1="358.938" y1="189.601" x2="363.606" y2="189.315"  stroke="#31f93b" />
<line x1="331.97" y1="188.904" x2="358.938" y2="189.601"  stroke="#0a3c41" />
<line x1="313.546" y1="188.427" x2="331.97" y2="188.904"  stroke="#67ca45" />
<line x1="307.573" y1="187.767" x2="313.546" y2="188.427"  stroke="#e560b9" />
<line x1="282.739" y1="184.808" x2="307.573" y2="187.767"  stroke="#340d9a" />
<line x1="280.62" y1="184.679" x2="282.739" y2="184.808"  stroke="#5a5caa" />
<line x1="266.607" y1="184.066" x2="280.62" y2="184.679"  stroke="#f839e4" />
<line x1="-3408.51" y1="184.066" x2="266.607" y2="184.066"  stroke="#58f3a9" />
</g>
<g><title>ray</title>
<line x1="396.656" y1="211.514" x2="534.204" y2="199.996"  stroke="#33485a" />
<line x1="383.521" y1="211.696" x2="396.656" y2="211.514"  stroke="#874a38" />
<line x1="381.866" y1="211.738" x2="383.521" y2="211.696"  stroke="#191bb4" />
<line x1="363.606" y1="210.72" x2="381.866" y2="211.738"  stroke="#d7abd0" />
<line x1="358.93" y1="210.438" x2="363.606" y2="210.72"  stroke="#017d9a" />
<line x1="331.97" y1="211.142" x2="358.93" y2="210.438"  stroke="#ee4a9a" />
<line x1="313.557" y1="211.623" x2="331.97" y2="211.142"  stroke="#bedee8" />
<line x1="307.573" y1="212.28" x2="313.557" y2="211.623"  stroke="#d39a4d" />
<line x1="282.742" y1="215.204" x2="307.573" y2="212.28"  stroke="#c7268a" />
<line x1="280.62" y1="215.329" x2="282.742" y2="215.204"  stroke="#af64fd" />
<line x1="266.607" y1="215.934" x2="280.62" y2="215.329"  stroke="#196806" />
<line x1="-3408.51" y1="215.934" x2="266.607" y2="215.934"  stroke="#af422b" />
</g>
<g><title>ray</title>
<line x1="396.655" y1="211.521" x2="534.204" y2="200.013"  stroke="#3a30db" />
<line x1="383.521" y1="211.706" x2="396.655" y2="211.521"  stroke="#c20c7b" />
<line x1="381.864" y1="211.747" x2="383.521" y2="211.706"  stroke="#0ef515" />
<line x1="363.606" y1="210.737" x2="381.864" y2="211.747"  stroke="#90f592" />
<line x1="358.927" y1="210.456" x2="363.606" y2="210.737"  stroke="#e06866" />
<line x1="331.97" y1="211.162" x2="358.927" y2="210.456"  stroke="#69a7d1" />
<line x1="313.562" y1="211.644" x2="331.97" y2="211.162"  stroke="#f14800" />
<line x1="307.573" y1="212.3" x2="313.562" y2="211.644"  stroke="#9d0ca7" />
<line x1="282.743" y1="215.209" x2="307.573" y2="212.3"  stroke="#6bf39a" />
<line x1="280.62" y1="215.333" x2="282.743" y2="215.209"  stroke="#336956" />
<line x1="266.607" y1="215.934" x2="280.62" y2="215.333"  stroke="#9ece01" />
<line x1="-3408.51" y1="215.934" x2="266.607" y2="215.934"  stroke="#1a6446" />
</g>
<g><title>ray</title>
<line x1="396.657" y1="211.504" x2="534.204" y2="199.976"  stroke="#50d2d9" />
<line x1="383.521" y1="211.68" x2="396.657" y2="211.504"  stroke="#4f328f" />
<line x1="381.868" y1="211.72" x2="383.521" y2="211.68"  stroke="#77fd6e" />
<line x1="363.606" y1="210.685" x2="381.868" y2="211.72"  stroke="#5d6a62" />
<line x1="358.938" y1="210.399" x2="363.606" y2="210.685"  stroke="#94df56" />
<line x1="331.97" y1="211.096" x2="358.938" y2="210.399"  stroke="#64f281" />
<line x1="313.546" y1="211.573" x2="331.97" y2="211.096"  stroke="#6a9bc6" />
<line x1="307.573" y1="212.233" x2="313.546" y2="211.573"  stroke="#152635" />
<line x1="282.739" y1="215.192" x2="307.573" y2="212.233"  stroke="#165078" />
<line x1="280.62" y1="215.321" x2="282.739" y2="215.192"  stroke="#a05414" />
<line x1="266.607" y1="215.934" x2="280.62" y2="215.321"  stroke="#9c2447" />
<line x1="-3408.51" y1="215.934" x2="266.607" y2="215.934"  stroke="#d26ffd" />
</g>
<g><title>ray</title>
<line x1="396.892" y1="192.35" x2="534.204" y2="199.997"  stroke="#381b84" />
<line x1="383.521" y1="192.225" x2="396.892" y2="192.35"  stroke="#430192" />
<line x1="382.381" y1="192.205" x2="383.521" y2="192.225"  stroke="#c41bf7" />
<line x1="363.606" y1="192.892" x2="382.381" y2="192.205"  stroke="#5ee685" />
<line x1="359.491" y1="193.055" x2="363.606" y2="192.892"  stroke="#384d7a" />
<line x1="331.97" y1="192.571" x2="359.491" y2="193.055"  stroke="#4f69c3" />
<line x1="312.865" y1="192.234" x2="331.97" y2="192.571"  stroke="#d6636d" />
<line x1="307.573" y1="191.849" x2="312.865" y2="192.234"  stroke="#b8bb17" />
<line x1="281.879" y1="189.843" x2="307.573" y2="191.849"  stroke="#14c0d7" />
<line x1="280.529" y1="189.79" x2="281.879" y2="189.843"  stroke="#a25b79" />
<line x1="266.156" y1="189.377" x2="280.529" y2="189.79"  stroke="#186930" />
<line x1="-3408.51" y1="189.377" x2="266.156" y2="189.377"  stroke="#57e83a" />
</g>
<g><title>ray</title>
<line x1="396.892" y1="192.346" x2="534.204" y2="199.985"  stroke="#4f2757" />
<line x1="383.521" y1="192.218" x2="396.892" y2="192.346"  stroke="#2e4534" />
<line x1="382.381" y1="192.199" x2="383.521" y2="192.218"  stroke="#2b5510" />
<line x1="363.606" y1="192.88" x2="382.381" y2="192.199"  stroke="#7ff5ce" />
<line x1="359.489" y1="193.043" x2="363.606" y2="192.88"  stroke="#71e82d" />
<line x1="331.97" y1="192.557" x2="359.489" y2="193.043"  stroke="#7a78b2" />
<line x1="312.867" y1="192.22" x2="331.97" y2="192.557"  stroke="#3fee46" />
<line x1="307.573" y1="191.836" x2="312.867" y2="192.22"  stroke="#4cd1d1" />
<line x1="281.88" y1="189.84" x2="307.573" y2="191.836"  stroke="#a0ca01" />
<line x1="280.529" y1="189.787" x2="281.88" y2="189.84"  stroke="#4249f3" />
<line x1="266.156" y1="189.377" x2="280.529" y2="189.787"  stroke="#db83b4" />
<line x1="-3408.51" y1="189.377" x2="266.156" y2="189.377"  stroke="#41ea7d" />
</g>
<g><title>ray</title>
<line x1="396.893" y1="192.358" x2="534.204" y2="200.012"  stroke="#17d213" />
<line x1="383.521" y1="192.236" x2="396.893" y2="192.358"  stroke="#4861a4" />
<line x1="382.383" y1="192.217" x2="383.521" y2="192.236"  stroke="#836e23" />
<line x1="363.606" y1="192.916" x2="382.383" y2="192.217"  stroke="#f81301" />
<line x1="359.494" y1="193.081" x2="363.606" y2="192.916"  stroke="#e968c0" />
<line x1="331.97" y1="192.601" x2="359.494" y2="193.081"  stroke="#2f196b" />
<line x1="312.86" y1="192.268" x2="331.97" y2="192.601"  stroke="#ac86d2" />
<line x1="307.573" y1="191.881" x2="312.86" y2="192.268"  stroke="#d5457f" />
<line x1="281.878" y1="189.85" x2="307.573" y2="191.881"  stroke="#dd25f7" />
<line x1="280.529" y1="189.796" x2="281.878" y2="189.85"  stroke="#893811" />
<line x1="266.156" y1="189.377" x2="280.529" y2="189.796"  stroke="#343231" />
<line x1="-3408.51" y1="189.377" x2="266.156" y2="189.377"  stroke="#32f397" />
</g>
<g><title>ray</title>
<line x1="396.892" y1="207.65" x2="534.204" y2="200.003"  stroke="#bc4bad" />
<line x1="383.521" y1="207.775" x2="396.892" y2="207.65"  stroke="#c8eaec" />
<line x1="382.381" y1="207.795" x2="383.521" y2="207.775"  stroke="#d7421a" />
<line x1="363.606" y1="207.108" x2="382.381" y2="207.795"  stroke="#0fe625" />
<line x1="359.491" y1="206.945" x2="363.606" y2="207.108"  stroke="#e35bf3" />
<line x1="331.97" y1="207.429" x2="359.491" y2="206.945"  stroke="#6154ae" />
<line x1="312.865" y1="207.766" x2="331.97" y2="207.429"  stroke="#e2606e" />
<line x1="307.573" y1="208.151" x2="312.865" y2="207.766"  stroke="#ac447b" />
<line x1="281.879" y1="210.157" x2="307.573" y2="208.151"  stroke="#86ccca" />
<line x1="280.529" y1="210.21" x2="281.879" y2="210.157"  stroke="#be7cd3" />
<line x1="266.156" y1="210.623" x2="280.529" y2="210.21"  stroke="#8e4758" />
<line x1="-3408.51" y1="210.623" x2="266.156" y2="210.623"  stroke="#0de8c2" />
</g>
<g><title>ray</title>
<line x1="396.892" y1="207.654" x2="534.204" y2="200.015"  stroke="#5d4835" />
<line x1="383.521" y1="207.782" x2="396.892" y2="207.654"  stroke="#520ce0" />
<line x1="382.381" y1="207.801" x2="383.521" y2="207.782"  stroke="#3f6624" />
<line x1="363.606" y1="207.12" x2="382.381" y2="207.801"  stroke="#df9bc7" />
<line x1="359.489" y1="206.957" x2="363.606" y2="207.12"  stroke="#3273c2" />
<line x1="331.97" y1="207.443" x2="359.489" y2="206.957"  stroke="#6ea2cd" />
<line x1="312.867" y1="207.78" x2="331.97" y2="207.443"  stroke="#2c52f5" />
<line x1="307.573" y1="208.164" x2="312.867" y2="207.78"  stroke="#b432dc" />
<line x1="281.88" y1="210.16" x2="307.573" y2="208.164"  stroke="#0cbd09" />
<line x1="280.529" y1="210.213" x2="281.88" y2="210.16"  stroke="#21158c" />
<line x1="266.156" y1="210.623" x2="280.529" y2="210.213"  stroke="#918737" />
<line x1="-3408.51" y1="210.623" x2="266.156" y2="210.623"  stroke="#134d10" />
</g>
<g><title>ray</title>
<line x1="396.893" y1="207.642" x2="534.204" y2="199.988"  stroke="#682240" />
<line x1="383.521" y1="207.764" x2="396.893" y2="207.642"  stroke="#d18144" />
<line x1="382.383" y1="207.783" x2="383.521" y2="207.764"  stroke="#fbe91f" />
<line x1="363.606" y1="207.084" x2="382.383" y2="207.783"  stroke="#48b478" />
<line x1="359.494" y1="206.919" x2="363.606" y2="207.084"  stroke="#4b5785" />
<line x1="331.97" y1="207.399" x2="359.494" y2="206.919"  stroke="#ce8311" />
<line x1="312.86" y1="207.732" x2="331.97" y2="207.399"  stroke="#d38d1a" />
<line x1="307.573" y1="208.119" x2="312.86" y2="207.732"  stroke="#81f1b8" />
<line x1="281.878" y1="210.15" x2="307.573" y2="208.119"  stroke="#7873ea" />
<line x1="280.529" y1="210.204" x2="281.878" y2="210.15"  stroke="#8b5de1" />
<line x1="266.156" y1="210.623" x2="280.529" y2="210.204"  stroke="#a81f81" />
<line x1="-3408.51" y1="210.623" x2="266.156" y2="210.623"  stroke="#1c478b" />
</g>
<g><title>ray</title>
<line x1="397.032" y1="196.183" x2="534.204" y2="199.997"  stroke="#c95eda" />
<line x1="383.521" y1="196.119" x2="397.032" y2="196.183"  stroke="#bd765b" />
<line x1="382.685" y1="196.112" x2="383.521" y2="196.119"  stroke="#709560" />
<line x1="363.606" y1="196.457" x2="382.685" y2="196.112"  stroke="#a18e7b" />
<line x1="359.822" y1="196.531" x2="363.606" y2="196.457"  stroke="#d52f02" />
<line x1="331.97" y1="196.285" x2="359.822" y2="196.531"  stroke="#1b0a38" />
<line x1="312.45" y1="196.112" x2="331.97" y2="196.285"  stroke="#4168b4" />
<line x1="307.573" y1="195.935" x2="312.45" y2="196.112"  stroke="#70218a" />
<line x1="281.363" y1="194.915" x2="307.573" y2="195.935"  stroke="#dacd37" />
<line x1="280.474" y1="194.898" x2="281.363" y2="194.915"  stroke="#eb4f24" />
<line x1="265.886" y1="194.689" x2="280.474" y2="194.898"  stroke="#9a02f3" />
<line x1="-3408.51" y1="194.689" x2="265.886" y2="194.689"  stroke="#886203" />
</g>
<g><title>ray</title>
<line x1="397.032" y1="196.18" x2="534.204" y2="199.991"  stroke="#3ce197" />
<line x1="383.521" y1="196.116" x2="397.032" y2="196.18"  stroke="#260488" />
<line x1="382.685" y1="196.108" x2="383.521" y2="196.116"  stroke="#e9a639" />
<line x1="363.606" y1="196.451" x2="382.685" y2="196.108"  stroke="#67f618" />
<line x1="359.822" y1="196.525" x2="363.606" y2="196.451"  stroke="#658155" />
<line x1="331.97" y1="196.278" x2="359.822" y2="196.525"  stroke="#539f3f" />
<line x1="312.451" y1="196.105" x2="331.97" y2="196.278"  stroke="#4988e5" />
<line x1="307.573" y1="195.929" x2="312.451" y2="196.105"  stroke="#7953ac" />
<line x1="281.363" y1="194.914" x2="307.573" y2="195.929"  stroke="#759469" />
<line x1="280.474" y1="194.896" x2="281.363" y2="194.914"  stroke="#eb1ea9" />
<line x1="265.886" y1="194.689" x2="280.474" y2="194.896"  stroke="#253f1c" />
<line x1="-3408.51" y1="194.689" x2="265.886" y2="194.689"  stroke="#1aafd2" />
</g>
<g><title>ray</title>
<line x1="397.033" y1="196.187" x2="534.204" y2="200.005"  stroke="#7d73a6" />
<line x1="383.521" y1="196.125" x2="397.033" y2="196.187"  stroke="#6aa319" />
<line x1="382.686" y1="196.118" x2="383.521" y2="196.125"  stroke="#d35edf" />
<line x1="363.606" y1="196.469" x2="382.686" y2="196.118"  stroke="#84f564" />
<line x1="359.823" y1="196.545" x2="363.606" y2="196.469"  stroke="#b9a05f" />
<line x1="331.97" y1="196.3" x2="359.823" y2="196.545"  stroke="#cfd910" />
<line x1="312.449" y1="196.129" x2="331.97" y2="196.3"  stroke="#bd5c3c" />
<line x1="307.573" y1="195.951" x2="312.449" y2="196.129"  stroke="#d0c745" />
<line x1="281.363" y1="194.919" x2="307.573" y2="195.951"  stroke="#8f2c1f" />
<line x1="280.474" y1="194.901" x2="281.363" y2="194.919"  stroke="#c16947" />
<line x1="265.886" y1="194.689" x2="280.474" y2="194.901"  stroke="#2b8a3d" />
<line x1="-3408.51" y1="194.689" x2="265.886" y2="194.689"  stroke="#5139a7" />
</g>
<g><title>ray</title>
<line x1="397.032" y1="203.817" x2="534.204" y2="200.003"  stroke="#b2aaa4" />
<line x1="383.521" y1="203.881" x2="397.032" y2="203.817"  stroke="#0e54f2" />
<line x1="382.685" y1="203.888" x2="383.521" y2="203.881"  stroke="#514e29" />
<line x1="363.606" y1="203.543" x2="382.685" y2="203.888"  stroke="#5d46f5" />
<line x1="359.822" y1="203.469" x2="363.606" y2="203.543"  stroke="#3c429f" />
<line x1="331.97" y1="203.715" x2="359.822" y2="203.469"  stroke="#c09445" />
<line x1="312.45" y1="203.888" x2="331.97" y2="203.715"  stroke="#b556b6" />
<line x1="307.573" y1="204.065" x2="312.45" y2="203.888"  stroke="#05b2a0" />
<line x1="281.363" y1="205.085" x2="307.573" y2="204.065"  stroke="#20b761" />
<line x1="280.474" y1="205.102" x2="281.363" y2="205.085"  stroke="#85dc96" />
<line x1="265.886" y1="205.311" x2="280.474" y2="205.102"  stroke="#7e07ab" />
<line x1="-3408.51" y1="205.311" x2="265.886" y2="205.311"  stroke="#8d5992" />
</g>
<g><title>ray</title>
<line x1="397.032" y1="203.82" x2="534.204" y2="200.009"  stroke="#c20500" />
<line x1="383.521" y1="203.884" x2="397.032" y2="203.82"  stroke="#8bbe47" />
<line x1="382.685" y1="203.892" x2="383.521" y2="203.884"  stroke="#cad4b8" />
<line x1="363.606" y1="203.549" x2="382.685" y2="203.892"  stroke="#4b8967" />
<line x1="359.822" y1="203.475" x2="363.606" y2="203.549"  stroke="#196318" />
<line x1="331.97" y1="203.722" x2="359.822" y2="203.475"  stroke="#aa29b0" />
<line x1="312.451" y1="203.895" x2="331.97" y2="203.722"  stroke="#abbce2" />
<line x1="307.573" y1="204.071" x2="312.451" y2="203.895"  stroke="#c09143" />
<line x1="281.363" y1="205.086" x2="307.573" y2="204.071"  stroke="#1c44bb" />
<line x1="280.474" y1="205.104" x2="281.363" y2="205.086"  stroke="#f97c36" />
<line x1="265.886" y1="205.311" x2="280.474" y2="205.104"  stroke="#cc9c58" />
<line x1="-3408.51" y1="205.311" x2="265.886" y2="205.311"  stroke="#7bfe5f" />
</g>
<g><title>ray</title>
<line x1="397.033" y1="203.813" x2="534.204" y2="199.995"  stroke="#f138a0" />
<line x1="383.521" y1="203.875" x2="397.033" y2="203.813"  stroke="#9225ed" />
<line x1="382.686" y1="203.882" x2="383.521" y2="203.875"  stroke="#74a30c" />
<line x1="363.606" y1="203.531" x2="382.686" y2="203.882"  stroke="#a7bd19" />
<line x1="359.823" y1="203.455" x2="363.606" y2="203.531"  stroke="#a5323b" />
<line x1="331.97" y1="203.7" x2="359.823" y2="203.455"  stroke="#bafdc0" />
<line x1="312.449" y1="203.871" x2="331.97" y2="203.7"  stroke="#e38be3" />
<line x1="307.573" y1="204.049" x2="312.449" y2="203.871"  stroke="#dd9db7" />
<line x1="281.363" y1="205.081" x2="307.573" y2="204.049"  stroke="#ba26c0" />
<line x1="280.474" y1="205.099" x2="281.363" y2="205.081"  stroke="#26679c" />
<line x1="265.886" y1="205.311" x2="280.474" y2="205.099"  stroke="#b6d3e1" />
<line x1="-3408.51" y1="205.311" x2="265.886" y2="205.311"  stroke="#106499" />
</g>
</g>
</svg>
